G04 #@! TF.GenerationSoftware,KiCad,Pcbnew,6.0.11+dfsg-1*
G04 #@! TF.ProjectId,project,70726f6a-6563-4742-9e6b-696361645f70,rev?*
G04 #@! TF.SameCoordinates,Original*
G04 #@! TF.FileFunction,Legend,Bot*
G04 #@! TF.FilePolarity,Positive*
%FSLAX46Y46*%
G04 Gerber Fmt 4.6, Leading zero omitted, Abs format (unit mm)*
%MOMM*%
%LPD*%
G01*
G04 APERTURE LIST*
G04 #@! TA.AperFunction,Profile*
%ADD10C,0.100000*%
G04 #@! TD*
%ADD11C,0.150000*%
%ADD12C,0.120000*%
%ADD13C,0.770000*%
%ADD14C,2.000000*%
%ADD15R,3.500000X3.500000*%
%ADD16C,3.500000*%
%ADD17C,0.800000*%
%ADD18C,6.400000*%
%ADD19C,1.700000*%
%ADD20C,3.250000*%
%ADD21R,1.500000X1.500000*%
%ADD22C,1.500000*%
%ADD23O,1.200000X2.500000*%
%ADD24C,1.552000*%
%ADD25C,1.440000*%
%ADD26R,1.700000X1.700000*%
%ADD27O,1.700000X1.700000*%
G04 APERTURE END LIST*
D10*
X100000000Y-147500000D02*
X100000000Y-55000000D01*
X100000000Y-147500000D02*
G75*
G03*
X102500000Y-150000000I2500000J0D01*
G01*
X105000000Y-50000000D02*
G75*
G03*
X100000000Y-55000000I0J-5000000D01*
G01*
X197500000Y-150000000D02*
G75*
G03*
X200000000Y-147500000I0J2500000D01*
G01*
X200000000Y-55000000D02*
X200000000Y-147500000D01*
X102500000Y-150000000D02*
X197500000Y-150000000D01*
X200000000Y-55000000D02*
G75*
G03*
X195000000Y-50000000I-5000000J0D01*
G01*
X105000000Y-50000000D02*
X195000000Y-50000000D01*
D11*
X128742857Y-146733333D02*
X128742857Y-146466666D01*
X129161904Y-146466666D02*
X128361904Y-146466666D01*
X128361904Y-146847619D01*
X128361904Y-147495238D02*
X128361904Y-147342857D01*
X128400000Y-147266666D01*
X128438095Y-147228571D01*
X128552380Y-147152380D01*
X128704761Y-147114285D01*
X129009523Y-147114285D01*
X129085714Y-147152380D01*
X129123809Y-147190476D01*
X129161904Y-147266666D01*
X129161904Y-147419047D01*
X129123809Y-147495238D01*
X129085714Y-147533333D01*
X129009523Y-147571428D01*
X128819047Y-147571428D01*
X128742857Y-147533333D01*
X128704761Y-147495238D01*
X128666666Y-147419047D01*
X128666666Y-147266666D01*
X128704761Y-147190476D01*
X128742857Y-147152380D01*
X128819047Y-147114285D01*
X145842857Y-147033333D02*
X145842857Y-146766666D01*
X146261904Y-146766666D02*
X145461904Y-146766666D01*
X145461904Y-147147619D01*
X145804761Y-147566666D02*
X145766666Y-147490476D01*
X145728571Y-147452380D01*
X145652380Y-147414285D01*
X145614285Y-147414285D01*
X145538095Y-147452380D01*
X145500000Y-147490476D01*
X145461904Y-147566666D01*
X145461904Y-147719047D01*
X145500000Y-147795238D01*
X145538095Y-147833333D01*
X145614285Y-147871428D01*
X145652380Y-147871428D01*
X145728571Y-147833333D01*
X145766666Y-147795238D01*
X145804761Y-147719047D01*
X145804761Y-147566666D01*
X145842857Y-147490476D01*
X145880952Y-147452380D01*
X145957142Y-147414285D01*
X146109523Y-147414285D01*
X146185714Y-147452380D01*
X146223809Y-147490476D01*
X146261904Y-147566666D01*
X146261904Y-147719047D01*
X146223809Y-147795238D01*
X146185714Y-147833333D01*
X146109523Y-147871428D01*
X145957142Y-147871428D01*
X145880952Y-147833333D01*
X145842857Y-147795238D01*
X145804761Y-147719047D01*
X155042857Y-146833333D02*
X155042857Y-146566666D01*
X155461904Y-146566666D02*
X154661904Y-146566666D01*
X154661904Y-146947619D01*
X155461904Y-147290476D02*
X155461904Y-147442857D01*
X155423809Y-147519047D01*
X155385714Y-147557142D01*
X155271428Y-147633333D01*
X155119047Y-147671428D01*
X154814285Y-147671428D01*
X154738095Y-147633333D01*
X154700000Y-147595238D01*
X154661904Y-147519047D01*
X154661904Y-147366666D01*
X154700000Y-147290476D01*
X154738095Y-147252380D01*
X154814285Y-147214285D01*
X155004761Y-147214285D01*
X155080952Y-147252380D01*
X155119047Y-147290476D01*
X155157142Y-147366666D01*
X155157142Y-147519047D01*
X155119047Y-147595238D01*
X155080952Y-147633333D01*
X155004761Y-147671428D01*
X172842857Y-146552380D02*
X172842857Y-146285714D01*
X173261904Y-146285714D02*
X172461904Y-146285714D01*
X172461904Y-146666666D01*
X173261904Y-147390476D02*
X173261904Y-146933333D01*
X173261904Y-147161904D02*
X172461904Y-147161904D01*
X172576190Y-147085714D01*
X172652380Y-147009523D01*
X172690476Y-146933333D01*
X173261904Y-148152380D02*
X173261904Y-147695238D01*
X173261904Y-147923809D02*
X172461904Y-147923809D01*
X172576190Y-147847619D01*
X172652380Y-147771428D01*
X172690476Y-147695238D01*
X188042857Y-146452380D02*
X188042857Y-146185714D01*
X188461904Y-146185714D02*
X187661904Y-146185714D01*
X187661904Y-146566666D01*
X188461904Y-147290476D02*
X188461904Y-146833333D01*
X188461904Y-147061904D02*
X187661904Y-147061904D01*
X187776190Y-146985714D01*
X187852380Y-146909523D01*
X187890476Y-146833333D01*
X187661904Y-147557142D02*
X187661904Y-148052380D01*
X187966666Y-147785714D01*
X187966666Y-147900000D01*
X188004761Y-147976190D01*
X188042857Y-148014285D01*
X188119047Y-148052380D01*
X188309523Y-148052380D01*
X188385714Y-148014285D01*
X188423809Y-147976190D01*
X188461904Y-147900000D01*
X188461904Y-147671428D01*
X188423809Y-147595238D01*
X188385714Y-147557142D01*
X113042857Y-146633333D02*
X113042857Y-146366666D01*
X113461904Y-146366666D02*
X112661904Y-146366666D01*
X112661904Y-146747619D01*
X112928571Y-147395238D02*
X113461904Y-147395238D01*
X112623809Y-147204761D02*
X113195238Y-147014285D01*
X113195238Y-147509523D01*
X122542857Y-146833333D02*
X122542857Y-146566666D01*
X122961904Y-146566666D02*
X122161904Y-146566666D01*
X122161904Y-146947619D01*
X122161904Y-147633333D02*
X122161904Y-147252380D01*
X122542857Y-147214285D01*
X122504761Y-147252380D01*
X122466666Y-147328571D01*
X122466666Y-147519047D01*
X122504761Y-147595238D01*
X122542857Y-147633333D01*
X122619047Y-147671428D01*
X122809523Y-147671428D01*
X122885714Y-147633333D01*
X122923809Y-147595238D01*
X122961904Y-147519047D01*
X122961904Y-147328571D01*
X122923809Y-147252380D01*
X122885714Y-147214285D01*
X179042857Y-146652380D02*
X179042857Y-146385714D01*
X179461904Y-146385714D02*
X178661904Y-146385714D01*
X178661904Y-146766666D01*
X179461904Y-147490476D02*
X179461904Y-147033333D01*
X179461904Y-147261904D02*
X178661904Y-147261904D01*
X178776190Y-147185714D01*
X178852380Y-147109523D01*
X178890476Y-147033333D01*
X178738095Y-147795238D02*
X178700000Y-147833333D01*
X178661904Y-147909523D01*
X178661904Y-148100000D01*
X178700000Y-148176190D01*
X178738095Y-148214285D01*
X178814285Y-148252380D01*
X178890476Y-148252380D01*
X179004761Y-148214285D01*
X179461904Y-147757142D01*
X179461904Y-148252380D01*
X161742857Y-146852380D02*
X161742857Y-146585714D01*
X162161904Y-146585714D02*
X161361904Y-146585714D01*
X161361904Y-146966666D01*
X162161904Y-147690476D02*
X162161904Y-147233333D01*
X162161904Y-147461904D02*
X161361904Y-147461904D01*
X161476190Y-147385714D01*
X161552380Y-147309523D01*
X161590476Y-147233333D01*
X161361904Y-148185714D02*
X161361904Y-148261904D01*
X161400000Y-148338095D01*
X161438095Y-148376190D01*
X161514285Y-148414285D01*
X161666666Y-148452380D01*
X161857142Y-148452380D01*
X162009523Y-148414285D01*
X162085714Y-148376190D01*
X162123809Y-148338095D01*
X162161904Y-148261904D01*
X162161904Y-148185714D01*
X162123809Y-148109523D01*
X162085714Y-148071428D01*
X162009523Y-148033333D01*
X161857142Y-147995238D01*
X161666666Y-147995238D01*
X161514285Y-148033333D01*
X161438095Y-148071428D01*
X161400000Y-148109523D01*
X161361904Y-148185714D01*
X194042857Y-146452380D02*
X194042857Y-146185714D01*
X194461904Y-146185714D02*
X193661904Y-146185714D01*
X193661904Y-146566666D01*
X194461904Y-147290476D02*
X194461904Y-146833333D01*
X194461904Y-147061904D02*
X193661904Y-147061904D01*
X193776190Y-146985714D01*
X193852380Y-146909523D01*
X193890476Y-146833333D01*
X193928571Y-147976190D02*
X194461904Y-147976190D01*
X193623809Y-147785714D02*
X194195238Y-147595238D01*
X194195238Y-148090476D01*
X106942857Y-146733333D02*
X106942857Y-146466666D01*
X107361904Y-146466666D02*
X106561904Y-146466666D01*
X106561904Y-146847619D01*
X106561904Y-147076190D02*
X106561904Y-147571428D01*
X106866666Y-147304761D01*
X106866666Y-147419047D01*
X106904761Y-147495238D01*
X106942857Y-147533333D01*
X107019047Y-147571428D01*
X107209523Y-147571428D01*
X107285714Y-147533333D01*
X107323809Y-147495238D01*
X107361904Y-147419047D01*
X107361904Y-147190476D01*
X107323809Y-147114285D01*
X107285714Y-147076190D01*
X139742857Y-147233333D02*
X139742857Y-146966666D01*
X140161904Y-146966666D02*
X139361904Y-146966666D01*
X139361904Y-147347619D01*
X139361904Y-147576190D02*
X139361904Y-148109523D01*
X140161904Y-147766666D01*
D12*
X127510000Y-147602064D02*
X127510000Y-146397936D01*
X125690000Y-147602064D02*
X125690000Y-146397936D01*
X142890000Y-147602064D02*
X142890000Y-146397936D01*
X144710000Y-147602064D02*
X144710000Y-146397936D01*
X156290000Y-147602064D02*
X156290000Y-146397936D01*
X158110000Y-147602064D02*
X158110000Y-146397936D01*
X175310000Y-147602064D02*
X175310000Y-146397936D01*
X173490000Y-147602064D02*
X173490000Y-146397936D01*
X191110000Y-147602064D02*
X191110000Y-146397936D01*
X189290000Y-147602064D02*
X189290000Y-146397936D01*
X111810000Y-147602064D02*
X111810000Y-146397936D01*
X109990000Y-147602064D02*
X109990000Y-146397936D01*
X125210000Y-147602064D02*
X125210000Y-146397936D01*
X123390000Y-147602064D02*
X123390000Y-146397936D01*
X175890000Y-147602064D02*
X175890000Y-146397936D01*
X177710000Y-147602064D02*
X177710000Y-146397936D01*
X160510000Y-147602064D02*
X160510000Y-146397936D01*
X158690000Y-147602064D02*
X158690000Y-146397936D01*
X193410000Y-147602064D02*
X193410000Y-146397936D01*
X191590000Y-147602064D02*
X191590000Y-146397936D01*
X109410000Y-147602064D02*
X109410000Y-146397936D01*
X107590000Y-147602064D02*
X107590000Y-146397936D01*
X142410000Y-147602064D02*
X142410000Y-146397936D01*
X140590000Y-147602064D02*
X140590000Y-146397936D01*
%LPC*%
D13*
X160090000Y-58270000D03*
X158790000Y-58270000D03*
X160090000Y-56970000D03*
X158790000Y-56970000D03*
X158790000Y-59570000D03*
X160090000Y-59570000D03*
D14*
X144500000Y-53675000D03*
X133500000Y-53675000D03*
D15*
X141500000Y-63675000D03*
D16*
X136500000Y-63675000D03*
D17*
X193302944Y-53302944D03*
X193302944Y-56697056D03*
X192600000Y-55000000D03*
D18*
X195000000Y-55000000D03*
D17*
X196697056Y-56697056D03*
X197400000Y-55000000D03*
X195000000Y-57400000D03*
X195000000Y-52600000D03*
X196697056Y-53302944D03*
G36*
G01*
X185102500Y-88790000D02*
X185102500Y-89990000D01*
G75*
G02*
X184852500Y-90240000I-250000J0D01*
G01*
X183652500Y-90240000D01*
G75*
G02*
X183402500Y-89990000I0J250000D01*
G01*
X183402500Y-88790000D01*
G75*
G02*
X183652500Y-88540000I250000J0D01*
G01*
X184852500Y-88540000D01*
G75*
G02*
X185102500Y-88790000I0J-250000D01*
G01*
G37*
D19*
X181712500Y-89390000D03*
X184252500Y-86850000D03*
X181712500Y-86850000D03*
X184252500Y-84310000D03*
X181712500Y-84310000D03*
X184252500Y-81770000D03*
X181712500Y-81770000D03*
X184252500Y-79230000D03*
X181712500Y-79230000D03*
X184252500Y-76690000D03*
X181712500Y-76690000D03*
X184252500Y-74150000D03*
X181712500Y-74150000D03*
X184252500Y-71610000D03*
X181712500Y-71610000D03*
D20*
X164240000Y-146530000D03*
X135790000Y-146530000D03*
D21*
X161450000Y-143990000D03*
D22*
X160434000Y-142210000D03*
X159418000Y-143990000D03*
X158402000Y-142210000D03*
X157386000Y-143990000D03*
X156370000Y-142210000D03*
X155354000Y-143990000D03*
X154338000Y-142210000D03*
X164750000Y-137390000D03*
X162460000Y-137390000D03*
X153320000Y-137390000D03*
X151030000Y-137390000D03*
D21*
X145700000Y-143990000D03*
D22*
X144684000Y-142210000D03*
X143668000Y-143990000D03*
X142652000Y-142210000D03*
X141636000Y-143990000D03*
X140620000Y-142210000D03*
X139604000Y-143990000D03*
X138588000Y-142210000D03*
X149000000Y-137390000D03*
X146710000Y-137390000D03*
X137570000Y-137390000D03*
X135280000Y-137390000D03*
D23*
X165950000Y-143100000D03*
X134050000Y-143100000D03*
D17*
X117100000Y-134910000D03*
X115402944Y-130812944D03*
D18*
X117100000Y-132510000D03*
D17*
X118797056Y-130812944D03*
X119500000Y-132510000D03*
X117100000Y-130110000D03*
X115402944Y-134207056D03*
X118797056Y-134207056D03*
X114700000Y-132510000D03*
D24*
X191000000Y-52000000D03*
D17*
X151697056Y-53302944D03*
X151697056Y-56697056D03*
X147600000Y-55000000D03*
X148302944Y-56697056D03*
X152400000Y-55000000D03*
D18*
X150000000Y-55000000D03*
D17*
X150000000Y-52600000D03*
X148302944Y-53302944D03*
X150000000Y-57400000D03*
D25*
X162790000Y-52770000D03*
X160250000Y-52770000D03*
X157710000Y-52770000D03*
D24*
X103000000Y-132000000D03*
D26*
X179440000Y-62395000D03*
D27*
X179440000Y-59855000D03*
X179440000Y-57315000D03*
D24*
X109000000Y-52000000D03*
G36*
G01*
X118850000Y-88790000D02*
X118850000Y-89990000D01*
G75*
G02*
X118600000Y-90240000I-250000J0D01*
G01*
X117400000Y-90240000D01*
G75*
G02*
X117150000Y-89990000I0J250000D01*
G01*
X117150000Y-88790000D01*
G75*
G02*
X117400000Y-88540000I250000J0D01*
G01*
X118600000Y-88540000D01*
G75*
G02*
X118850000Y-88790000I0J-250000D01*
G01*
G37*
D19*
X115460000Y-89390000D03*
X118000000Y-86850000D03*
X115460000Y-86850000D03*
X118000000Y-84310000D03*
X115460000Y-84310000D03*
X118000000Y-81770000D03*
X115460000Y-81770000D03*
X118000000Y-79230000D03*
X115460000Y-79230000D03*
X118000000Y-76690000D03*
X115460000Y-76690000D03*
X118000000Y-74150000D03*
X115460000Y-74150000D03*
X118000000Y-71610000D03*
X115460000Y-71610000D03*
D14*
X168140000Y-62070000D03*
X173140000Y-62070000D03*
D17*
X148302944Y-130812944D03*
X151697056Y-130812944D03*
X150000000Y-134910000D03*
X150000000Y-130110000D03*
X148302944Y-134207056D03*
X151697056Y-134207056D03*
D18*
X150000000Y-132510000D03*
D17*
X147600000Y-132510000D03*
X152400000Y-132510000D03*
D20*
X102840000Y-146530000D03*
X131290000Y-146530000D03*
D21*
X128500000Y-143990000D03*
D22*
X127484000Y-142210000D03*
X126468000Y-143990000D03*
X125452000Y-142210000D03*
X124436000Y-143990000D03*
X123420000Y-142210000D03*
X122404000Y-143990000D03*
X121388000Y-142210000D03*
X131800000Y-137390000D03*
X129510000Y-137390000D03*
X120370000Y-137390000D03*
X118080000Y-137390000D03*
D21*
X112750000Y-143990000D03*
D22*
X111734000Y-142210000D03*
X110718000Y-143990000D03*
X109702000Y-142210000D03*
X108686000Y-143990000D03*
X107670000Y-142210000D03*
X106654000Y-143990000D03*
X105638000Y-142210000D03*
X116050000Y-137390000D03*
X113760000Y-137390000D03*
X104620000Y-137390000D03*
X102330000Y-137390000D03*
D23*
X133000000Y-143100000D03*
X101100000Y-143100000D03*
D17*
X183000000Y-134910000D03*
X184697056Y-130812944D03*
X185400000Y-132510000D03*
X181302944Y-134207056D03*
D18*
X183000000Y-132510000D03*
D17*
X180600000Y-132510000D03*
X183000000Y-130110000D03*
X184697056Y-134207056D03*
X181302944Y-130812944D03*
X105000000Y-52600000D03*
X102600000Y-55000000D03*
X106697056Y-53302944D03*
D18*
X105000000Y-55000000D03*
D17*
X103302944Y-53302944D03*
X105000000Y-57400000D03*
X106697056Y-56697056D03*
X103302944Y-56697056D03*
X107400000Y-55000000D03*
D20*
X168740000Y-146530000D03*
X197190000Y-146530000D03*
D21*
X194400000Y-143990000D03*
D22*
X193384000Y-142210000D03*
X192368000Y-143990000D03*
X191352000Y-142210000D03*
X190336000Y-143990000D03*
X189320000Y-142210000D03*
X188304000Y-143990000D03*
X187288000Y-142210000D03*
X197700000Y-137390000D03*
X195410000Y-137390000D03*
X186270000Y-137390000D03*
X183980000Y-137390000D03*
D21*
X178650000Y-143990000D03*
D22*
X177634000Y-142210000D03*
X176618000Y-143990000D03*
X175602000Y-142210000D03*
X174586000Y-143990000D03*
X173570000Y-142210000D03*
X172554000Y-143990000D03*
X171538000Y-142210000D03*
X181950000Y-137390000D03*
X179660000Y-137390000D03*
X170520000Y-137390000D03*
X168230000Y-137390000D03*
D23*
X167000000Y-143100000D03*
X198900000Y-143100000D03*
G36*
G01*
X127224999Y-149200000D02*
X125975001Y-149200000D01*
G75*
G02*
X125725000Y-148949999I0J250001D01*
G01*
X125725000Y-148025001D01*
G75*
G02*
X125975001Y-147775000I250001J0D01*
G01*
X127224999Y-147775000D01*
G75*
G02*
X127475000Y-148025001I0J-250001D01*
G01*
X127475000Y-148949999D01*
G75*
G02*
X127224999Y-149200000I-250001J0D01*
G01*
G37*
G36*
G01*
X127224999Y-146225000D02*
X125975001Y-146225000D01*
G75*
G02*
X125725000Y-145974999I0J250001D01*
G01*
X125725000Y-145050001D01*
G75*
G02*
X125975001Y-144800000I250001J0D01*
G01*
X127224999Y-144800000D01*
G75*
G02*
X127475000Y-145050001I0J-250001D01*
G01*
X127475000Y-145974999D01*
G75*
G02*
X127224999Y-146225000I-250001J0D01*
G01*
G37*
G36*
G01*
X144424999Y-149200000D02*
X143175001Y-149200000D01*
G75*
G02*
X142925000Y-148949999I0J250001D01*
G01*
X142925000Y-148025001D01*
G75*
G02*
X143175001Y-147775000I250001J0D01*
G01*
X144424999Y-147775000D01*
G75*
G02*
X144675000Y-148025001I0J-250001D01*
G01*
X144675000Y-148949999D01*
G75*
G02*
X144424999Y-149200000I-250001J0D01*
G01*
G37*
G36*
G01*
X144424999Y-146225000D02*
X143175001Y-146225000D01*
G75*
G02*
X142925000Y-145974999I0J250001D01*
G01*
X142925000Y-145050001D01*
G75*
G02*
X143175001Y-144800000I250001J0D01*
G01*
X144424999Y-144800000D01*
G75*
G02*
X144675000Y-145050001I0J-250001D01*
G01*
X144675000Y-145974999D01*
G75*
G02*
X144424999Y-146225000I-250001J0D01*
G01*
G37*
G36*
G01*
X157824999Y-149200000D02*
X156575001Y-149200000D01*
G75*
G02*
X156325000Y-148949999I0J250001D01*
G01*
X156325000Y-148025001D01*
G75*
G02*
X156575001Y-147775000I250001J0D01*
G01*
X157824999Y-147775000D01*
G75*
G02*
X158075000Y-148025001I0J-250001D01*
G01*
X158075000Y-148949999D01*
G75*
G02*
X157824999Y-149200000I-250001J0D01*
G01*
G37*
G36*
G01*
X157824999Y-146225000D02*
X156575001Y-146225000D01*
G75*
G02*
X156325000Y-145974999I0J250001D01*
G01*
X156325000Y-145050001D01*
G75*
G02*
X156575001Y-144800000I250001J0D01*
G01*
X157824999Y-144800000D01*
G75*
G02*
X158075000Y-145050001I0J-250001D01*
G01*
X158075000Y-145974999D01*
G75*
G02*
X157824999Y-146225000I-250001J0D01*
G01*
G37*
G36*
G01*
X175024999Y-149200000D02*
X173775001Y-149200000D01*
G75*
G02*
X173525000Y-148949999I0J250001D01*
G01*
X173525000Y-148025001D01*
G75*
G02*
X173775001Y-147775000I250001J0D01*
G01*
X175024999Y-147775000D01*
G75*
G02*
X175275000Y-148025001I0J-250001D01*
G01*
X175275000Y-148949999D01*
G75*
G02*
X175024999Y-149200000I-250001J0D01*
G01*
G37*
G36*
G01*
X175024999Y-146225000D02*
X173775001Y-146225000D01*
G75*
G02*
X173525000Y-145974999I0J250001D01*
G01*
X173525000Y-145050001D01*
G75*
G02*
X173775001Y-144800000I250001J0D01*
G01*
X175024999Y-144800000D01*
G75*
G02*
X175275000Y-145050001I0J-250001D01*
G01*
X175275000Y-145974999D01*
G75*
G02*
X175024999Y-146225000I-250001J0D01*
G01*
G37*
G36*
G01*
X190824999Y-149200000D02*
X189575001Y-149200000D01*
G75*
G02*
X189325000Y-148949999I0J250001D01*
G01*
X189325000Y-148025001D01*
G75*
G02*
X189575001Y-147775000I250001J0D01*
G01*
X190824999Y-147775000D01*
G75*
G02*
X191075000Y-148025001I0J-250001D01*
G01*
X191075000Y-148949999D01*
G75*
G02*
X190824999Y-149200000I-250001J0D01*
G01*
G37*
G36*
G01*
X190824999Y-146225000D02*
X189575001Y-146225000D01*
G75*
G02*
X189325000Y-145974999I0J250001D01*
G01*
X189325000Y-145050001D01*
G75*
G02*
X189575001Y-144800000I250001J0D01*
G01*
X190824999Y-144800000D01*
G75*
G02*
X191075000Y-145050001I0J-250001D01*
G01*
X191075000Y-145974999D01*
G75*
G02*
X190824999Y-146225000I-250001J0D01*
G01*
G37*
G36*
G01*
X111524999Y-149200000D02*
X110275001Y-149200000D01*
G75*
G02*
X110025000Y-148949999I0J250001D01*
G01*
X110025000Y-148025001D01*
G75*
G02*
X110275001Y-147775000I250001J0D01*
G01*
X111524999Y-147775000D01*
G75*
G02*
X111775000Y-148025001I0J-250001D01*
G01*
X111775000Y-148949999D01*
G75*
G02*
X111524999Y-149200000I-250001J0D01*
G01*
G37*
G36*
G01*
X111524999Y-146225000D02*
X110275001Y-146225000D01*
G75*
G02*
X110025000Y-145974999I0J250001D01*
G01*
X110025000Y-145050001D01*
G75*
G02*
X110275001Y-144800000I250001J0D01*
G01*
X111524999Y-144800000D01*
G75*
G02*
X111775000Y-145050001I0J-250001D01*
G01*
X111775000Y-145974999D01*
G75*
G02*
X111524999Y-146225000I-250001J0D01*
G01*
G37*
G36*
G01*
X124924999Y-149200000D02*
X123675001Y-149200000D01*
G75*
G02*
X123425000Y-148949999I0J250001D01*
G01*
X123425000Y-148025001D01*
G75*
G02*
X123675001Y-147775000I250001J0D01*
G01*
X124924999Y-147775000D01*
G75*
G02*
X125175000Y-148025001I0J-250001D01*
G01*
X125175000Y-148949999D01*
G75*
G02*
X124924999Y-149200000I-250001J0D01*
G01*
G37*
G36*
G01*
X124924999Y-146225000D02*
X123675001Y-146225000D01*
G75*
G02*
X123425000Y-145974999I0J250001D01*
G01*
X123425000Y-145050001D01*
G75*
G02*
X123675001Y-144800000I250001J0D01*
G01*
X124924999Y-144800000D01*
G75*
G02*
X125175000Y-145050001I0J-250001D01*
G01*
X125175000Y-145974999D01*
G75*
G02*
X124924999Y-146225000I-250001J0D01*
G01*
G37*
G36*
G01*
X177424999Y-149200000D02*
X176175001Y-149200000D01*
G75*
G02*
X175925000Y-148949999I0J250001D01*
G01*
X175925000Y-148025001D01*
G75*
G02*
X176175001Y-147775000I250001J0D01*
G01*
X177424999Y-147775000D01*
G75*
G02*
X177675000Y-148025001I0J-250001D01*
G01*
X177675000Y-148949999D01*
G75*
G02*
X177424999Y-149200000I-250001J0D01*
G01*
G37*
G36*
G01*
X177424999Y-146225000D02*
X176175001Y-146225000D01*
G75*
G02*
X175925000Y-145974999I0J250001D01*
G01*
X175925000Y-145050001D01*
G75*
G02*
X176175001Y-144800000I250001J0D01*
G01*
X177424999Y-144800000D01*
G75*
G02*
X177675000Y-145050001I0J-250001D01*
G01*
X177675000Y-145974999D01*
G75*
G02*
X177424999Y-146225000I-250001J0D01*
G01*
G37*
G36*
G01*
X160224999Y-149200000D02*
X158975001Y-149200000D01*
G75*
G02*
X158725000Y-148949999I0J250001D01*
G01*
X158725000Y-148025001D01*
G75*
G02*
X158975001Y-147775000I250001J0D01*
G01*
X160224999Y-147775000D01*
G75*
G02*
X160475000Y-148025001I0J-250001D01*
G01*
X160475000Y-148949999D01*
G75*
G02*
X160224999Y-149200000I-250001J0D01*
G01*
G37*
G36*
G01*
X160224999Y-146225000D02*
X158975001Y-146225000D01*
G75*
G02*
X158725000Y-145974999I0J250001D01*
G01*
X158725000Y-145050001D01*
G75*
G02*
X158975001Y-144800000I250001J0D01*
G01*
X160224999Y-144800000D01*
G75*
G02*
X160475000Y-145050001I0J-250001D01*
G01*
X160475000Y-145974999D01*
G75*
G02*
X160224999Y-146225000I-250001J0D01*
G01*
G37*
G36*
G01*
X193124999Y-149200000D02*
X191875001Y-149200000D01*
G75*
G02*
X191625000Y-148949999I0J250001D01*
G01*
X191625000Y-148025001D01*
G75*
G02*
X191875001Y-147775000I250001J0D01*
G01*
X193124999Y-147775000D01*
G75*
G02*
X193375000Y-148025001I0J-250001D01*
G01*
X193375000Y-148949999D01*
G75*
G02*
X193124999Y-149200000I-250001J0D01*
G01*
G37*
G36*
G01*
X193124999Y-146225000D02*
X191875001Y-146225000D01*
G75*
G02*
X191625000Y-145974999I0J250001D01*
G01*
X191625000Y-145050001D01*
G75*
G02*
X191875001Y-144800000I250001J0D01*
G01*
X193124999Y-144800000D01*
G75*
G02*
X193375000Y-145050001I0J-250001D01*
G01*
X193375000Y-145974999D01*
G75*
G02*
X193124999Y-146225000I-250001J0D01*
G01*
G37*
G36*
G01*
X109124999Y-149200000D02*
X107875001Y-149200000D01*
G75*
G02*
X107625000Y-148949999I0J250001D01*
G01*
X107625000Y-148025001D01*
G75*
G02*
X107875001Y-147775000I250001J0D01*
G01*
X109124999Y-147775000D01*
G75*
G02*
X109375000Y-148025001I0J-250001D01*
G01*
X109375000Y-148949999D01*
G75*
G02*
X109124999Y-149200000I-250001J0D01*
G01*
G37*
G36*
G01*
X109124999Y-146225000D02*
X107875001Y-146225000D01*
G75*
G02*
X107625000Y-145974999I0J250001D01*
G01*
X107625000Y-145050001D01*
G75*
G02*
X107875001Y-144800000I250001J0D01*
G01*
X109124999Y-144800000D01*
G75*
G02*
X109375000Y-145050001I0J-250001D01*
G01*
X109375000Y-145974999D01*
G75*
G02*
X109124999Y-146225000I-250001J0D01*
G01*
G37*
G36*
G01*
X142124999Y-149200000D02*
X140875001Y-149200000D01*
G75*
G02*
X140625000Y-148949999I0J250001D01*
G01*
X140625000Y-148025001D01*
G75*
G02*
X140875001Y-147775000I250001J0D01*
G01*
X142124999Y-147775000D01*
G75*
G02*
X142375000Y-148025001I0J-250001D01*
G01*
X142375000Y-148949999D01*
G75*
G02*
X142124999Y-149200000I-250001J0D01*
G01*
G37*
G36*
G01*
X142124999Y-146225000D02*
X140875001Y-146225000D01*
G75*
G02*
X140625000Y-145974999I0J250001D01*
G01*
X140625000Y-145050001D01*
G75*
G02*
X140875001Y-144800000I250001J0D01*
G01*
X142124999Y-144800000D01*
G75*
G02*
X142375000Y-145050001I0J-250001D01*
G01*
X142375000Y-145974999D01*
G75*
G02*
X142124999Y-146225000I-250001J0D01*
G01*
G37*
M02*
