M48
; FORMAT={-:-/ absolute / metric / decimal}
; #@! TF.GenerationSoftware,Kicad,Pcbnew,6.0.11+dfsg-1
; #@! TF.FileFunction,Plated,1,4,PTH
FMAT,2
METRIC
; #@! TA.AperFunction,Plated,PTH,ViaDrill
T1C0.300
; #@! TA.AperFunction,Plated,PTH,ComponentDrill
T2C0.330
; #@! TA.AperFunction,Plated,PTH,ComponentDrill
T3C0.500
; #@! TA.AperFunction,Plated,PTH,ComponentDrill
T4C0.800
; #@! TA.AperFunction,Plated,PTH,ComponentDrill
T5C0.900
; #@! TA.AperFunction,Plated,PTH,ComponentDrill
T6C1.000
; #@! TA.AperFunction,Plated,PTH,ComponentDrill
T7C1.300
; #@! TA.AperFunction,Plated,PTH,ComponentDrill
T8C1.900
; #@! TA.AperFunction,Plated,PTH,ComponentDrill
T9C3.200
%
G90
G05
T1
X101.0Y-140.0
X101.873Y-85.475
X101.873Y-86.225
X101.947Y-89.7
X101.947Y-90.619
X101.947Y-91.619
X102.0Y-133.0
X102.0Y-139.0
X102.054Y-103.776
X102.11Y-95.2
X102.11Y-95.95
X102.51Y-101.487
X102.51Y-102.775
X102.623Y-85.475
X102.623Y-86.225
X102.86Y-95.2
X102.86Y-95.95
X103.0Y-64.0
X103.0Y-66.0
X103.0Y-68.0
X103.0Y-70.0
X103.0Y-74.0
X103.0Y-76.0
X103.0Y-78.0
X103.0Y-135.0
X103.0Y-140.0
X104.0Y-63.0
X104.0Y-65.0
X104.0Y-67.0
X104.0Y-69.0
X104.0Y-71.0
X104.0Y-133.0
X104.0Y-139.0
X104.21Y-109.012
X104.21Y-109.762
X104.285Y-113.237
X104.285Y-114.156
X104.285Y-115.156
X104.447Y-118.737
X104.447Y-119.487
X104.847Y-125.025
X104.847Y-126.312
X104.96Y-109.012
X104.96Y-109.762
X105.0Y-64.0
X105.0Y-66.0
X105.0Y-68.0
X105.0Y-70.0
X105.0Y-74.0
X105.0Y-76.0
X105.0Y-78.0
X105.0Y-135.0
X105.0Y-146.0
X105.197Y-118.737
X105.197Y-119.487
X105.373Y-85.475
X105.373Y-86.225
X105.447Y-89.7
X105.447Y-90.619
X105.447Y-91.619
X105.61Y-95.2
X105.61Y-95.95
X106.0Y-63.0
X106.0Y-65.0
X106.0Y-67.0
X106.0Y-69.0
X106.0Y-71.0
X106.0Y-148.0
X106.01Y-101.487
X106.01Y-102.775
X106.123Y-85.475
X106.123Y-86.225
X106.36Y-95.2
X106.36Y-95.95
X107.0Y-64.0
X107.0Y-66.0
X107.0Y-68.0
X107.0Y-70.0
X107.0Y-74.0
X107.0Y-76.0
X107.0Y-78.0
X107.0Y-146.0
X107.61Y-109.012
X107.61Y-109.762
X107.685Y-113.237
X107.685Y-114.156
X107.685Y-115.156
X107.847Y-118.737
X107.847Y-119.487
X108.0Y-63.0
X108.0Y-65.0
X108.0Y-67.0
X108.0Y-69.0
X108.0Y-71.0
X108.0Y-148.0
X108.247Y-125.025
X108.247Y-126.312
X108.36Y-109.012
X108.36Y-109.762
X108.591Y-100.329
X108.597Y-118.737
X108.597Y-119.487
X109.0Y-64.0
X109.0Y-66.0
X109.0Y-68.0
X109.0Y-70.0
X109.0Y-74.0
X109.0Y-76.0
X109.0Y-78.0
X109.14Y-98.757
X109.684Y-104.076
X110.0Y-148.0
X110.016Y-106.295
X111.01Y-109.012
X111.01Y-109.762
X111.085Y-113.237
X111.085Y-114.156
X111.085Y-115.156
X111.247Y-118.737
X111.247Y-119.487
X111.647Y-125.025
X111.647Y-126.312
X111.76Y-109.012
X111.76Y-109.762
X111.997Y-118.737
X111.997Y-119.487
X112.0Y-148.0
X113.0Y-146.0
X113.597Y-105.662
X114.0Y-140.0
X114.0Y-148.0
X114.347Y-105.662
X114.41Y-109.012
X114.41Y-109.762
X114.485Y-113.237
X114.485Y-114.156
X114.485Y-115.156
X114.647Y-118.737
X114.647Y-119.487
X114.75Y-99.25
X115.0Y-139.0
X115.0Y-142.0
X115.0Y-146.0
X115.047Y-125.025
X115.047Y-126.312
X115.16Y-109.012
X115.16Y-109.762
X115.397Y-118.737
X115.397Y-119.487
X116.0Y-140.0
X116.0Y-144.0
X116.0Y-148.0
X117.0Y-139.0
X117.0Y-142.0
X117.0Y-146.0
X117.81Y-109.012
X117.81Y-109.762
X117.885Y-113.237
X117.885Y-114.156
X117.885Y-115.156
X118.0Y-140.0
X118.0Y-144.0
X118.0Y-148.0
X118.047Y-118.737
X118.047Y-119.487
X118.097Y-98.662
X118.447Y-125.025
X118.447Y-126.312
X118.56Y-109.012
X118.56Y-109.762
X118.797Y-118.737
X118.797Y-119.487
X119.0Y-139.0
X119.0Y-146.0
X120.0Y-148.0
X121.0Y-146.0
X121.21Y-109.012
X121.21Y-109.762
X121.285Y-113.237
X121.285Y-114.156
X121.285Y-115.156
X121.447Y-118.737
X121.447Y-119.487
X121.847Y-125.025
X121.847Y-126.312
X121.96Y-109.012
X121.96Y-109.762
X122.0Y-148.0
X122.197Y-118.737
X122.197Y-119.487
X123.0Y-85.0
X123.597Y-102.563
X124.0Y-148.0
X124.597Y-95.662
X124.597Y-96.412
X124.61Y-109.012
X124.61Y-109.762
X124.66Y-99.412
X124.685Y-113.237
X124.685Y-114.156
X124.685Y-115.156
X124.847Y-118.737
X124.847Y-119.487
X125.0Y-61.0
X125.0Y-63.0
X125.0Y-65.0
X125.247Y-125.025
X125.247Y-126.312
X125.36Y-109.012
X125.36Y-109.762
X125.597Y-118.737
X125.597Y-119.487
X126.0Y-60.0
X126.0Y-62.0
X126.0Y-64.0
X126.0Y-148.0
X126.972Y-85.475
X126.972Y-86.225
X127.0Y-61.0
X127.0Y-63.0
X127.0Y-65.0
X127.047Y-89.7
X127.047Y-90.619
X127.047Y-91.619
X127.21Y-95.2
X127.21Y-95.95
X127.61Y-101.487
X127.61Y-102.775
X127.722Y-85.475
X127.722Y-86.225
X127.96Y-95.2
X127.96Y-95.95
X128.0Y-60.0
X128.0Y-62.0
X128.0Y-64.0
X128.0Y-68.0
X128.0Y-69.0
X128.0Y-70.0
X128.0Y-72.0
X128.0Y-74.0
X128.0Y-148.0
X128.01Y-109.012
X128.01Y-109.762
X128.085Y-113.237
X128.085Y-114.156
X128.085Y-115.156
X128.248Y-118.737
X128.248Y-119.487
X128.648Y-125.025
X128.648Y-126.312
X128.76Y-109.012
X128.76Y-109.762
X128.998Y-118.737
X128.998Y-119.487
X129.0Y-61.0
X129.0Y-63.0
X129.0Y-65.0
X129.0Y-68.0
X129.0Y-69.0
X129.0Y-70.0
X129.0Y-71.0
X129.0Y-73.0
X129.0Y-75.0
X129.0Y-133.0
X129.0Y-139.0
X129.0Y-146.0
X130.0Y-60.0
X130.0Y-62.0
X130.0Y-64.0
X130.0Y-68.0
X130.0Y-69.0
X130.0Y-70.0
X130.0Y-72.0
X130.0Y-74.0
X130.0Y-135.0
X130.0Y-139.0
X130.472Y-85.475
X130.472Y-86.225
X130.547Y-89.7
X130.547Y-90.619
X130.547Y-91.619
X130.71Y-95.2
X130.71Y-95.95
X131.0Y-61.0
X131.0Y-63.0
X131.0Y-65.0
X131.0Y-68.0
X131.0Y-69.0
X131.0Y-70.0
X131.0Y-71.0
X131.0Y-73.0
X131.0Y-75.0
X131.0Y-133.0
X131.0Y-139.0
X131.11Y-101.487
X131.11Y-102.775
X131.222Y-85.475
X131.222Y-86.225
X131.46Y-95.2
X131.46Y-95.95
X132.0Y-60.0
X132.0Y-62.0
X132.0Y-64.0
X132.0Y-68.0
X132.0Y-69.0
X132.0Y-70.0
X132.0Y-72.0
X132.0Y-74.0
X132.0Y-131.0
X132.0Y-139.0
X132.63Y-104.91
X133.0Y-61.0
X133.0Y-63.0
X133.0Y-65.0
X133.0Y-69.0
X133.0Y-71.0
X133.0Y-73.0
X133.0Y-75.0
X133.0Y-139.0
X134.0Y-60.0
X134.0Y-62.0
X134.0Y-64.0
X134.0Y-68.0
X134.0Y-70.0
X134.0Y-72.0
X134.0Y-74.0
X134.0Y-139.0
X134.822Y-85.475
X134.822Y-86.225
X134.898Y-89.7
X134.898Y-90.619
X134.898Y-91.619
X135.0Y-61.0
X135.0Y-63.0
X135.0Y-65.0
X135.0Y-69.0
X135.0Y-71.0
X135.0Y-73.0
X135.0Y-75.0
X135.0Y-133.0
X135.0Y-139.0
X135.004Y-103.776
X135.06Y-95.2
X135.06Y-95.95
X135.46Y-101.487
X135.46Y-102.775
X135.572Y-85.475
X135.572Y-86.225
X135.81Y-95.2
X135.81Y-95.95
X136.0Y-60.0
X136.0Y-62.0
X136.0Y-68.0
X136.0Y-70.0
X136.0Y-72.0
X136.0Y-74.0
X136.0Y-135.0
X136.0Y-139.0
X137.0Y-61.0
X137.0Y-133.0
X137.0Y-139.0
X137.16Y-109.012
X137.16Y-109.762
X137.235Y-113.237
X137.235Y-114.156
X137.235Y-115.156
X137.398Y-118.737
X137.398Y-119.487
X137.797Y-125.025
X137.797Y-126.312
X137.91Y-109.012
X137.91Y-109.762
X138.0Y-60.0
X138.0Y-62.0
X138.0Y-68.0
X138.0Y-70.0
X138.0Y-72.0
X138.0Y-74.0
X138.0Y-135.0
X138.0Y-146.0
X138.148Y-118.737
X138.148Y-119.487
X138.322Y-85.475
X138.322Y-86.225
X138.397Y-89.7
X138.397Y-90.619
X138.397Y-91.619
X138.56Y-95.2
X138.56Y-95.95
X138.96Y-101.487
X138.96Y-102.775
X139.0Y-67.0
X139.0Y-69.0
X139.0Y-148.0
X139.072Y-85.475
X139.072Y-86.225
X139.31Y-95.2
X139.31Y-95.95
X140.0Y-60.0
X140.0Y-62.0
X140.0Y-66.0
X140.0Y-68.0
X140.0Y-70.0
X140.0Y-72.0
X140.0Y-74.0
X140.0Y-146.0
X140.56Y-109.012
X140.56Y-109.762
X140.635Y-113.237
X140.635Y-114.156
X140.635Y-115.156
X140.797Y-118.737
X140.797Y-119.487
X140.875Y-148.025
X141.0Y-61.0
X141.0Y-67.0
X141.0Y-69.0
X141.197Y-125.025
X141.197Y-126.312
X141.31Y-109.012
X141.31Y-109.762
X141.541Y-100.329
X141.547Y-118.737
X141.547Y-119.487
X142.0Y-60.0
X142.0Y-62.0
X142.0Y-66.0
X142.0Y-68.0
X142.0Y-70.0
X142.0Y-72.0
X142.0Y-74.0
X142.09Y-98.757
X142.635Y-104.076
X142.966Y-106.295
X143.0Y-61.0
X143.0Y-63.0
X143.0Y-65.0
X143.0Y-67.0
X143.0Y-69.0
X143.0Y-148.0
X143.96Y-109.012
X143.96Y-109.762
X144.0Y-60.0
X144.0Y-62.0
X144.0Y-64.0
X144.0Y-66.0
X144.0Y-68.0
X144.0Y-70.0
X144.0Y-72.0
X144.0Y-74.0
X144.0Y-77.8
X144.035Y-113.237
X144.035Y-114.156
X144.035Y-115.156
X144.197Y-118.737
X144.197Y-119.487
X144.597Y-125.025
X144.597Y-126.312
X144.71Y-109.012
X144.71Y-109.762
X144.947Y-118.737
X144.947Y-119.487
X145.0Y-61.0
X145.0Y-63.0
X145.0Y-65.0
X145.0Y-67.0
X145.0Y-69.0
X145.0Y-81.5
X145.0Y-148.0
X145.395Y-78.35
X146.0Y-60.0
X146.0Y-62.0
X146.0Y-64.0
X146.0Y-66.0
X146.0Y-68.0
X146.0Y-70.0
X146.0Y-72.0
X146.0Y-74.0
X146.0Y-146.0
X146.193Y-81.499
X146.234Y-78.889
X146.547Y-105.662
X147.0Y-61.0
X147.0Y-63.0
X147.0Y-65.0
X147.0Y-67.0
X147.0Y-69.0
X147.0Y-79.45
X147.0Y-82.0
X147.0Y-140.0
X147.0Y-148.0
X147.297Y-105.662
X147.36Y-109.012
X147.36Y-109.762
X147.435Y-113.237
X147.435Y-114.156
X147.435Y-115.156
X147.597Y-118.737
X147.597Y-119.487
X147.998Y-125.025
X147.998Y-126.312
X148.0Y-60.0
X148.0Y-62.0
X148.0Y-64.0
X148.0Y-66.0
X148.0Y-68.0
X148.0Y-70.0
X148.0Y-72.0
X148.0Y-74.0
X148.0Y-139.0
X148.0Y-142.0
X148.0Y-146.0
X148.11Y-109.012
X148.11Y-109.762
X148.25Y-98.75
X148.347Y-118.737
X148.347Y-119.487
X149.0Y-61.0
X149.0Y-63.0
X149.0Y-65.0
X149.0Y-67.0
X149.0Y-69.0
X149.0Y-140.0
X149.0Y-144.0
X149.0Y-148.0
X150.0Y-60.0
X150.0Y-62.0
X150.0Y-64.0
X150.0Y-66.0
X150.0Y-68.0
X150.0Y-70.0
X150.0Y-72.0
X150.0Y-74.0
X150.0Y-100.0
X150.0Y-139.0
X150.0Y-142.0
X150.0Y-146.0
X150.345Y-81.655
X150.76Y-109.012
X150.76Y-109.762
X150.835Y-113.237
X150.835Y-114.156
X150.835Y-115.156
X150.998Y-118.737
X150.998Y-119.487
X151.0Y-61.0
X151.0Y-63.0
X151.0Y-65.0
X151.0Y-67.0
X151.0Y-69.0
X151.0Y-140.0
X151.0Y-144.0
X151.0Y-148.0
X151.047Y-98.662
X151.25Y-80.44
X151.397Y-125.025
X151.397Y-126.312
X151.51Y-109.012
X151.51Y-109.762
X151.748Y-118.737
X151.748Y-119.487
X152.0Y-68.0
X152.0Y-70.0
X152.0Y-139.0
X152.0Y-146.0
X153.0Y-148.0
X154.0Y-98.25
X154.0Y-146.0
X154.16Y-109.012
X154.16Y-109.762
X154.235Y-113.237
X154.235Y-114.156
X154.235Y-115.156
X154.397Y-118.737
X154.397Y-119.487
X154.797Y-125.025
X154.797Y-126.312
X154.8Y-77.8
X154.91Y-109.012
X154.91Y-109.762
X155.0Y-148.0
X155.147Y-118.737
X155.147Y-119.487
X155.248Y-83.248
X156.547Y-102.563
X157.0Y-148.0
X157.547Y-95.662
X157.547Y-96.412
X157.56Y-109.012
X157.56Y-109.762
X157.611Y-99.412
X157.635Y-113.237
X157.635Y-114.156
X157.635Y-115.156
X157.797Y-118.737
X157.797Y-119.487
X158.197Y-125.025
X158.197Y-126.312
X158.31Y-109.012
X158.31Y-109.762
X158.547Y-118.737
X158.547Y-119.487
X159.0Y-148.0
X159.922Y-85.475
X159.922Y-86.225
X159.94Y-61.27
X159.94Y-62.27
X159.94Y-63.27
X159.94Y-64.27
X159.94Y-65.27
X159.998Y-89.7
X159.998Y-90.619
X159.998Y-91.619
X160.16Y-95.2
X160.16Y-95.95
X160.56Y-101.487
X160.56Y-102.775
X160.672Y-85.475
X160.672Y-86.225
X160.91Y-95.2
X160.91Y-95.95
X160.94Y-65.27
X160.94Y-66.27
X160.94Y-67.27
X160.96Y-109.012
X160.96Y-109.762
X161.0Y-148.0
X161.035Y-113.237
X161.035Y-114.156
X161.035Y-115.156
X161.197Y-118.737
X161.197Y-119.487
X161.597Y-125.025
X161.597Y-126.312
X161.71Y-109.012
X161.71Y-109.762
X161.947Y-118.737
X161.947Y-119.487
X162.0Y-135.0
X162.0Y-139.0
X162.0Y-146.0
X163.0Y-133.0
X163.0Y-139.0
X163.422Y-85.475
X163.422Y-86.225
X163.498Y-89.7
X163.498Y-90.619
X163.498Y-91.619
X163.66Y-95.2
X163.66Y-95.95
X164.0Y-131.0
X164.0Y-139.0
X164.06Y-101.487
X164.06Y-102.775
X164.172Y-85.475
X164.172Y-86.225
X164.41Y-95.2
X164.41Y-95.95
X165.0Y-133.0
X165.0Y-139.0
X165.58Y-104.91
X166.0Y-139.0
X167.0Y-139.0
X167.772Y-85.475
X167.772Y-86.225
X167.847Y-89.7
X167.847Y-90.619
X167.847Y-91.619
X167.954Y-103.776
X168.0Y-133.0
X168.0Y-139.0
X168.01Y-95.2
X168.01Y-95.95
X168.41Y-101.487
X168.41Y-102.775
X168.522Y-85.475
X168.522Y-86.225
X168.76Y-95.2
X168.76Y-95.95
X169.0Y-135.0
X169.0Y-139.0
X169.94Y-50.77
X169.94Y-52.27
X170.0Y-133.0
X170.0Y-139.0
X170.11Y-109.012
X170.11Y-109.762
X170.185Y-113.237
X170.185Y-114.156
X170.185Y-115.156
X170.347Y-118.737
X170.347Y-119.487
X170.748Y-125.025
X170.748Y-126.312
X170.86Y-109.012
X170.86Y-109.762
X170.94Y-50.77
X170.94Y-52.27
X171.0Y-135.0
X171.0Y-146.0
X171.097Y-118.737
X171.097Y-119.487
X171.272Y-85.475
X171.272Y-86.225
X171.347Y-89.7
X171.347Y-90.619
X171.347Y-91.619
X171.51Y-95.2
X171.51Y-95.95
X171.91Y-101.487
X171.91Y-102.775
X171.94Y-50.77
X171.94Y-52.27
X172.0Y-148.0
X172.022Y-85.475
X172.022Y-86.225
X172.26Y-95.2
X172.26Y-95.95
X172.94Y-50.77
X172.94Y-52.27
X173.51Y-109.012
X173.51Y-109.762
X173.585Y-113.237
X173.585Y-114.156
X173.585Y-115.156
X173.748Y-118.737
X173.748Y-119.487
X173.94Y-50.77
X173.94Y-52.27
X174.0Y-148.0
X174.147Y-125.025
X174.147Y-126.312
X174.26Y-109.012
X174.26Y-109.762
X174.491Y-100.329
X174.498Y-118.737
X174.498Y-119.487
X174.94Y-50.77
X174.94Y-52.27
X175.04Y-98.757
X175.584Y-104.076
X175.916Y-106.295
X175.94Y-50.77
X175.94Y-52.27
X176.0Y-148.0
X176.91Y-109.012
X176.91Y-109.762
X176.985Y-113.237
X176.985Y-114.156
X176.985Y-115.156
X177.147Y-118.737
X177.147Y-119.487
X177.547Y-125.025
X177.547Y-126.312
X177.66Y-109.012
X177.66Y-109.762
X177.897Y-118.737
X177.897Y-119.487
X177.958Y-98.292
X178.0Y-148.0
X178.25Y-81.5
X178.47Y-79.42
X179.0Y-146.0
X179.498Y-105.662
X179.75Y-96.5
X180.0Y-140.0
X180.0Y-148.0
X180.248Y-105.662
X180.31Y-109.012
X180.31Y-109.762
X180.385Y-113.237
X180.385Y-114.156
X180.385Y-115.156
X180.547Y-118.737
X180.547Y-119.487
X180.75Y-99.25
X180.947Y-125.025
X180.947Y-126.312
X181.0Y-139.0
X181.0Y-142.0
X181.0Y-146.0
X181.06Y-109.012
X181.06Y-109.762
X181.297Y-118.737
X181.297Y-119.487
X182.0Y-140.0
X182.0Y-144.0
X182.0Y-148.0
X183.0Y-139.0
X183.0Y-142.0
X183.0Y-146.0
X183.71Y-109.012
X183.71Y-109.762
X183.785Y-113.237
X183.785Y-114.156
X183.785Y-115.156
X183.947Y-118.737
X183.947Y-119.487
X183.998Y-98.662
X184.0Y-140.0
X184.0Y-144.0
X184.0Y-148.0
X184.347Y-125.025
X184.347Y-126.312
X184.46Y-109.012
X184.46Y-109.762
X184.697Y-118.737
X184.697Y-119.487
X185.0Y-139.0
X185.0Y-146.0
X185.75Y-86.75
X186.0Y-148.0
X187.0Y-146.0
X187.11Y-109.012
X187.11Y-109.762
X187.185Y-113.237
X187.185Y-114.156
X187.185Y-115.156
X187.299Y-84.25
X187.347Y-118.737
X187.347Y-119.487
X187.748Y-125.025
X187.748Y-126.312
X187.86Y-109.012
X187.86Y-109.762
X188.0Y-148.0
X188.049Y-81.75
X188.097Y-118.737
X188.097Y-119.487
X189.498Y-102.563
X190.0Y-148.0
X190.498Y-95.662
X190.498Y-96.412
X190.51Y-109.012
X190.51Y-109.762
X190.56Y-99.412
X190.585Y-113.237
X190.585Y-114.156
X190.585Y-115.156
X190.748Y-118.737
X190.748Y-119.487
X191.0Y-64.0
X191.0Y-66.0
X191.0Y-68.0
X191.0Y-70.0
X191.0Y-74.0
X191.0Y-76.0
X191.0Y-78.0
X191.147Y-125.025
X191.147Y-126.312
X191.26Y-109.012
X191.26Y-109.762
X191.498Y-118.737
X191.498Y-119.487
X192.0Y-63.0
X192.0Y-65.0
X192.0Y-67.0
X192.0Y-69.0
X192.0Y-71.0
X192.0Y-148.0
X192.873Y-85.475
X192.873Y-86.225
X192.947Y-89.7
X192.947Y-90.619
X192.947Y-91.619
X193.0Y-64.0
X193.0Y-66.0
X193.0Y-68.0
X193.0Y-70.0
X193.0Y-74.0
X193.0Y-76.0
X193.0Y-78.0
X193.11Y-95.2
X193.11Y-95.95
X193.51Y-101.487
X193.51Y-102.775
X193.623Y-85.475
X193.623Y-86.225
X193.86Y-95.2
X193.86Y-95.95
X193.91Y-109.012
X193.91Y-109.762
X193.985Y-113.237
X193.985Y-114.156
X193.985Y-115.156
X194.0Y-63.0
X194.0Y-65.0
X194.0Y-67.0
X194.0Y-69.0
X194.0Y-71.0
X194.0Y-148.0
X194.147Y-118.737
X194.147Y-119.487
X194.547Y-125.025
X194.547Y-126.312
X194.66Y-109.012
X194.66Y-109.762
X194.897Y-118.737
X194.897Y-119.487
X195.0Y-64.0
X195.0Y-66.0
X195.0Y-68.0
X195.0Y-70.0
X195.0Y-74.0
X195.0Y-76.0
X195.0Y-78.0
X195.0Y-135.0
X195.0Y-139.0
X195.0Y-146.0
X196.0Y-63.0
X196.0Y-65.0
X196.0Y-67.0
X196.0Y-69.0
X196.0Y-71.0
X196.0Y-133.0
X196.0Y-140.0
X196.373Y-85.475
X196.373Y-86.225
X196.447Y-89.7
X196.447Y-90.619
X196.447Y-91.619
X196.61Y-95.2
X196.61Y-95.95
X197.0Y-64.0
X197.0Y-66.0
X197.0Y-68.0
X197.0Y-70.0
X197.0Y-74.0
X197.0Y-76.0
X197.0Y-78.0
X197.0Y-131.0
X197.0Y-139.0
X197.01Y-101.487
X197.01Y-102.775
X197.123Y-85.475
X197.123Y-86.225
X197.36Y-95.2
X197.36Y-95.95
X198.0Y-133.0
X198.0Y-140.0
X198.53Y-104.91
X199.0Y-139.0
T2
X158.79Y-56.97
X158.79Y-58.27
X158.79Y-59.57
X160.09Y-56.97
X160.09Y-58.27
X160.09Y-59.57
T3
X102.6Y-55.0
X103.303Y-53.303
X103.303Y-56.697
X105.0Y-52.6
X105.0Y-57.4
X106.697Y-53.303
X106.697Y-56.697
X107.4Y-55.0
X114.7Y-132.51
X115.403Y-130.813
X115.403Y-134.207
X117.1Y-130.11
X117.1Y-134.91
X118.797Y-130.813
X118.797Y-134.207
X119.5Y-132.51
X147.6Y-55.0
X147.6Y-132.51
X148.303Y-53.303
X148.303Y-56.697
X148.303Y-130.813
X148.303Y-134.207
X150.0Y-52.6
X150.0Y-57.4
X150.0Y-130.11
X150.0Y-134.91
X151.697Y-53.303
X151.697Y-56.697
X151.697Y-130.813
X151.697Y-134.207
X152.4Y-55.0
X152.4Y-132.51
X180.6Y-132.51
X181.303Y-130.813
X181.303Y-134.207
X183.0Y-130.11
X183.0Y-134.91
X184.697Y-130.813
X184.697Y-134.207
X185.4Y-132.51
X192.6Y-55.0
X193.303Y-53.303
X193.303Y-56.697
X195.0Y-52.6
X195.0Y-57.4
X196.697Y-53.303
X196.697Y-56.697
X197.4Y-55.0
T4
X157.71Y-52.77
X160.25Y-52.77
X162.79Y-52.77
T5
X102.33Y-137.39
X104.62Y-137.39
X105.638Y-142.21
X106.654Y-143.99
X107.67Y-142.21
X108.686Y-143.99
X109.702Y-142.21
X110.718Y-143.99
X111.734Y-142.21
X112.75Y-143.99
X113.76Y-137.39
X116.05Y-137.39
X118.08Y-137.39
X120.37Y-137.39
X121.388Y-142.21
X122.404Y-143.99
X123.42Y-142.21
X124.436Y-143.99
X125.452Y-142.21
X126.468Y-143.99
X127.484Y-142.21
X128.5Y-143.99
X129.51Y-137.39
X131.8Y-137.39
X135.28Y-137.39
X137.57Y-137.39
X138.588Y-142.21
X139.604Y-143.99
X140.62Y-142.21
X141.636Y-143.99
X142.652Y-142.21
X143.668Y-143.99
X144.684Y-142.21
X145.7Y-143.99
X146.71Y-137.39
X149.0Y-137.39
X151.03Y-137.39
X153.32Y-137.39
X154.338Y-142.21
X155.354Y-143.99
X156.37Y-142.21
X157.386Y-143.99
X158.402Y-142.21
X159.418Y-143.99
X160.434Y-142.21
X161.45Y-143.99
X162.46Y-137.39
X164.75Y-137.39
X168.23Y-137.39
X170.52Y-137.39
X171.538Y-142.21
X172.554Y-143.99
X173.57Y-142.21
X174.586Y-143.99
X175.602Y-142.21
X176.618Y-143.99
X177.634Y-142.21
X178.65Y-143.99
X179.66Y-137.39
X181.95Y-137.39
X183.98Y-137.39
X186.27Y-137.39
X187.288Y-142.21
X188.304Y-143.99
X189.32Y-142.21
X190.336Y-143.99
X191.352Y-142.21
X192.368Y-143.99
X193.384Y-142.21
X194.4Y-143.99
X195.41Y-137.39
X197.7Y-137.39
T6
X115.46Y-71.61
X115.46Y-74.15
X115.46Y-76.69
X115.46Y-79.23
X115.46Y-81.77
X115.46Y-84.31
X115.46Y-86.85
X115.46Y-89.39
X118.0Y-71.61
X118.0Y-74.15
X118.0Y-76.69
X118.0Y-79.23
X118.0Y-81.77
X118.0Y-84.31
X118.0Y-86.85
X118.0Y-89.39
X133.5Y-53.675
X144.5Y-53.675
X179.44Y-57.315
X179.44Y-59.855
X179.44Y-62.395
X181.713Y-71.61
X181.713Y-74.15
X181.713Y-76.69
X181.713Y-79.23
X181.713Y-81.77
X181.713Y-84.31
X181.713Y-86.85
X181.713Y-89.39
X184.252Y-71.61
X184.252Y-74.15
X184.252Y-76.69
X184.252Y-79.23
X184.252Y-81.77
X184.252Y-84.31
X184.252Y-86.85
X184.252Y-89.39
T7
X168.14Y-62.07
X173.14Y-62.07
T8
X136.5Y-63.675
X141.5Y-63.675
T9
X105.0Y-55.0
X117.1Y-132.51
X150.0Y-55.0
X150.0Y-132.51
X183.0Y-132.51
X195.0Y-55.0
T3
G00X101.1Y-143.7
M15
G01X101.1Y-142.5
M16
G05
G00X133.0Y-143.7
M15
G01X133.0Y-142.5
M16
G05
G00X134.05Y-143.7
M15
G01X134.05Y-142.5
M16
G05
G00X165.95Y-143.7
M15
G01X165.95Y-142.5
M16
G05
G00X167.0Y-143.7
M15
G01X167.0Y-142.5
M16
G05
G00X198.9Y-143.7
M15
G01X198.9Y-142.5
M16
G05
T0
M30
