G04 #@! TF.GenerationSoftware,KiCad,Pcbnew,6.0.11+dfsg-1*
G04 #@! TF.ProjectId,project,70726f6a-6563-4742-9e6b-696361645f70,rev?*
G04 #@! TF.SameCoordinates,Original*
G04 #@! TF.FileFunction,Paste,Bot*
G04 #@! TF.FilePolarity,Positive*
%FSLAX46Y46*%
G04 Gerber Fmt 4.6, Leading zero omitted, Abs format (unit mm)*
%MOMM*%
%LPD*%
G01*
G04 APERTURE LIST*
G04 #@! TA.AperFunction,Profile*
%ADD10C,0.100000*%
G04 #@! TD*
G04 APERTURE END LIST*
D10*
X100000000Y-147500000D02*
X100000000Y-55000000D01*
X100000000Y-147500000D02*
G75*
G03*
X102500000Y-150000000I2500000J0D01*
G01*
X105000000Y-50000000D02*
G75*
G03*
X100000000Y-55000000I0J-5000000D01*
G01*
X197500000Y-150000000D02*
G75*
G03*
X200000000Y-147500000I0J2500000D01*
G01*
X200000000Y-55000000D02*
X200000000Y-147500000D01*
X102500000Y-150000000D02*
X197500000Y-150000000D01*
X200000000Y-55000000D02*
G75*
G03*
X195000000Y-50000000I-5000000J0D01*
G01*
X105000000Y-50000000D02*
X195000000Y-50000000D01*
G36*
G01*
X127224999Y-149200000D02*
X125975001Y-149200000D01*
G75*
G02*
X125725000Y-148949999I0J250001D01*
G01*
X125725000Y-148025001D01*
G75*
G02*
X125975001Y-147775000I250001J0D01*
G01*
X127224999Y-147775000D01*
G75*
G02*
X127475000Y-148025001I0J-250001D01*
G01*
X127475000Y-148949999D01*
G75*
G02*
X127224999Y-149200000I-250001J0D01*
G01*
G37*
G36*
G01*
X127224999Y-146225000D02*
X125975001Y-146225000D01*
G75*
G02*
X125725000Y-145974999I0J250001D01*
G01*
X125725000Y-145050001D01*
G75*
G02*
X125975001Y-144800000I250001J0D01*
G01*
X127224999Y-144800000D01*
G75*
G02*
X127475000Y-145050001I0J-250001D01*
G01*
X127475000Y-145974999D01*
G75*
G02*
X127224999Y-146225000I-250001J0D01*
G01*
G37*
G36*
G01*
X144424999Y-149200000D02*
X143175001Y-149200000D01*
G75*
G02*
X142925000Y-148949999I0J250001D01*
G01*
X142925000Y-148025001D01*
G75*
G02*
X143175001Y-147775000I250001J0D01*
G01*
X144424999Y-147775000D01*
G75*
G02*
X144675000Y-148025001I0J-250001D01*
G01*
X144675000Y-148949999D01*
G75*
G02*
X144424999Y-149200000I-250001J0D01*
G01*
G37*
G36*
G01*
X144424999Y-146225000D02*
X143175001Y-146225000D01*
G75*
G02*
X142925000Y-145974999I0J250001D01*
G01*
X142925000Y-145050001D01*
G75*
G02*
X143175001Y-144800000I250001J0D01*
G01*
X144424999Y-144800000D01*
G75*
G02*
X144675000Y-145050001I0J-250001D01*
G01*
X144675000Y-145974999D01*
G75*
G02*
X144424999Y-146225000I-250001J0D01*
G01*
G37*
G36*
G01*
X157824999Y-149200000D02*
X156575001Y-149200000D01*
G75*
G02*
X156325000Y-148949999I0J250001D01*
G01*
X156325000Y-148025001D01*
G75*
G02*
X156575001Y-147775000I250001J0D01*
G01*
X157824999Y-147775000D01*
G75*
G02*
X158075000Y-148025001I0J-250001D01*
G01*
X158075000Y-148949999D01*
G75*
G02*
X157824999Y-149200000I-250001J0D01*
G01*
G37*
G36*
G01*
X157824999Y-146225000D02*
X156575001Y-146225000D01*
G75*
G02*
X156325000Y-145974999I0J250001D01*
G01*
X156325000Y-145050001D01*
G75*
G02*
X156575001Y-144800000I250001J0D01*
G01*
X157824999Y-144800000D01*
G75*
G02*
X158075000Y-145050001I0J-250001D01*
G01*
X158075000Y-145974999D01*
G75*
G02*
X157824999Y-146225000I-250001J0D01*
G01*
G37*
G36*
G01*
X175024999Y-149200000D02*
X173775001Y-149200000D01*
G75*
G02*
X173525000Y-148949999I0J250001D01*
G01*
X173525000Y-148025001D01*
G75*
G02*
X173775001Y-147775000I250001J0D01*
G01*
X175024999Y-147775000D01*
G75*
G02*
X175275000Y-148025001I0J-250001D01*
G01*
X175275000Y-148949999D01*
G75*
G02*
X175024999Y-149200000I-250001J0D01*
G01*
G37*
G36*
G01*
X175024999Y-146225000D02*
X173775001Y-146225000D01*
G75*
G02*
X173525000Y-145974999I0J250001D01*
G01*
X173525000Y-145050001D01*
G75*
G02*
X173775001Y-144800000I250001J0D01*
G01*
X175024999Y-144800000D01*
G75*
G02*
X175275000Y-145050001I0J-250001D01*
G01*
X175275000Y-145974999D01*
G75*
G02*
X175024999Y-146225000I-250001J0D01*
G01*
G37*
G36*
G01*
X190824999Y-149200000D02*
X189575001Y-149200000D01*
G75*
G02*
X189325000Y-148949999I0J250001D01*
G01*
X189325000Y-148025001D01*
G75*
G02*
X189575001Y-147775000I250001J0D01*
G01*
X190824999Y-147775000D01*
G75*
G02*
X191075000Y-148025001I0J-250001D01*
G01*
X191075000Y-148949999D01*
G75*
G02*
X190824999Y-149200000I-250001J0D01*
G01*
G37*
G36*
G01*
X190824999Y-146225000D02*
X189575001Y-146225000D01*
G75*
G02*
X189325000Y-145974999I0J250001D01*
G01*
X189325000Y-145050001D01*
G75*
G02*
X189575001Y-144800000I250001J0D01*
G01*
X190824999Y-144800000D01*
G75*
G02*
X191075000Y-145050001I0J-250001D01*
G01*
X191075000Y-145974999D01*
G75*
G02*
X190824999Y-146225000I-250001J0D01*
G01*
G37*
G36*
G01*
X111524999Y-149200000D02*
X110275001Y-149200000D01*
G75*
G02*
X110025000Y-148949999I0J250001D01*
G01*
X110025000Y-148025001D01*
G75*
G02*
X110275001Y-147775000I250001J0D01*
G01*
X111524999Y-147775000D01*
G75*
G02*
X111775000Y-148025001I0J-250001D01*
G01*
X111775000Y-148949999D01*
G75*
G02*
X111524999Y-149200000I-250001J0D01*
G01*
G37*
G36*
G01*
X111524999Y-146225000D02*
X110275001Y-146225000D01*
G75*
G02*
X110025000Y-145974999I0J250001D01*
G01*
X110025000Y-145050001D01*
G75*
G02*
X110275001Y-144800000I250001J0D01*
G01*
X111524999Y-144800000D01*
G75*
G02*
X111775000Y-145050001I0J-250001D01*
G01*
X111775000Y-145974999D01*
G75*
G02*
X111524999Y-146225000I-250001J0D01*
G01*
G37*
G36*
G01*
X124924999Y-149200000D02*
X123675001Y-149200000D01*
G75*
G02*
X123425000Y-148949999I0J250001D01*
G01*
X123425000Y-148025001D01*
G75*
G02*
X123675001Y-147775000I250001J0D01*
G01*
X124924999Y-147775000D01*
G75*
G02*
X125175000Y-148025001I0J-250001D01*
G01*
X125175000Y-148949999D01*
G75*
G02*
X124924999Y-149200000I-250001J0D01*
G01*
G37*
G36*
G01*
X124924999Y-146225000D02*
X123675001Y-146225000D01*
G75*
G02*
X123425000Y-145974999I0J250001D01*
G01*
X123425000Y-145050001D01*
G75*
G02*
X123675001Y-144800000I250001J0D01*
G01*
X124924999Y-144800000D01*
G75*
G02*
X125175000Y-145050001I0J-250001D01*
G01*
X125175000Y-145974999D01*
G75*
G02*
X124924999Y-146225000I-250001J0D01*
G01*
G37*
G36*
G01*
X177424999Y-149200000D02*
X176175001Y-149200000D01*
G75*
G02*
X175925000Y-148949999I0J250001D01*
G01*
X175925000Y-148025001D01*
G75*
G02*
X176175001Y-147775000I250001J0D01*
G01*
X177424999Y-147775000D01*
G75*
G02*
X177675000Y-148025001I0J-250001D01*
G01*
X177675000Y-148949999D01*
G75*
G02*
X177424999Y-149200000I-250001J0D01*
G01*
G37*
G36*
G01*
X177424999Y-146225000D02*
X176175001Y-146225000D01*
G75*
G02*
X175925000Y-145974999I0J250001D01*
G01*
X175925000Y-145050001D01*
G75*
G02*
X176175001Y-144800000I250001J0D01*
G01*
X177424999Y-144800000D01*
G75*
G02*
X177675000Y-145050001I0J-250001D01*
G01*
X177675000Y-145974999D01*
G75*
G02*
X177424999Y-146225000I-250001J0D01*
G01*
G37*
G36*
G01*
X160224999Y-149200000D02*
X158975001Y-149200000D01*
G75*
G02*
X158725000Y-148949999I0J250001D01*
G01*
X158725000Y-148025001D01*
G75*
G02*
X158975001Y-147775000I250001J0D01*
G01*
X160224999Y-147775000D01*
G75*
G02*
X160475000Y-148025001I0J-250001D01*
G01*
X160475000Y-148949999D01*
G75*
G02*
X160224999Y-149200000I-250001J0D01*
G01*
G37*
G36*
G01*
X160224999Y-146225000D02*
X158975001Y-146225000D01*
G75*
G02*
X158725000Y-145974999I0J250001D01*
G01*
X158725000Y-145050001D01*
G75*
G02*
X158975001Y-144800000I250001J0D01*
G01*
X160224999Y-144800000D01*
G75*
G02*
X160475000Y-145050001I0J-250001D01*
G01*
X160475000Y-145974999D01*
G75*
G02*
X160224999Y-146225000I-250001J0D01*
G01*
G37*
G36*
G01*
X193124999Y-149200000D02*
X191875001Y-149200000D01*
G75*
G02*
X191625000Y-148949999I0J250001D01*
G01*
X191625000Y-148025001D01*
G75*
G02*
X191875001Y-147775000I250001J0D01*
G01*
X193124999Y-147775000D01*
G75*
G02*
X193375000Y-148025001I0J-250001D01*
G01*
X193375000Y-148949999D01*
G75*
G02*
X193124999Y-149200000I-250001J0D01*
G01*
G37*
G36*
G01*
X193124999Y-146225000D02*
X191875001Y-146225000D01*
G75*
G02*
X191625000Y-145974999I0J250001D01*
G01*
X191625000Y-145050001D01*
G75*
G02*
X191875001Y-144800000I250001J0D01*
G01*
X193124999Y-144800000D01*
G75*
G02*
X193375000Y-145050001I0J-250001D01*
G01*
X193375000Y-145974999D01*
G75*
G02*
X193124999Y-146225000I-250001J0D01*
G01*
G37*
G36*
G01*
X109124999Y-149200000D02*
X107875001Y-149200000D01*
G75*
G02*
X107625000Y-148949999I0J250001D01*
G01*
X107625000Y-148025001D01*
G75*
G02*
X107875001Y-147775000I250001J0D01*
G01*
X109124999Y-147775000D01*
G75*
G02*
X109375000Y-148025001I0J-250001D01*
G01*
X109375000Y-148949999D01*
G75*
G02*
X109124999Y-149200000I-250001J0D01*
G01*
G37*
G36*
G01*
X109124999Y-146225000D02*
X107875001Y-146225000D01*
G75*
G02*
X107625000Y-145974999I0J250001D01*
G01*
X107625000Y-145050001D01*
G75*
G02*
X107875001Y-144800000I250001J0D01*
G01*
X109124999Y-144800000D01*
G75*
G02*
X109375000Y-145050001I0J-250001D01*
G01*
X109375000Y-145974999D01*
G75*
G02*
X109124999Y-146225000I-250001J0D01*
G01*
G37*
G36*
G01*
X142124999Y-149200000D02*
X140875001Y-149200000D01*
G75*
G02*
X140625000Y-148949999I0J250001D01*
G01*
X140625000Y-148025001D01*
G75*
G02*
X140875001Y-147775000I250001J0D01*
G01*
X142124999Y-147775000D01*
G75*
G02*
X142375000Y-148025001I0J-250001D01*
G01*
X142375000Y-148949999D01*
G75*
G02*
X142124999Y-149200000I-250001J0D01*
G01*
G37*
G36*
G01*
X142124999Y-146225000D02*
X140875001Y-146225000D01*
G75*
G02*
X140625000Y-145974999I0J250001D01*
G01*
X140625000Y-145050001D01*
G75*
G02*
X140875001Y-144800000I250001J0D01*
G01*
X142124999Y-144800000D01*
G75*
G02*
X142375000Y-145050001I0J-250001D01*
G01*
X142375000Y-145974999D01*
G75*
G02*
X142124999Y-146225000I-250001J0D01*
G01*
G37*
M02*
