%TF.GenerationSoftware,KiCad,Pcbnew,6.0.10+dfsg-1~bpo11+1*%
%TF.ProjectId,project,70726f6a-6563-4742-9e6b-696361645f70,rev?*%
%TF.SameCoordinates,Original*%
%TF.FileFunction,Drillmap*%
%TF.FilePolarity,Positive*%
%FSLAX45Y45*%
G04 Gerber Fmt 4.5, Leading zero omitted, Abs format (unit mm)*
%MOMM*%
%LPD*%
G01*
G04 APERTURE LIST*
%ADD10C,0.100000*%
%ADD11C,0.200000*%
%ADD12C,0.030000*%
%ADD13C,0.033000*%
%ADD14C,0.050000*%
%ADD15C,0.080000*%
%ADD16C,0.090000*%
%ADD17C,0.130000*%
%ADD18C,0.190000*%
%ADD19C,0.320000*%
G04 APERTURE END LIST*
D10*
X10000000Y-14750000D02*
X10000000Y-5500000D01*
X10000000Y-14750000D02*
G75*
G03*
X10250000Y-15000000I250000J0D01*
G01*
X10500000Y-5000000D02*
G75*
G03*
X10000000Y-5500000I0J-500000D01*
G01*
X19750000Y-15000000D02*
G75*
G03*
X20000000Y-14750000I0J250000D01*
G01*
X20000000Y-5500000D02*
X20000000Y-14750000D01*
X10250000Y-15000000D02*
X19750000Y-15000000D01*
X20000000Y-5500000D02*
G75*
G03*
X19500000Y-5000000I-500000J0D01*
G01*
X10500000Y-5000000D02*
X19500000Y-5000000D01*
D11*
D12*
X10085000Y-13985000D02*
X10115000Y-14015000D01*
X10115000Y-13985000D02*
X10085000Y-14015000D01*
X10172250Y-8532500D02*
X10202250Y-8562500D01*
X10202250Y-8532500D02*
X10172250Y-8562500D01*
X10172250Y-8607500D02*
X10202250Y-8637500D01*
X10202250Y-8607500D02*
X10172250Y-8637500D01*
X10179750Y-8955000D02*
X10209750Y-8985000D01*
X10209750Y-8955000D02*
X10179750Y-8985000D01*
X10179750Y-9046875D02*
X10209750Y-9076875D01*
X10209750Y-9046875D02*
X10179750Y-9076875D01*
X10179750Y-9146875D02*
X10209750Y-9176875D01*
X10209750Y-9146875D02*
X10179750Y-9176875D01*
X10185000Y-13285000D02*
X10215000Y-13315000D01*
X10215000Y-13285000D02*
X10185000Y-13315000D01*
X10185000Y-13885000D02*
X10215000Y-13915000D01*
X10215000Y-13885000D02*
X10185000Y-13915000D01*
X10190441Y-10362567D02*
X10220441Y-10392567D01*
X10220441Y-10362567D02*
X10190441Y-10392567D01*
X10196000Y-9505000D02*
X10226000Y-9535000D01*
X10226000Y-9505000D02*
X10196000Y-9535000D01*
X10196000Y-9580000D02*
X10226000Y-9610000D01*
X10226000Y-9580000D02*
X10196000Y-9610000D01*
X10236000Y-10133750D02*
X10266000Y-10163750D01*
X10266000Y-10133750D02*
X10236000Y-10163750D01*
X10236000Y-10262500D02*
X10266000Y-10292500D01*
X10266000Y-10262500D02*
X10236000Y-10292500D01*
X10247250Y-8532500D02*
X10277250Y-8562500D01*
X10277250Y-8532500D02*
X10247250Y-8562500D01*
X10247250Y-8607500D02*
X10277250Y-8637500D01*
X10277250Y-8607500D02*
X10247250Y-8637500D01*
X10271000Y-9505000D02*
X10301000Y-9535000D01*
X10301000Y-9505000D02*
X10271000Y-9535000D01*
X10271000Y-9580000D02*
X10301000Y-9610000D01*
X10301000Y-9580000D02*
X10271000Y-9610000D01*
X10285000Y-6385000D02*
X10315000Y-6415000D01*
X10315000Y-6385000D02*
X10285000Y-6415000D01*
X10285000Y-6585000D02*
X10315000Y-6615000D01*
X10315000Y-6585000D02*
X10285000Y-6615000D01*
X10285000Y-6785000D02*
X10315000Y-6815000D01*
X10315000Y-6785000D02*
X10285000Y-6815000D01*
X10285000Y-6985000D02*
X10315000Y-7015000D01*
X10315000Y-6985000D02*
X10285000Y-7015000D01*
X10285000Y-7385000D02*
X10315000Y-7415000D01*
X10315000Y-7385000D02*
X10285000Y-7415000D01*
X10285000Y-7585000D02*
X10315000Y-7615000D01*
X10315000Y-7585000D02*
X10285000Y-7615000D01*
X10285000Y-7785000D02*
X10315000Y-7815000D01*
X10315000Y-7785000D02*
X10285000Y-7815000D01*
X10285000Y-13485000D02*
X10315000Y-13515000D01*
X10315000Y-13485000D02*
X10285000Y-13515000D01*
X10285000Y-13985000D02*
X10315000Y-14015000D01*
X10315000Y-13985000D02*
X10285000Y-14015000D01*
X10385000Y-6285000D02*
X10415000Y-6315000D01*
X10415000Y-6285000D02*
X10385000Y-6315000D01*
X10385000Y-6485000D02*
X10415000Y-6515000D01*
X10415000Y-6485000D02*
X10385000Y-6515000D01*
X10385000Y-6685000D02*
X10415000Y-6715000D01*
X10415000Y-6685000D02*
X10385000Y-6715000D01*
X10385000Y-6885000D02*
X10415000Y-6915000D01*
X10415000Y-6885000D02*
X10385000Y-6915000D01*
X10385000Y-7085000D02*
X10415000Y-7115000D01*
X10415000Y-7085000D02*
X10385000Y-7115000D01*
X10385000Y-13285000D02*
X10415000Y-13315000D01*
X10415000Y-13285000D02*
X10385000Y-13315000D01*
X10385000Y-13885000D02*
X10415000Y-13915000D01*
X10415000Y-13885000D02*
X10385000Y-13915000D01*
X10406000Y-10886250D02*
X10436000Y-10916250D01*
X10436000Y-10886250D02*
X10406000Y-10916250D01*
X10406000Y-10961250D02*
X10436000Y-10991250D01*
X10436000Y-10961250D02*
X10406000Y-10991250D01*
X10413500Y-11308750D02*
X10443500Y-11338750D01*
X10443500Y-11308750D02*
X10413500Y-11338750D01*
X10413500Y-11400625D02*
X10443500Y-11430625D01*
X10443500Y-11400625D02*
X10413500Y-11430625D01*
X10413500Y-11500625D02*
X10443500Y-11530625D01*
X10443500Y-11500625D02*
X10413500Y-11530625D01*
X10429750Y-11858750D02*
X10459750Y-11888750D01*
X10459750Y-11858750D02*
X10429750Y-11888750D01*
X10429750Y-11933750D02*
X10459750Y-11963750D01*
X10459750Y-11933750D02*
X10429750Y-11963750D01*
X10469750Y-12487500D02*
X10499750Y-12517500D01*
X10499750Y-12487500D02*
X10469750Y-12517500D01*
X10469750Y-12616250D02*
X10499750Y-12646250D01*
X10499750Y-12616250D02*
X10469750Y-12646250D01*
X10481000Y-10886250D02*
X10511000Y-10916250D01*
X10511000Y-10886250D02*
X10481000Y-10916250D01*
X10481000Y-10961250D02*
X10511000Y-10991250D01*
X10511000Y-10961250D02*
X10481000Y-10991250D01*
X10485000Y-6385000D02*
X10515000Y-6415000D01*
X10515000Y-6385000D02*
X10485000Y-6415000D01*
X10485000Y-6585000D02*
X10515000Y-6615000D01*
X10515000Y-6585000D02*
X10485000Y-6615000D01*
X10485000Y-6785000D02*
X10515000Y-6815000D01*
X10515000Y-6785000D02*
X10485000Y-6815000D01*
X10485000Y-6985000D02*
X10515000Y-7015000D01*
X10515000Y-6985000D02*
X10485000Y-7015000D01*
X10485000Y-7385000D02*
X10515000Y-7415000D01*
X10515000Y-7385000D02*
X10485000Y-7415000D01*
X10485000Y-7585000D02*
X10515000Y-7615000D01*
X10515000Y-7585000D02*
X10485000Y-7615000D01*
X10485000Y-7785000D02*
X10515000Y-7815000D01*
X10515000Y-7785000D02*
X10485000Y-7815000D01*
X10485000Y-13485000D02*
X10515000Y-13515000D01*
X10515000Y-13485000D02*
X10485000Y-13515000D01*
X10485000Y-14585000D02*
X10515000Y-14615000D01*
X10515000Y-14585000D02*
X10485000Y-14615000D01*
X10504750Y-11858750D02*
X10534750Y-11888750D01*
X10534750Y-11858750D02*
X10504750Y-11888750D01*
X10504750Y-11933750D02*
X10534750Y-11963750D01*
X10534750Y-11933750D02*
X10504750Y-11963750D01*
X10522250Y-8532500D02*
X10552250Y-8562500D01*
X10552250Y-8532500D02*
X10522250Y-8562500D01*
X10522250Y-8607500D02*
X10552250Y-8637500D01*
X10552250Y-8607500D02*
X10522250Y-8637500D01*
X10529750Y-8955000D02*
X10559750Y-8985000D01*
X10559750Y-8955000D02*
X10529750Y-8985000D01*
X10529750Y-9046875D02*
X10559750Y-9076875D01*
X10559750Y-9046875D02*
X10529750Y-9076875D01*
X10529750Y-9146875D02*
X10559750Y-9176875D01*
X10559750Y-9146875D02*
X10529750Y-9176875D01*
X10546000Y-9505000D02*
X10576000Y-9535000D01*
X10576000Y-9505000D02*
X10546000Y-9535000D01*
X10546000Y-9580000D02*
X10576000Y-9610000D01*
X10576000Y-9580000D02*
X10546000Y-9610000D01*
X10585000Y-6285000D02*
X10615000Y-6315000D01*
X10615000Y-6285000D02*
X10585000Y-6315000D01*
X10585000Y-6485000D02*
X10615000Y-6515000D01*
X10615000Y-6485000D02*
X10585000Y-6515000D01*
X10585000Y-6685000D02*
X10615000Y-6715000D01*
X10615000Y-6685000D02*
X10585000Y-6715000D01*
X10585000Y-6885000D02*
X10615000Y-6915000D01*
X10615000Y-6885000D02*
X10585000Y-6915000D01*
X10585000Y-7085000D02*
X10615000Y-7115000D01*
X10615000Y-7085000D02*
X10585000Y-7115000D01*
X10585000Y-14785000D02*
X10615000Y-14815000D01*
X10615000Y-14785000D02*
X10585000Y-14815000D01*
X10586000Y-10133750D02*
X10616000Y-10163750D01*
X10616000Y-10133750D02*
X10586000Y-10163750D01*
X10586000Y-10262500D02*
X10616000Y-10292500D01*
X10616000Y-10262500D02*
X10586000Y-10292500D01*
X10597250Y-8532500D02*
X10627250Y-8562500D01*
X10627250Y-8532500D02*
X10597250Y-8562500D01*
X10597250Y-8607500D02*
X10627250Y-8637500D01*
X10627250Y-8607500D02*
X10597250Y-8637500D01*
X10621000Y-9505000D02*
X10651000Y-9535000D01*
X10651000Y-9505000D02*
X10621000Y-9535000D01*
X10621000Y-9580000D02*
X10651000Y-9610000D01*
X10651000Y-9580000D02*
X10621000Y-9610000D01*
X10685000Y-6385000D02*
X10715000Y-6415000D01*
X10715000Y-6385000D02*
X10685000Y-6415000D01*
X10685000Y-6585000D02*
X10715000Y-6615000D01*
X10715000Y-6585000D02*
X10685000Y-6615000D01*
X10685000Y-6785000D02*
X10715000Y-6815000D01*
X10715000Y-6785000D02*
X10685000Y-6815000D01*
X10685000Y-6985000D02*
X10715000Y-7015000D01*
X10715000Y-6985000D02*
X10685000Y-7015000D01*
X10685000Y-7385000D02*
X10715000Y-7415000D01*
X10715000Y-7385000D02*
X10685000Y-7415000D01*
X10685000Y-7585000D02*
X10715000Y-7615000D01*
X10715000Y-7585000D02*
X10685000Y-7615000D01*
X10685000Y-7785000D02*
X10715000Y-7815000D01*
X10715000Y-7785000D02*
X10685000Y-7815000D01*
X10685000Y-14585000D02*
X10715000Y-14615000D01*
X10715000Y-14585000D02*
X10685000Y-14615000D01*
X10746000Y-10886250D02*
X10776000Y-10916250D01*
X10776000Y-10886250D02*
X10746000Y-10916250D01*
X10746000Y-10961250D02*
X10776000Y-10991250D01*
X10776000Y-10961250D02*
X10746000Y-10991250D01*
X10753500Y-11308750D02*
X10783500Y-11338750D01*
X10783500Y-11308750D02*
X10753500Y-11338750D01*
X10753500Y-11400625D02*
X10783500Y-11430625D01*
X10783500Y-11400625D02*
X10753500Y-11430625D01*
X10753500Y-11500625D02*
X10783500Y-11530625D01*
X10783500Y-11500625D02*
X10753500Y-11530625D01*
X10769750Y-11858750D02*
X10799750Y-11888750D01*
X10799750Y-11858750D02*
X10769750Y-11888750D01*
X10769750Y-11933750D02*
X10799750Y-11963750D01*
X10799750Y-11933750D02*
X10769750Y-11963750D01*
X10785000Y-6285000D02*
X10815000Y-6315000D01*
X10815000Y-6285000D02*
X10785000Y-6315000D01*
X10785000Y-6485000D02*
X10815000Y-6515000D01*
X10815000Y-6485000D02*
X10785000Y-6515000D01*
X10785000Y-6685000D02*
X10815000Y-6715000D01*
X10815000Y-6685000D02*
X10785000Y-6715000D01*
X10785000Y-6885000D02*
X10815000Y-6915000D01*
X10815000Y-6885000D02*
X10785000Y-6915000D01*
X10785000Y-7085000D02*
X10815000Y-7115000D01*
X10815000Y-7085000D02*
X10785000Y-7115000D01*
X10785000Y-14785000D02*
X10815000Y-14815000D01*
X10815000Y-14785000D02*
X10785000Y-14815000D01*
X10809750Y-12487500D02*
X10839750Y-12517500D01*
X10839750Y-12487500D02*
X10809750Y-12517500D01*
X10809750Y-12616250D02*
X10839750Y-12646250D01*
X10839750Y-12616250D02*
X10809750Y-12646250D01*
X10821000Y-10886250D02*
X10851000Y-10916250D01*
X10851000Y-10886250D02*
X10821000Y-10916250D01*
X10821000Y-10961250D02*
X10851000Y-10991250D01*
X10851000Y-10961250D02*
X10821000Y-10991250D01*
X10844141Y-10017886D02*
X10874141Y-10047886D01*
X10874141Y-10017886D02*
X10844141Y-10047886D01*
X10844750Y-11858750D02*
X10874750Y-11888750D01*
X10874750Y-11858750D02*
X10844750Y-11888750D01*
X10844750Y-11933750D02*
X10874750Y-11963750D01*
X10874750Y-11933750D02*
X10844750Y-11963750D01*
X10885000Y-6385000D02*
X10915000Y-6415000D01*
X10915000Y-6385000D02*
X10885000Y-6415000D01*
X10885000Y-6585000D02*
X10915000Y-6615000D01*
X10915000Y-6585000D02*
X10885000Y-6615000D01*
X10885000Y-6785000D02*
X10915000Y-6815000D01*
X10915000Y-6785000D02*
X10885000Y-6815000D01*
X10885000Y-6985000D02*
X10915000Y-7015000D01*
X10915000Y-6985000D02*
X10885000Y-7015000D01*
X10885000Y-7385000D02*
X10915000Y-7415000D01*
X10915000Y-7385000D02*
X10885000Y-7415000D01*
X10885000Y-7585000D02*
X10915000Y-7615000D01*
X10915000Y-7585000D02*
X10885000Y-7615000D01*
X10885000Y-7785000D02*
X10915000Y-7815000D01*
X10915000Y-7785000D02*
X10885000Y-7815000D01*
X10885000Y-14585000D02*
X10915000Y-14615000D01*
X10915000Y-14585000D02*
X10885000Y-14615000D01*
X10898973Y-9860727D02*
X10928973Y-9890727D01*
X10928973Y-9860727D02*
X10898973Y-9890727D01*
X10953450Y-10392607D02*
X10983450Y-10422607D01*
X10983450Y-10392607D02*
X10953450Y-10422607D01*
X10985000Y-14785000D02*
X11015000Y-14815000D01*
X11015000Y-14785000D02*
X10985000Y-14815000D01*
X10986600Y-10614501D02*
X11016600Y-10644501D01*
X11016600Y-10614501D02*
X10986600Y-10644501D01*
X11085000Y-14585000D02*
X11115000Y-14615000D01*
X11115000Y-14585000D02*
X11085000Y-14615000D01*
X11086000Y-10886250D02*
X11116000Y-10916250D01*
X11116000Y-10886250D02*
X11086000Y-10916250D01*
X11086000Y-10961250D02*
X11116000Y-10991250D01*
X11116000Y-10961250D02*
X11086000Y-10991250D01*
X11093500Y-11308750D02*
X11123500Y-11338750D01*
X11123500Y-11308750D02*
X11093500Y-11338750D01*
X11093500Y-11400625D02*
X11123500Y-11430625D01*
X11123500Y-11400625D02*
X11093500Y-11430625D01*
X11093500Y-11500625D02*
X11123500Y-11530625D01*
X11123500Y-11500625D02*
X11093500Y-11530625D01*
X11109750Y-11858750D02*
X11139750Y-11888750D01*
X11139750Y-11858750D02*
X11109750Y-11888750D01*
X11109750Y-11933750D02*
X11139750Y-11963750D01*
X11139750Y-11933750D02*
X11109750Y-11963750D01*
X11149750Y-12487500D02*
X11179750Y-12517500D01*
X11179750Y-12487500D02*
X11149750Y-12517500D01*
X11149750Y-12616250D02*
X11179750Y-12646250D01*
X11179750Y-12616250D02*
X11149750Y-12646250D01*
X11161000Y-10886250D02*
X11191000Y-10916250D01*
X11191000Y-10886250D02*
X11161000Y-10916250D01*
X11161000Y-10961250D02*
X11191000Y-10991250D01*
X11191000Y-10961250D02*
X11161000Y-10991250D01*
X11184750Y-11858750D02*
X11214750Y-11888750D01*
X11214750Y-11858750D02*
X11184750Y-11888750D01*
X11184750Y-11933750D02*
X11214750Y-11963750D01*
X11214750Y-11933750D02*
X11184750Y-11963750D01*
X11185000Y-14785000D02*
X11215000Y-14815000D01*
X11215000Y-14785000D02*
X11185000Y-14815000D01*
X11285000Y-14585000D02*
X11315000Y-14615000D01*
X11315000Y-14585000D02*
X11285000Y-14615000D01*
X11344750Y-10551250D02*
X11374750Y-10581250D01*
X11374750Y-10551250D02*
X11344750Y-10581250D01*
X11385000Y-13985000D02*
X11415000Y-14015000D01*
X11415000Y-13985000D02*
X11385000Y-14015000D01*
X11385000Y-14785000D02*
X11415000Y-14815000D01*
X11415000Y-14785000D02*
X11385000Y-14815000D01*
X11419750Y-10551250D02*
X11449750Y-10581250D01*
X11449750Y-10551250D02*
X11419750Y-10581250D01*
X11426000Y-10886250D02*
X11456000Y-10916250D01*
X11456000Y-10886250D02*
X11426000Y-10916250D01*
X11426000Y-10961250D02*
X11456000Y-10991250D01*
X11456000Y-10961250D02*
X11426000Y-10991250D01*
X11433500Y-11308750D02*
X11463500Y-11338750D01*
X11463500Y-11308750D02*
X11433500Y-11338750D01*
X11433500Y-11400625D02*
X11463500Y-11430625D01*
X11463500Y-11400625D02*
X11433500Y-11430625D01*
X11433500Y-11500625D02*
X11463500Y-11530625D01*
X11463500Y-11500625D02*
X11433500Y-11530625D01*
X11449750Y-11858750D02*
X11479750Y-11888750D01*
X11479750Y-11858750D02*
X11449750Y-11888750D01*
X11449750Y-11933750D02*
X11479750Y-11963750D01*
X11479750Y-11933750D02*
X11449750Y-11963750D01*
X11460000Y-9910000D02*
X11490000Y-9940000D01*
X11490000Y-9910000D02*
X11460000Y-9940000D01*
X11485000Y-13885000D02*
X11515000Y-13915000D01*
X11515000Y-13885000D02*
X11485000Y-13915000D01*
X11485000Y-14185000D02*
X11515000Y-14215000D01*
X11515000Y-14185000D02*
X11485000Y-14215000D01*
X11485000Y-14585000D02*
X11515000Y-14615000D01*
X11515000Y-14585000D02*
X11485000Y-14615000D01*
X11489750Y-12487500D02*
X11519750Y-12517500D01*
X11519750Y-12487500D02*
X11489750Y-12517500D01*
X11489750Y-12616250D02*
X11519750Y-12646250D01*
X11519750Y-12616250D02*
X11489750Y-12646250D01*
X11501000Y-10886250D02*
X11531000Y-10916250D01*
X11531000Y-10886250D02*
X11501000Y-10916250D01*
X11501000Y-10961250D02*
X11531000Y-10991250D01*
X11531000Y-10961250D02*
X11501000Y-10991250D01*
X11524750Y-11858750D02*
X11554750Y-11888750D01*
X11554750Y-11858750D02*
X11524750Y-11888750D01*
X11524750Y-11933750D02*
X11554750Y-11963750D01*
X11554750Y-11933750D02*
X11524750Y-11963750D01*
X11585000Y-13985000D02*
X11615000Y-14015000D01*
X11615000Y-13985000D02*
X11585000Y-14015000D01*
X11585000Y-14385000D02*
X11615000Y-14415000D01*
X11615000Y-14385000D02*
X11585000Y-14415000D01*
X11585000Y-14785000D02*
X11615000Y-14815000D01*
X11615000Y-14785000D02*
X11585000Y-14815000D01*
X11685000Y-13885000D02*
X11715000Y-13915000D01*
X11715000Y-13885000D02*
X11685000Y-13915000D01*
X11685000Y-14185000D02*
X11715000Y-14215000D01*
X11715000Y-14185000D02*
X11685000Y-14215000D01*
X11685000Y-14585000D02*
X11715000Y-14615000D01*
X11715000Y-14585000D02*
X11685000Y-14615000D01*
X11766000Y-10886250D02*
X11796000Y-10916250D01*
X11796000Y-10886250D02*
X11766000Y-10916250D01*
X11766000Y-10961250D02*
X11796000Y-10991250D01*
X11796000Y-10961250D02*
X11766000Y-10991250D01*
X11773500Y-11308750D02*
X11803500Y-11338750D01*
X11803500Y-11308750D02*
X11773500Y-11338750D01*
X11773500Y-11400625D02*
X11803500Y-11430625D01*
X11803500Y-11400625D02*
X11773500Y-11430625D01*
X11773500Y-11500625D02*
X11803500Y-11530625D01*
X11803500Y-11500625D02*
X11773500Y-11530625D01*
X11785000Y-13985000D02*
X11815000Y-14015000D01*
X11815000Y-13985000D02*
X11785000Y-14015000D01*
X11785000Y-14385000D02*
X11815000Y-14415000D01*
X11815000Y-14385000D02*
X11785000Y-14415000D01*
X11785000Y-14785000D02*
X11815000Y-14815000D01*
X11815000Y-14785000D02*
X11785000Y-14815000D01*
X11789750Y-11858750D02*
X11819750Y-11888750D01*
X11819750Y-11858750D02*
X11789750Y-11888750D01*
X11789750Y-11933750D02*
X11819750Y-11963750D01*
X11819750Y-11933750D02*
X11789750Y-11963750D01*
X11794750Y-9851250D02*
X11824750Y-9881250D01*
X11824750Y-9851250D02*
X11794750Y-9881250D01*
X11829750Y-12487500D02*
X11859750Y-12517500D01*
X11859750Y-12487500D02*
X11829750Y-12517500D01*
X11829750Y-12616250D02*
X11859750Y-12646250D01*
X11859750Y-12616250D02*
X11829750Y-12646250D01*
X11841000Y-10886250D02*
X11871000Y-10916250D01*
X11871000Y-10886250D02*
X11841000Y-10916250D01*
X11841000Y-10961250D02*
X11871000Y-10991250D01*
X11871000Y-10961250D02*
X11841000Y-10991250D01*
X11864750Y-11858750D02*
X11894750Y-11888750D01*
X11894750Y-11858750D02*
X11864750Y-11888750D01*
X11864750Y-11933750D02*
X11894750Y-11963750D01*
X11894750Y-11933750D02*
X11864750Y-11963750D01*
X11885000Y-13885000D02*
X11915000Y-13915000D01*
X11915000Y-13885000D02*
X11885000Y-13915000D01*
X11885000Y-14585000D02*
X11915000Y-14615000D01*
X11915000Y-14585000D02*
X11885000Y-14615000D01*
X11985000Y-14785000D02*
X12015000Y-14815000D01*
X12015000Y-14785000D02*
X11985000Y-14815000D01*
X12085000Y-14585000D02*
X12115000Y-14615000D01*
X12115000Y-14585000D02*
X12085000Y-14615000D01*
X12106000Y-10886250D02*
X12136000Y-10916250D01*
X12136000Y-10886250D02*
X12106000Y-10916250D01*
X12106000Y-10961250D02*
X12136000Y-10991250D01*
X12136000Y-10961250D02*
X12106000Y-10991250D01*
X12113500Y-11308750D02*
X12143500Y-11338750D01*
X12143500Y-11308750D02*
X12113500Y-11338750D01*
X12113500Y-11400625D02*
X12143500Y-11430625D01*
X12143500Y-11400625D02*
X12113500Y-11430625D01*
X12113500Y-11500625D02*
X12143500Y-11530625D01*
X12143500Y-11500625D02*
X12113500Y-11530625D01*
X12129750Y-11858750D02*
X12159750Y-11888750D01*
X12159750Y-11858750D02*
X12129750Y-11888750D01*
X12129750Y-11933750D02*
X12159750Y-11963750D01*
X12159750Y-11933750D02*
X12129750Y-11963750D01*
X12169750Y-12487500D02*
X12199750Y-12517500D01*
X12199750Y-12487500D02*
X12169750Y-12517500D01*
X12169750Y-12616250D02*
X12199750Y-12646250D01*
X12199750Y-12616250D02*
X12169750Y-12646250D01*
X12181000Y-10886250D02*
X12211000Y-10916250D01*
X12211000Y-10886250D02*
X12181000Y-10916250D01*
X12181000Y-10961250D02*
X12211000Y-10991250D01*
X12211000Y-10961250D02*
X12181000Y-10991250D01*
X12185000Y-14785000D02*
X12215000Y-14815000D01*
X12215000Y-14785000D02*
X12185000Y-14815000D01*
X12204750Y-11858750D02*
X12234750Y-11888750D01*
X12234750Y-11858750D02*
X12204750Y-11888750D01*
X12204750Y-11933750D02*
X12234750Y-11963750D01*
X12234750Y-11933750D02*
X12204750Y-11963750D01*
X12285000Y-8485000D02*
X12315000Y-8515000D01*
X12315000Y-8485000D02*
X12285000Y-8515000D01*
X12285000Y-14585000D02*
X12315000Y-14615000D01*
X12315000Y-14585000D02*
X12285000Y-14615000D01*
X12344750Y-10241300D02*
X12374750Y-10271300D01*
X12374750Y-10241300D02*
X12344750Y-10271300D01*
X12385000Y-14785000D02*
X12415000Y-14815000D01*
X12415000Y-14785000D02*
X12385000Y-14815000D01*
X12444750Y-9551250D02*
X12474750Y-9581250D01*
X12474750Y-9551250D02*
X12444750Y-9581250D01*
X12444750Y-9626250D02*
X12474750Y-9656250D01*
X12474750Y-9626250D02*
X12444750Y-9656250D01*
X12446000Y-10886250D02*
X12476000Y-10916250D01*
X12476000Y-10886250D02*
X12446000Y-10916250D01*
X12446000Y-10961250D02*
X12476000Y-10991250D01*
X12476000Y-10961250D02*
X12446000Y-10991250D01*
X12451050Y-9926250D02*
X12481050Y-9956250D01*
X12481050Y-9926250D02*
X12451050Y-9956250D01*
X12453500Y-11308750D02*
X12483500Y-11338750D01*
X12483500Y-11308750D02*
X12453500Y-11338750D01*
X12453500Y-11400625D02*
X12483500Y-11430625D01*
X12483500Y-11400625D02*
X12453500Y-11430625D01*
X12453500Y-11500625D02*
X12483500Y-11530625D01*
X12483500Y-11500625D02*
X12453500Y-11530625D01*
X12469750Y-11858750D02*
X12499750Y-11888750D01*
X12499750Y-11858750D02*
X12469750Y-11888750D01*
X12469750Y-11933750D02*
X12499750Y-11963750D01*
X12499750Y-11933750D02*
X12469750Y-11963750D01*
X12485000Y-6085000D02*
X12515000Y-6115000D01*
X12515000Y-6085000D02*
X12485000Y-6115000D01*
X12485000Y-6285000D02*
X12515000Y-6315000D01*
X12515000Y-6285000D02*
X12485000Y-6315000D01*
X12485000Y-6485000D02*
X12515000Y-6515000D01*
X12515000Y-6485000D02*
X12485000Y-6515000D01*
X12485000Y-14585000D02*
X12515000Y-14615000D01*
X12515000Y-14585000D02*
X12485000Y-14615000D01*
X12509750Y-12487500D02*
X12539750Y-12517500D01*
X12539750Y-12487500D02*
X12509750Y-12517500D01*
X12509750Y-12616250D02*
X12539750Y-12646250D01*
X12539750Y-12616250D02*
X12509750Y-12646250D01*
X12521000Y-10886250D02*
X12551000Y-10916250D01*
X12551000Y-10886250D02*
X12521000Y-10916250D01*
X12521000Y-10961250D02*
X12551000Y-10991250D01*
X12551000Y-10961250D02*
X12521000Y-10991250D01*
X12544750Y-11858750D02*
X12574750Y-11888750D01*
X12574750Y-11858750D02*
X12544750Y-11888750D01*
X12544750Y-11933750D02*
X12574750Y-11963750D01*
X12574750Y-11933750D02*
X12544750Y-11963750D01*
X12585000Y-5985000D02*
X12615000Y-6015000D01*
X12615000Y-5985000D02*
X12585000Y-6015000D01*
X12585000Y-6185000D02*
X12615000Y-6215000D01*
X12615000Y-6185000D02*
X12585000Y-6215000D01*
X12585000Y-6385000D02*
X12615000Y-6415000D01*
X12615000Y-6385000D02*
X12585000Y-6415000D01*
X12585000Y-14785000D02*
X12615000Y-14815000D01*
X12615000Y-14785000D02*
X12585000Y-14815000D01*
X12682250Y-8532500D02*
X12712250Y-8562500D01*
X12712250Y-8532500D02*
X12682250Y-8562500D01*
X12682250Y-8607500D02*
X12712250Y-8637500D01*
X12712250Y-8607500D02*
X12682250Y-8637500D01*
X12685000Y-6085000D02*
X12715000Y-6115000D01*
X12715000Y-6085000D02*
X12685000Y-6115000D01*
X12685000Y-6285000D02*
X12715000Y-6315000D01*
X12715000Y-6285000D02*
X12685000Y-6315000D01*
X12685000Y-6485000D02*
X12715000Y-6515000D01*
X12715000Y-6485000D02*
X12685000Y-6515000D01*
X12685000Y-14585000D02*
X12715000Y-14615000D01*
X12715000Y-14585000D02*
X12685000Y-14615000D01*
X12689750Y-8955000D02*
X12719750Y-8985000D01*
X12719750Y-8955000D02*
X12689750Y-8985000D01*
X12689750Y-9046875D02*
X12719750Y-9076875D01*
X12719750Y-9046875D02*
X12689750Y-9076875D01*
X12689750Y-9146875D02*
X12719750Y-9176875D01*
X12719750Y-9146875D02*
X12689750Y-9176875D01*
X12706000Y-9505000D02*
X12736000Y-9535000D01*
X12736000Y-9505000D02*
X12706000Y-9535000D01*
X12706000Y-9580000D02*
X12736000Y-9610000D01*
X12736000Y-9580000D02*
X12706000Y-9610000D01*
X12746000Y-10133750D02*
X12776000Y-10163750D01*
X12776000Y-10133750D02*
X12746000Y-10163750D01*
X12746000Y-10262500D02*
X12776000Y-10292500D01*
X12776000Y-10262500D02*
X12746000Y-10292500D01*
X12757250Y-8532500D02*
X12787250Y-8562500D01*
X12787250Y-8532500D02*
X12757250Y-8562500D01*
X12757250Y-8607500D02*
X12787250Y-8637500D01*
X12787250Y-8607500D02*
X12757250Y-8637500D01*
X12781000Y-9505000D02*
X12811000Y-9535000D01*
X12811000Y-9505000D02*
X12781000Y-9535000D01*
X12781000Y-9580000D02*
X12811000Y-9610000D01*
X12811000Y-9580000D02*
X12781000Y-9610000D01*
X12785000Y-5985000D02*
X12815000Y-6015000D01*
X12815000Y-5985000D02*
X12785000Y-6015000D01*
X12785000Y-6185000D02*
X12815000Y-6215000D01*
X12815000Y-6185000D02*
X12785000Y-6215000D01*
X12785000Y-6385000D02*
X12815000Y-6415000D01*
X12815000Y-6385000D02*
X12785000Y-6415000D01*
X12785000Y-6785000D02*
X12815000Y-6815000D01*
X12815000Y-6785000D02*
X12785000Y-6815000D01*
X12785000Y-6885000D02*
X12815000Y-6915000D01*
X12815000Y-6885000D02*
X12785000Y-6915000D01*
X12785000Y-6985000D02*
X12815000Y-7015000D01*
X12815000Y-6985000D02*
X12785000Y-7015000D01*
X12785000Y-7185000D02*
X12815000Y-7215000D01*
X12815000Y-7185000D02*
X12785000Y-7215000D01*
X12785000Y-7385000D02*
X12815000Y-7415000D01*
X12815000Y-7385000D02*
X12785000Y-7415000D01*
X12785000Y-14785000D02*
X12815000Y-14815000D01*
X12815000Y-14785000D02*
X12785000Y-14815000D01*
X12786000Y-10886250D02*
X12816000Y-10916250D01*
X12816000Y-10886250D02*
X12786000Y-10916250D01*
X12786000Y-10961250D02*
X12816000Y-10991250D01*
X12816000Y-10961250D02*
X12786000Y-10991250D01*
X12793500Y-11308750D02*
X12823500Y-11338750D01*
X12823500Y-11308750D02*
X12793500Y-11338750D01*
X12793500Y-11400625D02*
X12823500Y-11430625D01*
X12823500Y-11400625D02*
X12793500Y-11430625D01*
X12793500Y-11500625D02*
X12823500Y-11530625D01*
X12823500Y-11500625D02*
X12793500Y-11530625D01*
X12809750Y-11858750D02*
X12839750Y-11888750D01*
X12839750Y-11858750D02*
X12809750Y-11888750D01*
X12809750Y-11933750D02*
X12839750Y-11963750D01*
X12839750Y-11933750D02*
X12809750Y-11963750D01*
X12849750Y-12487500D02*
X12879750Y-12517500D01*
X12879750Y-12487500D02*
X12849750Y-12517500D01*
X12849750Y-12616250D02*
X12879750Y-12646250D01*
X12879750Y-12616250D02*
X12849750Y-12646250D01*
X12861000Y-10886250D02*
X12891000Y-10916250D01*
X12891000Y-10886250D02*
X12861000Y-10916250D01*
X12861000Y-10961250D02*
X12891000Y-10991250D01*
X12891000Y-10961250D02*
X12861000Y-10991250D01*
X12884750Y-11858750D02*
X12914750Y-11888750D01*
X12914750Y-11858750D02*
X12884750Y-11888750D01*
X12884750Y-11933750D02*
X12914750Y-11963750D01*
X12914750Y-11933750D02*
X12884750Y-11963750D01*
X12885000Y-6085000D02*
X12915000Y-6115000D01*
X12915000Y-6085000D02*
X12885000Y-6115000D01*
X12885000Y-6285000D02*
X12915000Y-6315000D01*
X12915000Y-6285000D02*
X12885000Y-6315000D01*
X12885000Y-6485000D02*
X12915000Y-6515000D01*
X12915000Y-6485000D02*
X12885000Y-6515000D01*
X12885000Y-6785000D02*
X12915000Y-6815000D01*
X12915000Y-6785000D02*
X12885000Y-6815000D01*
X12885000Y-6885000D02*
X12915000Y-6915000D01*
X12915000Y-6885000D02*
X12885000Y-6915000D01*
X12885000Y-6985000D02*
X12915000Y-7015000D01*
X12915000Y-6985000D02*
X12885000Y-7015000D01*
X12885000Y-7085000D02*
X12915000Y-7115000D01*
X12915000Y-7085000D02*
X12885000Y-7115000D01*
X12885000Y-7285000D02*
X12915000Y-7315000D01*
X12915000Y-7285000D02*
X12885000Y-7315000D01*
X12885000Y-7485000D02*
X12915000Y-7515000D01*
X12915000Y-7485000D02*
X12885000Y-7515000D01*
X12885000Y-13285000D02*
X12915000Y-13315000D01*
X12915000Y-13285000D02*
X12885000Y-13315000D01*
X12885000Y-13885000D02*
X12915000Y-13915000D01*
X12915000Y-13885000D02*
X12885000Y-13915000D01*
X12885000Y-14585000D02*
X12915000Y-14615000D01*
X12915000Y-14585000D02*
X12885000Y-14615000D01*
X12985000Y-5985000D02*
X13015000Y-6015000D01*
X13015000Y-5985000D02*
X12985000Y-6015000D01*
X12985000Y-6185000D02*
X13015000Y-6215000D01*
X13015000Y-6185000D02*
X12985000Y-6215000D01*
X12985000Y-6385000D02*
X13015000Y-6415000D01*
X13015000Y-6385000D02*
X12985000Y-6415000D01*
X12985000Y-6785000D02*
X13015000Y-6815000D01*
X13015000Y-6785000D02*
X12985000Y-6815000D01*
X12985000Y-6885000D02*
X13015000Y-6915000D01*
X13015000Y-6885000D02*
X12985000Y-6915000D01*
X12985000Y-6985000D02*
X13015000Y-7015000D01*
X13015000Y-6985000D02*
X12985000Y-7015000D01*
X12985000Y-7185000D02*
X13015000Y-7215000D01*
X13015000Y-7185000D02*
X12985000Y-7215000D01*
X12985000Y-7385000D02*
X13015000Y-7415000D01*
X13015000Y-7385000D02*
X12985000Y-7415000D01*
X12985000Y-13485000D02*
X13015000Y-13515000D01*
X13015000Y-13485000D02*
X12985000Y-13515000D01*
X12985000Y-13885000D02*
X13015000Y-13915000D01*
X13015000Y-13885000D02*
X12985000Y-13915000D01*
X13032250Y-8532500D02*
X13062250Y-8562500D01*
X13062250Y-8532500D02*
X13032250Y-8562500D01*
X13032250Y-8607500D02*
X13062250Y-8637500D01*
X13062250Y-8607500D02*
X13032250Y-8637500D01*
X13039750Y-8955000D02*
X13069750Y-8985000D01*
X13069750Y-8955000D02*
X13039750Y-8985000D01*
X13039750Y-9046875D02*
X13069750Y-9076875D01*
X13069750Y-9046875D02*
X13039750Y-9076875D01*
X13039750Y-9146875D02*
X13069750Y-9176875D01*
X13069750Y-9146875D02*
X13039750Y-9176875D01*
X13056000Y-9505000D02*
X13086000Y-9535000D01*
X13086000Y-9505000D02*
X13056000Y-9535000D01*
X13056000Y-9580000D02*
X13086000Y-9610000D01*
X13086000Y-9580000D02*
X13056000Y-9610000D01*
X13085000Y-6085000D02*
X13115000Y-6115000D01*
X13115000Y-6085000D02*
X13085000Y-6115000D01*
X13085000Y-6285000D02*
X13115000Y-6315000D01*
X13115000Y-6285000D02*
X13085000Y-6315000D01*
X13085000Y-6485000D02*
X13115000Y-6515000D01*
X13115000Y-6485000D02*
X13085000Y-6515000D01*
X13085000Y-6785000D02*
X13115000Y-6815000D01*
X13115000Y-6785000D02*
X13085000Y-6815000D01*
X13085000Y-6885000D02*
X13115000Y-6915000D01*
X13115000Y-6885000D02*
X13085000Y-6915000D01*
X13085000Y-6985000D02*
X13115000Y-7015000D01*
X13115000Y-6985000D02*
X13085000Y-7015000D01*
X13085000Y-7085000D02*
X13115000Y-7115000D01*
X13115000Y-7085000D02*
X13085000Y-7115000D01*
X13085000Y-7285000D02*
X13115000Y-7315000D01*
X13115000Y-7285000D02*
X13085000Y-7315000D01*
X13085000Y-7485000D02*
X13115000Y-7515000D01*
X13115000Y-7485000D02*
X13085000Y-7515000D01*
X13085000Y-13285000D02*
X13115000Y-13315000D01*
X13115000Y-13285000D02*
X13085000Y-13315000D01*
X13085000Y-13885000D02*
X13115000Y-13915000D01*
X13115000Y-13885000D02*
X13085000Y-13915000D01*
X13096000Y-10133750D02*
X13126000Y-10163750D01*
X13126000Y-10133750D02*
X13096000Y-10163750D01*
X13096000Y-10262500D02*
X13126000Y-10292500D01*
X13126000Y-10262500D02*
X13096000Y-10292500D01*
X13107250Y-8532500D02*
X13137250Y-8562500D01*
X13137250Y-8532500D02*
X13107250Y-8562500D01*
X13107250Y-8607500D02*
X13137250Y-8637500D01*
X13137250Y-8607500D02*
X13107250Y-8637500D01*
X13131000Y-9505000D02*
X13161000Y-9535000D01*
X13161000Y-9505000D02*
X13131000Y-9535000D01*
X13131000Y-9580000D02*
X13161000Y-9610000D01*
X13161000Y-9580000D02*
X13131000Y-9610000D01*
X13185000Y-5985000D02*
X13215000Y-6015000D01*
X13215000Y-5985000D02*
X13185000Y-6015000D01*
X13185000Y-6185000D02*
X13215000Y-6215000D01*
X13215000Y-6185000D02*
X13185000Y-6215000D01*
X13185000Y-6385000D02*
X13215000Y-6415000D01*
X13215000Y-6385000D02*
X13185000Y-6415000D01*
X13185000Y-6785000D02*
X13215000Y-6815000D01*
X13215000Y-6785000D02*
X13185000Y-6815000D01*
X13185000Y-6885000D02*
X13215000Y-6915000D01*
X13215000Y-6885000D02*
X13185000Y-6915000D01*
X13185000Y-6985000D02*
X13215000Y-7015000D01*
X13215000Y-6985000D02*
X13185000Y-7015000D01*
X13185000Y-7185000D02*
X13215000Y-7215000D01*
X13215000Y-7185000D02*
X13185000Y-7215000D01*
X13185000Y-7385000D02*
X13215000Y-7415000D01*
X13215000Y-7385000D02*
X13185000Y-7415000D01*
X13185000Y-13085000D02*
X13215000Y-13115000D01*
X13215000Y-13085000D02*
X13185000Y-13115000D01*
X13185000Y-13885000D02*
X13215000Y-13915000D01*
X13215000Y-13885000D02*
X13185000Y-13915000D01*
X13247957Y-10476036D02*
X13277957Y-10506036D01*
X13277957Y-10476036D02*
X13247957Y-10506036D01*
X13285000Y-6085000D02*
X13315000Y-6115000D01*
X13315000Y-6085000D02*
X13285000Y-6115000D01*
X13285000Y-6285000D02*
X13315000Y-6315000D01*
X13315000Y-6285000D02*
X13285000Y-6315000D01*
X13285000Y-6485000D02*
X13315000Y-6515000D01*
X13315000Y-6485000D02*
X13285000Y-6515000D01*
X13285000Y-6885000D02*
X13315000Y-6915000D01*
X13315000Y-6885000D02*
X13285000Y-6915000D01*
X13285000Y-7085000D02*
X13315000Y-7115000D01*
X13315000Y-7085000D02*
X13285000Y-7115000D01*
X13285000Y-7285000D02*
X13315000Y-7315000D01*
X13315000Y-7285000D02*
X13285000Y-7315000D01*
X13285000Y-7485000D02*
X13315000Y-7515000D01*
X13315000Y-7485000D02*
X13285000Y-7515000D01*
X13285000Y-13885000D02*
X13315000Y-13915000D01*
X13315000Y-13885000D02*
X13285000Y-13915000D01*
X13385000Y-5985000D02*
X13415000Y-6015000D01*
X13415000Y-5985000D02*
X13385000Y-6015000D01*
X13385000Y-6185000D02*
X13415000Y-6215000D01*
X13415000Y-6185000D02*
X13385000Y-6215000D01*
X13385000Y-6385000D02*
X13415000Y-6415000D01*
X13415000Y-6385000D02*
X13385000Y-6415000D01*
X13385000Y-6785000D02*
X13415000Y-6815000D01*
X13415000Y-6785000D02*
X13385000Y-6815000D01*
X13385000Y-6985000D02*
X13415000Y-7015000D01*
X13415000Y-6985000D02*
X13385000Y-7015000D01*
X13385000Y-7185000D02*
X13415000Y-7215000D01*
X13415000Y-7185000D02*
X13385000Y-7215000D01*
X13385000Y-7385000D02*
X13415000Y-7415000D01*
X13415000Y-7385000D02*
X13385000Y-7415000D01*
X13385000Y-13885000D02*
X13415000Y-13915000D01*
X13415000Y-13885000D02*
X13385000Y-13915000D01*
X13467250Y-8532500D02*
X13497250Y-8562500D01*
X13497250Y-8532500D02*
X13467250Y-8562500D01*
X13467250Y-8607500D02*
X13497250Y-8637500D01*
X13497250Y-8607500D02*
X13467250Y-8637500D01*
X13474750Y-8955000D02*
X13504750Y-8985000D01*
X13504750Y-8955000D02*
X13474750Y-8985000D01*
X13474750Y-9046875D02*
X13504750Y-9076875D01*
X13504750Y-9046875D02*
X13474750Y-9076875D01*
X13474750Y-9146875D02*
X13504750Y-9176875D01*
X13504750Y-9146875D02*
X13474750Y-9176875D01*
X13485000Y-6085000D02*
X13515000Y-6115000D01*
X13515000Y-6085000D02*
X13485000Y-6115000D01*
X13485000Y-6285000D02*
X13515000Y-6315000D01*
X13515000Y-6285000D02*
X13485000Y-6315000D01*
X13485000Y-6485000D02*
X13515000Y-6515000D01*
X13515000Y-6485000D02*
X13485000Y-6515000D01*
X13485000Y-6885000D02*
X13515000Y-6915000D01*
X13515000Y-6885000D02*
X13485000Y-6915000D01*
X13485000Y-7085000D02*
X13515000Y-7115000D01*
X13515000Y-7085000D02*
X13485000Y-7115000D01*
X13485000Y-7285000D02*
X13515000Y-7315000D01*
X13515000Y-7285000D02*
X13485000Y-7315000D01*
X13485000Y-7485000D02*
X13515000Y-7515000D01*
X13515000Y-7485000D02*
X13485000Y-7515000D01*
X13485000Y-13285000D02*
X13515000Y-13315000D01*
X13515000Y-13285000D02*
X13485000Y-13315000D01*
X13485000Y-13885000D02*
X13515000Y-13915000D01*
X13515000Y-13885000D02*
X13485000Y-13915000D01*
X13485440Y-10362567D02*
X13515440Y-10392567D01*
X13515440Y-10362567D02*
X13485440Y-10392567D01*
X13491000Y-9505000D02*
X13521000Y-9535000D01*
X13521000Y-9505000D02*
X13491000Y-9535000D01*
X13491000Y-9580000D02*
X13521000Y-9610000D01*
X13521000Y-9580000D02*
X13491000Y-9610000D01*
X13531000Y-10133750D02*
X13561000Y-10163750D01*
X13561000Y-10133750D02*
X13531000Y-10163750D01*
X13531000Y-10262500D02*
X13561000Y-10292500D01*
X13561000Y-10262500D02*
X13531000Y-10292500D01*
X13542250Y-8532500D02*
X13572250Y-8562500D01*
X13572250Y-8532500D02*
X13542250Y-8562500D01*
X13542250Y-8607500D02*
X13572250Y-8637500D01*
X13572250Y-8607500D02*
X13542250Y-8637500D01*
X13566000Y-9505000D02*
X13596000Y-9535000D01*
X13596000Y-9505000D02*
X13566000Y-9535000D01*
X13566000Y-9580000D02*
X13596000Y-9610000D01*
X13596000Y-9580000D02*
X13566000Y-9610000D01*
X13585000Y-5985000D02*
X13615000Y-6015000D01*
X13615000Y-5985000D02*
X13585000Y-6015000D01*
X13585000Y-6185000D02*
X13615000Y-6215000D01*
X13615000Y-6185000D02*
X13585000Y-6215000D01*
X13585000Y-6785000D02*
X13615000Y-6815000D01*
X13615000Y-6785000D02*
X13585000Y-6815000D01*
X13585000Y-6985000D02*
X13615000Y-7015000D01*
X13615000Y-6985000D02*
X13585000Y-7015000D01*
X13585000Y-7185000D02*
X13615000Y-7215000D01*
X13615000Y-7185000D02*
X13585000Y-7215000D01*
X13585000Y-7385000D02*
X13615000Y-7415000D01*
X13615000Y-7385000D02*
X13585000Y-7415000D01*
X13585000Y-13485000D02*
X13615000Y-13515000D01*
X13615000Y-13485000D02*
X13585000Y-13515000D01*
X13585000Y-13885000D02*
X13615000Y-13915000D01*
X13615000Y-13885000D02*
X13585000Y-13915000D01*
X13685000Y-6085000D02*
X13715000Y-6115000D01*
X13715000Y-6085000D02*
X13685000Y-6115000D01*
X13685000Y-13285000D02*
X13715000Y-13315000D01*
X13715000Y-13285000D02*
X13685000Y-13315000D01*
X13685000Y-13885000D02*
X13715000Y-13915000D01*
X13715000Y-13885000D02*
X13685000Y-13915000D01*
X13701000Y-10886250D02*
X13731000Y-10916250D01*
X13731000Y-10886250D02*
X13701000Y-10916250D01*
X13701000Y-10961250D02*
X13731000Y-10991250D01*
X13731000Y-10961250D02*
X13701000Y-10991250D01*
X13708500Y-11308750D02*
X13738500Y-11338750D01*
X13738500Y-11308750D02*
X13708500Y-11338750D01*
X13708500Y-11400625D02*
X13738500Y-11430625D01*
X13738500Y-11400625D02*
X13708500Y-11430625D01*
X13708500Y-11500625D02*
X13738500Y-11530625D01*
X13738500Y-11500625D02*
X13708500Y-11530625D01*
X13724750Y-11858750D02*
X13754750Y-11888750D01*
X13754750Y-11858750D02*
X13724750Y-11888750D01*
X13724750Y-11933750D02*
X13754750Y-11963750D01*
X13754750Y-11933750D02*
X13724750Y-11963750D01*
X13764750Y-12487500D02*
X13794750Y-12517500D01*
X13794750Y-12487500D02*
X13764750Y-12517500D01*
X13764750Y-12616250D02*
X13794750Y-12646250D01*
X13794750Y-12616250D02*
X13764750Y-12646250D01*
X13776000Y-10886250D02*
X13806000Y-10916250D01*
X13806000Y-10886250D02*
X13776000Y-10916250D01*
X13776000Y-10961250D02*
X13806000Y-10991250D01*
X13806000Y-10961250D02*
X13776000Y-10991250D01*
X13785000Y-5985000D02*
X13815000Y-6015000D01*
X13815000Y-5985000D02*
X13785000Y-6015000D01*
X13785000Y-6185000D02*
X13815000Y-6215000D01*
X13815000Y-6185000D02*
X13785000Y-6215000D01*
X13785000Y-6785000D02*
X13815000Y-6815000D01*
X13815000Y-6785000D02*
X13785000Y-6815000D01*
X13785000Y-6985000D02*
X13815000Y-7015000D01*
X13815000Y-6985000D02*
X13785000Y-7015000D01*
X13785000Y-7185000D02*
X13815000Y-7215000D01*
X13815000Y-7185000D02*
X13785000Y-7215000D01*
X13785000Y-7385000D02*
X13815000Y-7415000D01*
X13815000Y-7385000D02*
X13785000Y-7415000D01*
X13785000Y-13485000D02*
X13815000Y-13515000D01*
X13815000Y-13485000D02*
X13785000Y-13515000D01*
X13785000Y-14585000D02*
X13815000Y-14615000D01*
X13815000Y-14585000D02*
X13785000Y-14615000D01*
X13799750Y-11858750D02*
X13829750Y-11888750D01*
X13829750Y-11858750D02*
X13799750Y-11888750D01*
X13799750Y-11933750D02*
X13829750Y-11963750D01*
X13829750Y-11933750D02*
X13799750Y-11963750D01*
X13817250Y-8532500D02*
X13847250Y-8562500D01*
X13847250Y-8532500D02*
X13817250Y-8562500D01*
X13817250Y-8607500D02*
X13847250Y-8637500D01*
X13847250Y-8607500D02*
X13817250Y-8637500D01*
X13824750Y-8955000D02*
X13854750Y-8985000D01*
X13854750Y-8955000D02*
X13824750Y-8985000D01*
X13824750Y-9046875D02*
X13854750Y-9076875D01*
X13854750Y-9046875D02*
X13824750Y-9076875D01*
X13824750Y-9146875D02*
X13854750Y-9176875D01*
X13854750Y-9146875D02*
X13824750Y-9176875D01*
X13841000Y-9505000D02*
X13871000Y-9535000D01*
X13871000Y-9505000D02*
X13841000Y-9535000D01*
X13841000Y-9580000D02*
X13871000Y-9610000D01*
X13871000Y-9580000D02*
X13841000Y-9610000D01*
X13881000Y-10133750D02*
X13911000Y-10163750D01*
X13911000Y-10133750D02*
X13881000Y-10163750D01*
X13881000Y-10262500D02*
X13911000Y-10292500D01*
X13911000Y-10262500D02*
X13881000Y-10292500D01*
X13885000Y-6685000D02*
X13915000Y-6715000D01*
X13915000Y-6685000D02*
X13885000Y-6715000D01*
X13885000Y-6885000D02*
X13915000Y-6915000D01*
X13915000Y-6885000D02*
X13885000Y-6915000D01*
X13885000Y-14785000D02*
X13915000Y-14815000D01*
X13915000Y-14785000D02*
X13885000Y-14815000D01*
X13892250Y-8532500D02*
X13922250Y-8562500D01*
X13922250Y-8532500D02*
X13892250Y-8562500D01*
X13892250Y-8607500D02*
X13922250Y-8637500D01*
X13922250Y-8607500D02*
X13892250Y-8637500D01*
X13916000Y-9505000D02*
X13946000Y-9535000D01*
X13946000Y-9505000D02*
X13916000Y-9535000D01*
X13916000Y-9580000D02*
X13946000Y-9610000D01*
X13946000Y-9580000D02*
X13916000Y-9610000D01*
X13985000Y-5985000D02*
X14015000Y-6015000D01*
X14015000Y-5985000D02*
X13985000Y-6015000D01*
X13985000Y-6185000D02*
X14015000Y-6215000D01*
X14015000Y-6185000D02*
X13985000Y-6215000D01*
X13985000Y-6585000D02*
X14015000Y-6615000D01*
X14015000Y-6585000D02*
X13985000Y-6615000D01*
X13985000Y-6785000D02*
X14015000Y-6815000D01*
X14015000Y-6785000D02*
X13985000Y-6815000D01*
X13985000Y-6985000D02*
X14015000Y-7015000D01*
X14015000Y-6985000D02*
X13985000Y-7015000D01*
X13985000Y-7185000D02*
X14015000Y-7215000D01*
X14015000Y-7185000D02*
X13985000Y-7215000D01*
X13985000Y-7385000D02*
X14015000Y-7415000D01*
X14015000Y-7385000D02*
X13985000Y-7415000D01*
X13985000Y-14585000D02*
X14015000Y-14615000D01*
X14015000Y-14585000D02*
X13985000Y-14615000D01*
X14041000Y-10886250D02*
X14071000Y-10916250D01*
X14071000Y-10886250D02*
X14041000Y-10916250D01*
X14041000Y-10961250D02*
X14071000Y-10991250D01*
X14071000Y-10961250D02*
X14041000Y-10991250D01*
X14048500Y-11308750D02*
X14078500Y-11338750D01*
X14078500Y-11308750D02*
X14048500Y-11338750D01*
X14048500Y-11400625D02*
X14078500Y-11430625D01*
X14078500Y-11400625D02*
X14048500Y-11430625D01*
X14048500Y-11500625D02*
X14078500Y-11530625D01*
X14078500Y-11500625D02*
X14048500Y-11530625D01*
X14064750Y-11858750D02*
X14094750Y-11888750D01*
X14094750Y-11858750D02*
X14064750Y-11888750D01*
X14064750Y-11933750D02*
X14094750Y-11963750D01*
X14094750Y-11933750D02*
X14064750Y-11963750D01*
X14085000Y-6085000D02*
X14115000Y-6115000D01*
X14115000Y-6085000D02*
X14085000Y-6115000D01*
X14085000Y-6685000D02*
X14115000Y-6715000D01*
X14115000Y-6685000D02*
X14085000Y-6715000D01*
X14085000Y-6885000D02*
X14115000Y-6915000D01*
X14115000Y-6885000D02*
X14085000Y-6915000D01*
X14085000Y-14785000D02*
X14115000Y-14815000D01*
X14115000Y-14785000D02*
X14085000Y-14815000D01*
X14104750Y-12487500D02*
X14134750Y-12517500D01*
X14134750Y-12487500D02*
X14104750Y-12517500D01*
X14104750Y-12616250D02*
X14134750Y-12646250D01*
X14134750Y-12616250D02*
X14104750Y-12646250D01*
X14116000Y-10886250D02*
X14146000Y-10916250D01*
X14146000Y-10886250D02*
X14116000Y-10916250D01*
X14116000Y-10961250D02*
X14146000Y-10991250D01*
X14146000Y-10961250D02*
X14116000Y-10991250D01*
X14139141Y-10017886D02*
X14169141Y-10047886D01*
X14169141Y-10017886D02*
X14139141Y-10047886D01*
X14139750Y-11858750D02*
X14169750Y-11888750D01*
X14169750Y-11858750D02*
X14139750Y-11888750D01*
X14139750Y-11933750D02*
X14169750Y-11963750D01*
X14169750Y-11933750D02*
X14139750Y-11963750D01*
X14185000Y-5985000D02*
X14215000Y-6015000D01*
X14215000Y-5985000D02*
X14185000Y-6015000D01*
X14185000Y-6185000D02*
X14215000Y-6215000D01*
X14215000Y-6185000D02*
X14185000Y-6215000D01*
X14185000Y-6585000D02*
X14215000Y-6615000D01*
X14215000Y-6585000D02*
X14185000Y-6615000D01*
X14185000Y-6785000D02*
X14215000Y-6815000D01*
X14215000Y-6785000D02*
X14185000Y-6815000D01*
X14185000Y-6985000D02*
X14215000Y-7015000D01*
X14215000Y-6985000D02*
X14185000Y-7015000D01*
X14185000Y-7185000D02*
X14215000Y-7215000D01*
X14215000Y-7185000D02*
X14185000Y-7215000D01*
X14185000Y-7385000D02*
X14215000Y-7415000D01*
X14215000Y-7385000D02*
X14185000Y-7415000D01*
X14185000Y-14585000D02*
X14215000Y-14615000D01*
X14215000Y-14585000D02*
X14185000Y-14615000D01*
X14193973Y-9860727D02*
X14223973Y-9890727D01*
X14223973Y-9860727D02*
X14193973Y-9890727D01*
X14248450Y-10392607D02*
X14278450Y-10422607D01*
X14278450Y-10392607D02*
X14248450Y-10422607D01*
X14281600Y-10614501D02*
X14311600Y-10644501D01*
X14311600Y-10614501D02*
X14281600Y-10644501D01*
X14285000Y-6085000D02*
X14315000Y-6115000D01*
X14315000Y-6085000D02*
X14285000Y-6115000D01*
X14285000Y-6285000D02*
X14315000Y-6315000D01*
X14315000Y-6285000D02*
X14285000Y-6315000D01*
X14285000Y-6485000D02*
X14315000Y-6515000D01*
X14315000Y-6485000D02*
X14285000Y-6515000D01*
X14285000Y-6685000D02*
X14315000Y-6715000D01*
X14315000Y-6685000D02*
X14285000Y-6715000D01*
X14285000Y-6885000D02*
X14315000Y-6915000D01*
X14315000Y-6885000D02*
X14285000Y-6915000D01*
X14285000Y-14785000D02*
X14315000Y-14815000D01*
X14315000Y-14785000D02*
X14285000Y-14815000D01*
X14381000Y-10886250D02*
X14411000Y-10916250D01*
X14411000Y-10886250D02*
X14381000Y-10916250D01*
X14381000Y-10961250D02*
X14411000Y-10991250D01*
X14411000Y-10961250D02*
X14381000Y-10991250D01*
X14385000Y-5985000D02*
X14415000Y-6015000D01*
X14415000Y-5985000D02*
X14385000Y-6015000D01*
X14385000Y-6185000D02*
X14415000Y-6215000D01*
X14415000Y-6185000D02*
X14385000Y-6215000D01*
X14385000Y-6385000D02*
X14415000Y-6415000D01*
X14415000Y-6385000D02*
X14385000Y-6415000D01*
X14385000Y-6585000D02*
X14415000Y-6615000D01*
X14415000Y-6585000D02*
X14385000Y-6615000D01*
X14385000Y-6785000D02*
X14415000Y-6815000D01*
X14415000Y-6785000D02*
X14385000Y-6815000D01*
X14385000Y-6985000D02*
X14415000Y-7015000D01*
X14415000Y-6985000D02*
X14385000Y-7015000D01*
X14385000Y-7185000D02*
X14415000Y-7215000D01*
X14415000Y-7185000D02*
X14385000Y-7215000D01*
X14385000Y-7385000D02*
X14415000Y-7415000D01*
X14415000Y-7385000D02*
X14385000Y-7415000D01*
X14385000Y-7765050D02*
X14415000Y-7795050D01*
X14415000Y-7765050D02*
X14385000Y-7795050D01*
X14385000Y-14585000D02*
X14415000Y-14615000D01*
X14415000Y-14585000D02*
X14385000Y-14615000D01*
X14388500Y-11308750D02*
X14418500Y-11338750D01*
X14418500Y-11308750D02*
X14388500Y-11338750D01*
X14388500Y-11400625D02*
X14418500Y-11430625D01*
X14418500Y-11400625D02*
X14388500Y-11430625D01*
X14388500Y-11500625D02*
X14418500Y-11530625D01*
X14418500Y-11500625D02*
X14388500Y-11530625D01*
X14404750Y-11858750D02*
X14434750Y-11888750D01*
X14434750Y-11858750D02*
X14404750Y-11888750D01*
X14404750Y-11933750D02*
X14434750Y-11963750D01*
X14434750Y-11933750D02*
X14404750Y-11963750D01*
X14444750Y-12487500D02*
X14474750Y-12517500D01*
X14474750Y-12487500D02*
X14444750Y-12517500D01*
X14444750Y-12616250D02*
X14474750Y-12646250D01*
X14474750Y-12616250D02*
X14444750Y-12646250D01*
X14456000Y-10886250D02*
X14486000Y-10916250D01*
X14486000Y-10886250D02*
X14456000Y-10916250D01*
X14456000Y-10961250D02*
X14486000Y-10991250D01*
X14486000Y-10961250D02*
X14456000Y-10991250D01*
X14479750Y-11858750D02*
X14509750Y-11888750D01*
X14509750Y-11858750D02*
X14479750Y-11888750D01*
X14479750Y-11933750D02*
X14509750Y-11963750D01*
X14509750Y-11933750D02*
X14479750Y-11963750D01*
X14485000Y-6085000D02*
X14515000Y-6115000D01*
X14515000Y-6085000D02*
X14485000Y-6115000D01*
X14485000Y-6285000D02*
X14515000Y-6315000D01*
X14515000Y-6285000D02*
X14485000Y-6315000D01*
X14485000Y-6485000D02*
X14515000Y-6515000D01*
X14515000Y-6485000D02*
X14485000Y-6515000D01*
X14485000Y-6685000D02*
X14515000Y-6715000D01*
X14515000Y-6685000D02*
X14485000Y-6715000D01*
X14485000Y-6885000D02*
X14515000Y-6915000D01*
X14515000Y-6885000D02*
X14485000Y-6915000D01*
X14485000Y-8135000D02*
X14515000Y-8165000D01*
X14515000Y-8135000D02*
X14485000Y-8165000D01*
X14485000Y-14785000D02*
X14515000Y-14815000D01*
X14515000Y-14785000D02*
X14485000Y-14815000D01*
X14524527Y-7820050D02*
X14554527Y-7850050D01*
X14554527Y-7820050D02*
X14524527Y-7850050D01*
X14585000Y-5985000D02*
X14615000Y-6015000D01*
X14615000Y-5985000D02*
X14585000Y-6015000D01*
X14585000Y-6185000D02*
X14615000Y-6215000D01*
X14615000Y-6185000D02*
X14585000Y-6215000D01*
X14585000Y-6385000D02*
X14615000Y-6415000D01*
X14615000Y-6385000D02*
X14585000Y-6415000D01*
X14585000Y-6585000D02*
X14615000Y-6615000D01*
X14615000Y-6585000D02*
X14585000Y-6615000D01*
X14585000Y-6785000D02*
X14615000Y-6815000D01*
X14615000Y-6785000D02*
X14585000Y-6815000D01*
X14585000Y-6985000D02*
X14615000Y-7015000D01*
X14615000Y-6985000D02*
X14585000Y-7015000D01*
X14585000Y-7185000D02*
X14615000Y-7215000D01*
X14615000Y-7185000D02*
X14585000Y-7215000D01*
X14585000Y-7385000D02*
X14615000Y-7415000D01*
X14615000Y-7385000D02*
X14585000Y-7415000D01*
X14585000Y-14585000D02*
X14615000Y-14615000D01*
X14615000Y-14585000D02*
X14585000Y-14615000D01*
X14604312Y-8134950D02*
X14634312Y-8164950D01*
X14634312Y-8134950D02*
X14604312Y-8164950D01*
X14608432Y-7873900D02*
X14638432Y-7903900D01*
X14638432Y-7873900D02*
X14608432Y-7903900D01*
X14639750Y-10551250D02*
X14669750Y-10581250D01*
X14669750Y-10551250D02*
X14639750Y-10581250D01*
X14685000Y-6085000D02*
X14715000Y-6115000D01*
X14715000Y-6085000D02*
X14685000Y-6115000D01*
X14685000Y-6285000D02*
X14715000Y-6315000D01*
X14715000Y-6285000D02*
X14685000Y-6315000D01*
X14685000Y-6485000D02*
X14715000Y-6515000D01*
X14715000Y-6485000D02*
X14685000Y-6515000D01*
X14685000Y-6685000D02*
X14715000Y-6715000D01*
X14715000Y-6685000D02*
X14685000Y-6715000D01*
X14685000Y-6885000D02*
X14715000Y-6915000D01*
X14715000Y-6885000D02*
X14685000Y-6915000D01*
X14685000Y-7930050D02*
X14715000Y-7960050D01*
X14715000Y-7930050D02*
X14685000Y-7960050D01*
X14685000Y-8185000D02*
X14715000Y-8215000D01*
X14715000Y-8185000D02*
X14685000Y-8215000D01*
X14685000Y-13985000D02*
X14715000Y-14015000D01*
X14715000Y-13985000D02*
X14685000Y-14015000D01*
X14685000Y-14785000D02*
X14715000Y-14815000D01*
X14715000Y-14785000D02*
X14685000Y-14815000D01*
X14714750Y-10551250D02*
X14744750Y-10581250D01*
X14744750Y-10551250D02*
X14714750Y-10581250D01*
X14721000Y-10886250D02*
X14751000Y-10916250D01*
X14751000Y-10886250D02*
X14721000Y-10916250D01*
X14721000Y-10961250D02*
X14751000Y-10991250D01*
X14751000Y-10961250D02*
X14721000Y-10991250D01*
X14728500Y-11308750D02*
X14758500Y-11338750D01*
X14758500Y-11308750D02*
X14728500Y-11338750D01*
X14728500Y-11400625D02*
X14758500Y-11430625D01*
X14758500Y-11400625D02*
X14728500Y-11430625D01*
X14728500Y-11500625D02*
X14758500Y-11530625D01*
X14758500Y-11500625D02*
X14728500Y-11530625D01*
X14744750Y-11858750D02*
X14774750Y-11888750D01*
X14774750Y-11858750D02*
X14744750Y-11888750D01*
X14744750Y-11933750D02*
X14774750Y-11963750D01*
X14774750Y-11933750D02*
X14744750Y-11963750D01*
X14784750Y-12487500D02*
X14814750Y-12517500D01*
X14814750Y-12487500D02*
X14784750Y-12517500D01*
X14784750Y-12616250D02*
X14814750Y-12646250D01*
X14814750Y-12616250D02*
X14784750Y-12646250D01*
X14785000Y-5985000D02*
X14815000Y-6015000D01*
X14815000Y-5985000D02*
X14785000Y-6015000D01*
X14785000Y-6185000D02*
X14815000Y-6215000D01*
X14815000Y-6185000D02*
X14785000Y-6215000D01*
X14785000Y-6385000D02*
X14815000Y-6415000D01*
X14815000Y-6385000D02*
X14785000Y-6415000D01*
X14785000Y-6585000D02*
X14815000Y-6615000D01*
X14815000Y-6585000D02*
X14785000Y-6615000D01*
X14785000Y-6785000D02*
X14815000Y-6815000D01*
X14815000Y-6785000D02*
X14785000Y-6815000D01*
X14785000Y-6985000D02*
X14815000Y-7015000D01*
X14815000Y-6985000D02*
X14785000Y-7015000D01*
X14785000Y-7185000D02*
X14815000Y-7215000D01*
X14815000Y-7185000D02*
X14785000Y-7215000D01*
X14785000Y-7385000D02*
X14815000Y-7415000D01*
X14815000Y-7385000D02*
X14785000Y-7415000D01*
X14785000Y-13885000D02*
X14815000Y-13915000D01*
X14815000Y-13885000D02*
X14785000Y-13915000D01*
X14785000Y-14185000D02*
X14815000Y-14215000D01*
X14815000Y-14185000D02*
X14785000Y-14215000D01*
X14785000Y-14585000D02*
X14815000Y-14615000D01*
X14815000Y-14585000D02*
X14785000Y-14615000D01*
X14796000Y-10886250D02*
X14826000Y-10916250D01*
X14826000Y-10886250D02*
X14796000Y-10916250D01*
X14796000Y-10961250D02*
X14826000Y-10991250D01*
X14826000Y-10961250D02*
X14796000Y-10991250D01*
X14810000Y-9860000D02*
X14840000Y-9890000D01*
X14840000Y-9860000D02*
X14810000Y-9890000D01*
X14819750Y-11858750D02*
X14849750Y-11888750D01*
X14849750Y-11858750D02*
X14819750Y-11888750D01*
X14819750Y-11933750D02*
X14849750Y-11963750D01*
X14849750Y-11933750D02*
X14819750Y-11963750D01*
X14885000Y-6085000D02*
X14915000Y-6115000D01*
X14915000Y-6085000D02*
X14885000Y-6115000D01*
X14885000Y-6285000D02*
X14915000Y-6315000D01*
X14915000Y-6285000D02*
X14885000Y-6315000D01*
X14885000Y-6485000D02*
X14915000Y-6515000D01*
X14915000Y-6485000D02*
X14885000Y-6515000D01*
X14885000Y-6685000D02*
X14915000Y-6715000D01*
X14915000Y-6685000D02*
X14885000Y-6715000D01*
X14885000Y-6885000D02*
X14915000Y-6915000D01*
X14915000Y-6885000D02*
X14885000Y-6915000D01*
X14885000Y-13985000D02*
X14915000Y-14015000D01*
X14915000Y-13985000D02*
X14885000Y-14015000D01*
X14885000Y-14385000D02*
X14915000Y-14415000D01*
X14915000Y-14385000D02*
X14885000Y-14415000D01*
X14885000Y-14785000D02*
X14915000Y-14815000D01*
X14915000Y-14785000D02*
X14885000Y-14815000D01*
X14985000Y-5985000D02*
X15015000Y-6015000D01*
X15015000Y-5985000D02*
X14985000Y-6015000D01*
X14985000Y-6185000D02*
X15015000Y-6215000D01*
X15015000Y-6185000D02*
X14985000Y-6215000D01*
X14985000Y-6385000D02*
X15015000Y-6415000D01*
X15015000Y-6385000D02*
X14985000Y-6415000D01*
X14985000Y-6585000D02*
X15015000Y-6615000D01*
X15015000Y-6585000D02*
X14985000Y-6615000D01*
X14985000Y-6785000D02*
X15015000Y-6815000D01*
X15015000Y-6785000D02*
X14985000Y-6815000D01*
X14985000Y-6985000D02*
X15015000Y-7015000D01*
X15015000Y-6985000D02*
X14985000Y-7015000D01*
X14985000Y-7185000D02*
X15015000Y-7215000D01*
X15015000Y-7185000D02*
X14985000Y-7215000D01*
X14985000Y-7385000D02*
X15015000Y-7415000D01*
X15015000Y-7385000D02*
X14985000Y-7415000D01*
X14985000Y-9985000D02*
X15015000Y-10015000D01*
X15015000Y-9985000D02*
X14985000Y-10015000D01*
X14985000Y-13885000D02*
X15015000Y-13915000D01*
X15015000Y-13885000D02*
X14985000Y-13915000D01*
X14985000Y-14185000D02*
X15015000Y-14215000D01*
X15015000Y-14185000D02*
X14985000Y-14215000D01*
X14985000Y-14585000D02*
X15015000Y-14615000D01*
X15015000Y-14585000D02*
X14985000Y-14615000D01*
X15019502Y-8150498D02*
X15049502Y-8180498D01*
X15049502Y-8150498D02*
X15019502Y-8180498D01*
X15061000Y-10886250D02*
X15091000Y-10916250D01*
X15091000Y-10886250D02*
X15061000Y-10916250D01*
X15061000Y-10961250D02*
X15091000Y-10991250D01*
X15091000Y-10961250D02*
X15061000Y-10991250D01*
X15068500Y-11308750D02*
X15098500Y-11338750D01*
X15098500Y-11308750D02*
X15068500Y-11338750D01*
X15068500Y-11400625D02*
X15098500Y-11430625D01*
X15098500Y-11400625D02*
X15068500Y-11430625D01*
X15068500Y-11500625D02*
X15098500Y-11530625D01*
X15098500Y-11500625D02*
X15068500Y-11530625D01*
X15084750Y-11858750D02*
X15114750Y-11888750D01*
X15114750Y-11858750D02*
X15084750Y-11888750D01*
X15084750Y-11933750D02*
X15114750Y-11963750D01*
X15114750Y-11933750D02*
X15084750Y-11963750D01*
X15085000Y-6085000D02*
X15115000Y-6115000D01*
X15115000Y-6085000D02*
X15085000Y-6115000D01*
X15085000Y-6285000D02*
X15115000Y-6315000D01*
X15115000Y-6285000D02*
X15085000Y-6315000D01*
X15085000Y-6485000D02*
X15115000Y-6515000D01*
X15115000Y-6485000D02*
X15085000Y-6515000D01*
X15085000Y-6685000D02*
X15115000Y-6715000D01*
X15115000Y-6685000D02*
X15085000Y-6715000D01*
X15085000Y-6885000D02*
X15115000Y-6915000D01*
X15115000Y-6885000D02*
X15085000Y-6915000D01*
X15085000Y-13985000D02*
X15115000Y-14015000D01*
X15115000Y-13985000D02*
X15085000Y-14015000D01*
X15085000Y-14385000D02*
X15115000Y-14415000D01*
X15115000Y-14385000D02*
X15085000Y-14415000D01*
X15085000Y-14785000D02*
X15115000Y-14815000D01*
X15115000Y-14785000D02*
X15085000Y-14815000D01*
X15089750Y-9851250D02*
X15119750Y-9881250D01*
X15119750Y-9851250D02*
X15089750Y-9881250D01*
X15110000Y-8029005D02*
X15140000Y-8059005D01*
X15140000Y-8029005D02*
X15110000Y-8059005D01*
X15124750Y-12487500D02*
X15154750Y-12517500D01*
X15154750Y-12487500D02*
X15124750Y-12517500D01*
X15124750Y-12616250D02*
X15154750Y-12646250D01*
X15154750Y-12616250D02*
X15124750Y-12646250D01*
X15136000Y-10886250D02*
X15166000Y-10916250D01*
X15166000Y-10886250D02*
X15136000Y-10916250D01*
X15136000Y-10961250D02*
X15166000Y-10991250D01*
X15166000Y-10961250D02*
X15136000Y-10991250D01*
X15159750Y-11858750D02*
X15189750Y-11888750D01*
X15189750Y-11858750D02*
X15159750Y-11888750D01*
X15159750Y-11933750D02*
X15189750Y-11963750D01*
X15189750Y-11933750D02*
X15159750Y-11963750D01*
X15185000Y-6785000D02*
X15215000Y-6815000D01*
X15215000Y-6785000D02*
X15185000Y-6815000D01*
X15185000Y-6985000D02*
X15215000Y-7015000D01*
X15215000Y-6985000D02*
X15185000Y-7015000D01*
X15185000Y-13885000D02*
X15215000Y-13915000D01*
X15215000Y-13885000D02*
X15185000Y-13915000D01*
X15185000Y-14585000D02*
X15215000Y-14615000D01*
X15215000Y-14585000D02*
X15185000Y-14615000D01*
X15285000Y-14785000D02*
X15315000Y-14815000D01*
X15315000Y-14785000D02*
X15285000Y-14815000D01*
X15385000Y-9810000D02*
X15415000Y-9840000D01*
X15415000Y-9810000D02*
X15385000Y-9840000D01*
X15385000Y-14585000D02*
X15415000Y-14615000D01*
X15415000Y-14585000D02*
X15385000Y-14615000D01*
X15401000Y-10886250D02*
X15431000Y-10916250D01*
X15431000Y-10886250D02*
X15401000Y-10916250D01*
X15401000Y-10961250D02*
X15431000Y-10991250D01*
X15431000Y-10961250D02*
X15401000Y-10991250D01*
X15408500Y-11308750D02*
X15438500Y-11338750D01*
X15438500Y-11308750D02*
X15408500Y-11338750D01*
X15408500Y-11400625D02*
X15438500Y-11430625D01*
X15438500Y-11400625D02*
X15408500Y-11430625D01*
X15408500Y-11500625D02*
X15438500Y-11530625D01*
X15438500Y-11500625D02*
X15408500Y-11530625D01*
X15424750Y-11858750D02*
X15454750Y-11888750D01*
X15454750Y-11858750D02*
X15424750Y-11888750D01*
X15424750Y-11933750D02*
X15454750Y-11963750D01*
X15454750Y-11933750D02*
X15424750Y-11963750D01*
X15464750Y-12487500D02*
X15494750Y-12517500D01*
X15494750Y-12487500D02*
X15464750Y-12517500D01*
X15464750Y-12616250D02*
X15494750Y-12646250D01*
X15494750Y-12616250D02*
X15464750Y-12646250D01*
X15465050Y-7765050D02*
X15495050Y-7795050D01*
X15495050Y-7765050D02*
X15465050Y-7795050D01*
X15476000Y-10886250D02*
X15506000Y-10916250D01*
X15506000Y-10886250D02*
X15476000Y-10916250D01*
X15476000Y-10961250D02*
X15506000Y-10991250D01*
X15506000Y-10961250D02*
X15476000Y-10991250D01*
X15485000Y-14785000D02*
X15515000Y-14815000D01*
X15515000Y-14785000D02*
X15485000Y-14815000D01*
X15499750Y-11858750D02*
X15529750Y-11888750D01*
X15529750Y-11858750D02*
X15499750Y-11888750D01*
X15499750Y-11933750D02*
X15529750Y-11963750D01*
X15529750Y-11933750D02*
X15499750Y-11963750D01*
X15509750Y-8309750D02*
X15539750Y-8339750D01*
X15539750Y-8309750D02*
X15509750Y-8339750D01*
X15585000Y-14585000D02*
X15615000Y-14615000D01*
X15615000Y-14585000D02*
X15585000Y-14615000D01*
X15639750Y-10241300D02*
X15669750Y-10271300D01*
X15669750Y-10241300D02*
X15639750Y-10271300D01*
X15685000Y-14785000D02*
X15715000Y-14815000D01*
X15715000Y-14785000D02*
X15685000Y-14815000D01*
X15739750Y-9551250D02*
X15769750Y-9581250D01*
X15769750Y-9551250D02*
X15739750Y-9581250D01*
X15739750Y-9626250D02*
X15769750Y-9656250D01*
X15769750Y-9626250D02*
X15739750Y-9656250D01*
X15741000Y-10886250D02*
X15771000Y-10916250D01*
X15771000Y-10886250D02*
X15741000Y-10916250D01*
X15741000Y-10961250D02*
X15771000Y-10991250D01*
X15771000Y-10961250D02*
X15741000Y-10991250D01*
X15746050Y-9926250D02*
X15776050Y-9956250D01*
X15776050Y-9926250D02*
X15746050Y-9956250D01*
X15748500Y-11308750D02*
X15778500Y-11338750D01*
X15778500Y-11308750D02*
X15748500Y-11338750D01*
X15748500Y-11400625D02*
X15778500Y-11430625D01*
X15778500Y-11400625D02*
X15748500Y-11430625D01*
X15748500Y-11500625D02*
X15778500Y-11530625D01*
X15778500Y-11500625D02*
X15748500Y-11530625D01*
X15764750Y-11858750D02*
X15794750Y-11888750D01*
X15794750Y-11858750D02*
X15764750Y-11888750D01*
X15764750Y-11933750D02*
X15794750Y-11963750D01*
X15794750Y-11933750D02*
X15764750Y-11963750D01*
X15785000Y-14585000D02*
X15815000Y-14615000D01*
X15815000Y-14585000D02*
X15785000Y-14615000D01*
X15804750Y-12487500D02*
X15834750Y-12517500D01*
X15834750Y-12487500D02*
X15804750Y-12517500D01*
X15804750Y-12616250D02*
X15834750Y-12646250D01*
X15834750Y-12616250D02*
X15804750Y-12646250D01*
X15816000Y-10886250D02*
X15846000Y-10916250D01*
X15846000Y-10886250D02*
X15816000Y-10916250D01*
X15816000Y-10961250D02*
X15846000Y-10991250D01*
X15846000Y-10961250D02*
X15816000Y-10991250D01*
X15839750Y-11858750D02*
X15869750Y-11888750D01*
X15869750Y-11858750D02*
X15839750Y-11888750D01*
X15839750Y-11933750D02*
X15869750Y-11963750D01*
X15869750Y-11933750D02*
X15839750Y-11963750D01*
X15885000Y-14785000D02*
X15915000Y-14815000D01*
X15915000Y-14785000D02*
X15885000Y-14815000D01*
X15977250Y-8532500D02*
X16007250Y-8562500D01*
X16007250Y-8532500D02*
X15977250Y-8562500D01*
X15977250Y-8607500D02*
X16007250Y-8637500D01*
X16007250Y-8607500D02*
X15977250Y-8637500D01*
X15984750Y-8955000D02*
X16014750Y-8985000D01*
X16014750Y-8955000D02*
X15984750Y-8985000D01*
X15984750Y-9046875D02*
X16014750Y-9076875D01*
X16014750Y-9046875D02*
X15984750Y-9076875D01*
X15984750Y-9146875D02*
X16014750Y-9176875D01*
X16014750Y-9146875D02*
X15984750Y-9176875D01*
X15985000Y-6115000D02*
X16015000Y-6145000D01*
X16015000Y-6115000D02*
X15985000Y-6145000D01*
X15985000Y-6215000D02*
X16015000Y-6245000D01*
X16015000Y-6215000D02*
X15985000Y-6245000D01*
X15985000Y-6315000D02*
X16015000Y-6345000D01*
X16015000Y-6315000D02*
X15985000Y-6345000D01*
X15985000Y-6415000D02*
X16015000Y-6445000D01*
X16015000Y-6415000D02*
X15985000Y-6445000D01*
X15985000Y-6515000D02*
X16015000Y-6545000D01*
X16015000Y-6515000D02*
X15985000Y-6545000D01*
X15985000Y-14585000D02*
X16015000Y-14615000D01*
X16015000Y-14585000D02*
X15985000Y-14615000D01*
X16001000Y-9505000D02*
X16031000Y-9535000D01*
X16031000Y-9505000D02*
X16001000Y-9535000D01*
X16001000Y-9580000D02*
X16031000Y-9610000D01*
X16031000Y-9580000D02*
X16001000Y-9610000D01*
X16041000Y-10133750D02*
X16071000Y-10163750D01*
X16071000Y-10133750D02*
X16041000Y-10163750D01*
X16041000Y-10262500D02*
X16071000Y-10292500D01*
X16071000Y-10262500D02*
X16041000Y-10292500D01*
X16052250Y-8532500D02*
X16082250Y-8562500D01*
X16082250Y-8532500D02*
X16052250Y-8562500D01*
X16052250Y-8607500D02*
X16082250Y-8637500D01*
X16082250Y-8607500D02*
X16052250Y-8637500D01*
X16076000Y-9505000D02*
X16106000Y-9535000D01*
X16106000Y-9505000D02*
X16076000Y-9535000D01*
X16076000Y-9580000D02*
X16106000Y-9610000D01*
X16106000Y-9580000D02*
X16076000Y-9610000D01*
X16081000Y-10886250D02*
X16111000Y-10916250D01*
X16111000Y-10886250D02*
X16081000Y-10916250D01*
X16081000Y-10961250D02*
X16111000Y-10991250D01*
X16111000Y-10961250D02*
X16081000Y-10991250D01*
X16085000Y-6515000D02*
X16115000Y-6545000D01*
X16115000Y-6515000D02*
X16085000Y-6545000D01*
X16085000Y-6615000D02*
X16115000Y-6645000D01*
X16115000Y-6615000D02*
X16085000Y-6645000D01*
X16085000Y-6715000D02*
X16115000Y-6745000D01*
X16115000Y-6715000D02*
X16085000Y-6745000D01*
X16085000Y-14785000D02*
X16115000Y-14815000D01*
X16115000Y-14785000D02*
X16085000Y-14815000D01*
X16088500Y-11308750D02*
X16118500Y-11338750D01*
X16118500Y-11308750D02*
X16088500Y-11338750D01*
X16088500Y-11400625D02*
X16118500Y-11430625D01*
X16118500Y-11400625D02*
X16088500Y-11430625D01*
X16088500Y-11500625D02*
X16118500Y-11530625D01*
X16118500Y-11500625D02*
X16088500Y-11530625D01*
X16104750Y-11858750D02*
X16134750Y-11888750D01*
X16134750Y-11858750D02*
X16104750Y-11888750D01*
X16104750Y-11933750D02*
X16134750Y-11963750D01*
X16134750Y-11933750D02*
X16104750Y-11963750D01*
X16144750Y-12487500D02*
X16174750Y-12517500D01*
X16174750Y-12487500D02*
X16144750Y-12517500D01*
X16144750Y-12616250D02*
X16174750Y-12646250D01*
X16174750Y-12616250D02*
X16144750Y-12646250D01*
X16156000Y-10886250D02*
X16186000Y-10916250D01*
X16186000Y-10886250D02*
X16156000Y-10916250D01*
X16156000Y-10961250D02*
X16186000Y-10991250D01*
X16186000Y-10961250D02*
X16156000Y-10991250D01*
X16179750Y-11858750D02*
X16209750Y-11888750D01*
X16209750Y-11858750D02*
X16179750Y-11888750D01*
X16179750Y-11933750D02*
X16209750Y-11963750D01*
X16209750Y-11933750D02*
X16179750Y-11963750D01*
X16185000Y-13485000D02*
X16215000Y-13515000D01*
X16215000Y-13485000D02*
X16185000Y-13515000D01*
X16185000Y-13885000D02*
X16215000Y-13915000D01*
X16215000Y-13885000D02*
X16185000Y-13915000D01*
X16185000Y-14585000D02*
X16215000Y-14615000D01*
X16215000Y-14585000D02*
X16185000Y-14615000D01*
X16285000Y-13285000D02*
X16315000Y-13315000D01*
X16315000Y-13285000D02*
X16285000Y-13315000D01*
X16285000Y-13885000D02*
X16315000Y-13915000D01*
X16315000Y-13885000D02*
X16285000Y-13915000D01*
X16327250Y-8532500D02*
X16357250Y-8562500D01*
X16357250Y-8532500D02*
X16327250Y-8562500D01*
X16327250Y-8607500D02*
X16357250Y-8637500D01*
X16357250Y-8607500D02*
X16327250Y-8637500D01*
X16334750Y-8955000D02*
X16364750Y-8985000D01*
X16364750Y-8955000D02*
X16334750Y-8985000D01*
X16334750Y-9046875D02*
X16364750Y-9076875D01*
X16364750Y-9046875D02*
X16334750Y-9076875D01*
X16334750Y-9146875D02*
X16364750Y-9176875D01*
X16364750Y-9146875D02*
X16334750Y-9176875D01*
X16351000Y-9505000D02*
X16381000Y-9535000D01*
X16381000Y-9505000D02*
X16351000Y-9535000D01*
X16351000Y-9580000D02*
X16381000Y-9610000D01*
X16381000Y-9580000D02*
X16351000Y-9610000D01*
X16385000Y-13085000D02*
X16415000Y-13115000D01*
X16415000Y-13085000D02*
X16385000Y-13115000D01*
X16385000Y-13885000D02*
X16415000Y-13915000D01*
X16415000Y-13885000D02*
X16385000Y-13915000D01*
X16391000Y-10133750D02*
X16421000Y-10163750D01*
X16421000Y-10133750D02*
X16391000Y-10163750D01*
X16391000Y-10262500D02*
X16421000Y-10292500D01*
X16421000Y-10262500D02*
X16391000Y-10292500D01*
X16402250Y-8532500D02*
X16432250Y-8562500D01*
X16432250Y-8532500D02*
X16402250Y-8562500D01*
X16402250Y-8607500D02*
X16432250Y-8637500D01*
X16432250Y-8607500D02*
X16402250Y-8637500D01*
X16426000Y-9505000D02*
X16456000Y-9535000D01*
X16456000Y-9505000D02*
X16426000Y-9535000D01*
X16426000Y-9580000D02*
X16456000Y-9610000D01*
X16456000Y-9580000D02*
X16426000Y-9610000D01*
X16485000Y-13285000D02*
X16515000Y-13315000D01*
X16515000Y-13285000D02*
X16485000Y-13315000D01*
X16485000Y-13885000D02*
X16515000Y-13915000D01*
X16515000Y-13885000D02*
X16485000Y-13915000D01*
X16542957Y-10476036D02*
X16572957Y-10506036D01*
X16572957Y-10476036D02*
X16542957Y-10506036D01*
X16585000Y-13885000D02*
X16615000Y-13915000D01*
X16615000Y-13885000D02*
X16585000Y-13915000D01*
X16685000Y-13885000D02*
X16715000Y-13915000D01*
X16715000Y-13885000D02*
X16685000Y-13915000D01*
X16762250Y-8532500D02*
X16792250Y-8562500D01*
X16792250Y-8532500D02*
X16762250Y-8562500D01*
X16762250Y-8607500D02*
X16792250Y-8637500D01*
X16792250Y-8607500D02*
X16762250Y-8637500D01*
X16769750Y-8955000D02*
X16799750Y-8985000D01*
X16799750Y-8955000D02*
X16769750Y-8985000D01*
X16769750Y-9046875D02*
X16799750Y-9076875D01*
X16799750Y-9046875D02*
X16769750Y-9076875D01*
X16769750Y-9146875D02*
X16799750Y-9176875D01*
X16799750Y-9146875D02*
X16769750Y-9176875D01*
X16780441Y-10362567D02*
X16810441Y-10392567D01*
X16810441Y-10362567D02*
X16780441Y-10392567D01*
X16785000Y-13285000D02*
X16815000Y-13315000D01*
X16815000Y-13285000D02*
X16785000Y-13315000D01*
X16785000Y-13885000D02*
X16815000Y-13915000D01*
X16815000Y-13885000D02*
X16785000Y-13915000D01*
X16786000Y-9505000D02*
X16816000Y-9535000D01*
X16816000Y-9505000D02*
X16786000Y-9535000D01*
X16786000Y-9580000D02*
X16816000Y-9610000D01*
X16816000Y-9580000D02*
X16786000Y-9610000D01*
X16826000Y-10133750D02*
X16856000Y-10163750D01*
X16856000Y-10133750D02*
X16826000Y-10163750D01*
X16826000Y-10262500D02*
X16856000Y-10292500D01*
X16856000Y-10262500D02*
X16826000Y-10292500D01*
X16837250Y-8532500D02*
X16867250Y-8562500D01*
X16867250Y-8532500D02*
X16837250Y-8562500D01*
X16837250Y-8607500D02*
X16867250Y-8637500D01*
X16867250Y-8607500D02*
X16837250Y-8637500D01*
X16861000Y-9505000D02*
X16891000Y-9535000D01*
X16891000Y-9505000D02*
X16861000Y-9535000D01*
X16861000Y-9580000D02*
X16891000Y-9610000D01*
X16891000Y-9580000D02*
X16861000Y-9610000D01*
X16885000Y-13485000D02*
X16915000Y-13515000D01*
X16915000Y-13485000D02*
X16885000Y-13515000D01*
X16885000Y-13885000D02*
X16915000Y-13915000D01*
X16915000Y-13885000D02*
X16885000Y-13915000D01*
X16985000Y-5065000D02*
X17015000Y-5095000D01*
X17015000Y-5065000D02*
X16985000Y-5095000D01*
X16985000Y-5215000D02*
X17015000Y-5245000D01*
X17015000Y-5215000D02*
X16985000Y-5245000D01*
X16985000Y-13285000D02*
X17015000Y-13315000D01*
X17015000Y-13285000D02*
X16985000Y-13315000D01*
X16985000Y-13885000D02*
X17015000Y-13915000D01*
X17015000Y-13885000D02*
X16985000Y-13915000D01*
X16996000Y-10886250D02*
X17026000Y-10916250D01*
X17026000Y-10886250D02*
X16996000Y-10916250D01*
X16996000Y-10961250D02*
X17026000Y-10991250D01*
X17026000Y-10961250D02*
X16996000Y-10991250D01*
X17003500Y-11308750D02*
X17033500Y-11338750D01*
X17033500Y-11308750D02*
X17003500Y-11338750D01*
X17003500Y-11400625D02*
X17033500Y-11430625D01*
X17033500Y-11400625D02*
X17003500Y-11430625D01*
X17003500Y-11500625D02*
X17033500Y-11530625D01*
X17033500Y-11500625D02*
X17003500Y-11530625D01*
X17019750Y-11858750D02*
X17049750Y-11888750D01*
X17049750Y-11858750D02*
X17019750Y-11888750D01*
X17019750Y-11933750D02*
X17049750Y-11963750D01*
X17049750Y-11933750D02*
X17019750Y-11963750D01*
X17059750Y-12487500D02*
X17089750Y-12517500D01*
X17089750Y-12487500D02*
X17059750Y-12517500D01*
X17059750Y-12616250D02*
X17089750Y-12646250D01*
X17089750Y-12616250D02*
X17059750Y-12646250D01*
X17071000Y-10886250D02*
X17101000Y-10916250D01*
X17101000Y-10886250D02*
X17071000Y-10916250D01*
X17071000Y-10961250D02*
X17101000Y-10991250D01*
X17101000Y-10961250D02*
X17071000Y-10991250D01*
X17085000Y-5065000D02*
X17115000Y-5095000D01*
X17115000Y-5065000D02*
X17085000Y-5095000D01*
X17085000Y-5215000D02*
X17115000Y-5245000D01*
X17115000Y-5215000D02*
X17085000Y-5245000D01*
X17085000Y-13485000D02*
X17115000Y-13515000D01*
X17115000Y-13485000D02*
X17085000Y-13515000D01*
X17085000Y-14585000D02*
X17115000Y-14615000D01*
X17115000Y-14585000D02*
X17085000Y-14615000D01*
X17094750Y-11858750D02*
X17124750Y-11888750D01*
X17124750Y-11858750D02*
X17094750Y-11888750D01*
X17094750Y-11933750D02*
X17124750Y-11963750D01*
X17124750Y-11933750D02*
X17094750Y-11963750D01*
X17112250Y-8532500D02*
X17142250Y-8562500D01*
X17142250Y-8532500D02*
X17112250Y-8562500D01*
X17112250Y-8607500D02*
X17142250Y-8637500D01*
X17142250Y-8607500D02*
X17112250Y-8637500D01*
X17119750Y-8955000D02*
X17149750Y-8985000D01*
X17149750Y-8955000D02*
X17119750Y-8985000D01*
X17119750Y-9046875D02*
X17149750Y-9076875D01*
X17149750Y-9046875D02*
X17119750Y-9076875D01*
X17119750Y-9146875D02*
X17149750Y-9176875D01*
X17149750Y-9146875D02*
X17119750Y-9176875D01*
X17136000Y-9505000D02*
X17166000Y-9535000D01*
X17166000Y-9505000D02*
X17136000Y-9535000D01*
X17136000Y-9580000D02*
X17166000Y-9610000D01*
X17166000Y-9580000D02*
X17136000Y-9610000D01*
X17176000Y-10133750D02*
X17206000Y-10163750D01*
X17206000Y-10133750D02*
X17176000Y-10163750D01*
X17176000Y-10262500D02*
X17206000Y-10292500D01*
X17206000Y-10262500D02*
X17176000Y-10292500D01*
X17185000Y-5065000D02*
X17215000Y-5095000D01*
X17215000Y-5065000D02*
X17185000Y-5095000D01*
X17185000Y-5215000D02*
X17215000Y-5245000D01*
X17215000Y-5215000D02*
X17185000Y-5245000D01*
X17185000Y-14785000D02*
X17215000Y-14815000D01*
X17215000Y-14785000D02*
X17185000Y-14815000D01*
X17187250Y-8532500D02*
X17217250Y-8562500D01*
X17217250Y-8532500D02*
X17187250Y-8562500D01*
X17187250Y-8607500D02*
X17217250Y-8637500D01*
X17217250Y-8607500D02*
X17187250Y-8637500D01*
X17211000Y-9505000D02*
X17241000Y-9535000D01*
X17241000Y-9505000D02*
X17211000Y-9535000D01*
X17211000Y-9580000D02*
X17241000Y-9610000D01*
X17241000Y-9580000D02*
X17211000Y-9610000D01*
X17285000Y-5065000D02*
X17315000Y-5095000D01*
X17315000Y-5065000D02*
X17285000Y-5095000D01*
X17285000Y-5215000D02*
X17315000Y-5245000D01*
X17315000Y-5215000D02*
X17285000Y-5245000D01*
X17285000Y-14585000D02*
X17315000Y-14615000D01*
X17315000Y-14585000D02*
X17285000Y-14615000D01*
X17336000Y-10886250D02*
X17366000Y-10916250D01*
X17366000Y-10886250D02*
X17336000Y-10916250D01*
X17336000Y-10961250D02*
X17366000Y-10991250D01*
X17366000Y-10961250D02*
X17336000Y-10991250D01*
X17343500Y-11308750D02*
X17373500Y-11338750D01*
X17373500Y-11308750D02*
X17343500Y-11338750D01*
X17343500Y-11400625D02*
X17373500Y-11430625D01*
X17373500Y-11400625D02*
X17343500Y-11430625D01*
X17343500Y-11500625D02*
X17373500Y-11530625D01*
X17373500Y-11500625D02*
X17343500Y-11530625D01*
X17359750Y-11858750D02*
X17389750Y-11888750D01*
X17389750Y-11858750D02*
X17359750Y-11888750D01*
X17359750Y-11933750D02*
X17389750Y-11963750D01*
X17389750Y-11933750D02*
X17359750Y-11963750D01*
X17385000Y-5065000D02*
X17415000Y-5095000D01*
X17415000Y-5065000D02*
X17385000Y-5095000D01*
X17385000Y-5215000D02*
X17415000Y-5245000D01*
X17415000Y-5215000D02*
X17385000Y-5245000D01*
X17385000Y-14785000D02*
X17415000Y-14815000D01*
X17415000Y-14785000D02*
X17385000Y-14815000D01*
X17399750Y-12487500D02*
X17429750Y-12517500D01*
X17429750Y-12487500D02*
X17399750Y-12517500D01*
X17399750Y-12616250D02*
X17429750Y-12646250D01*
X17429750Y-12616250D02*
X17399750Y-12646250D01*
X17411000Y-10886250D02*
X17441000Y-10916250D01*
X17441000Y-10886250D02*
X17411000Y-10916250D01*
X17411000Y-10961250D02*
X17441000Y-10991250D01*
X17441000Y-10961250D02*
X17411000Y-10991250D01*
X17434141Y-10017886D02*
X17464141Y-10047886D01*
X17464141Y-10017886D02*
X17434141Y-10047886D01*
X17434750Y-11858750D02*
X17464750Y-11888750D01*
X17464750Y-11858750D02*
X17434750Y-11888750D01*
X17434750Y-11933750D02*
X17464750Y-11963750D01*
X17464750Y-11933750D02*
X17434750Y-11963750D01*
X17485000Y-5065000D02*
X17515000Y-5095000D01*
X17515000Y-5065000D02*
X17485000Y-5095000D01*
X17485000Y-5215000D02*
X17515000Y-5245000D01*
X17515000Y-5215000D02*
X17485000Y-5245000D01*
X17485000Y-14585000D02*
X17515000Y-14615000D01*
X17515000Y-14585000D02*
X17485000Y-14615000D01*
X17488973Y-9860727D02*
X17518973Y-9890727D01*
X17518973Y-9860727D02*
X17488973Y-9890727D01*
X17543450Y-10392607D02*
X17573450Y-10422607D01*
X17573450Y-10392607D02*
X17543450Y-10422607D01*
X17576600Y-10614501D02*
X17606600Y-10644501D01*
X17606600Y-10614501D02*
X17576600Y-10644501D01*
X17585000Y-5065000D02*
X17615000Y-5095000D01*
X17615000Y-5065000D02*
X17585000Y-5095000D01*
X17585000Y-5215000D02*
X17615000Y-5245000D01*
X17615000Y-5215000D02*
X17585000Y-5245000D01*
X17585000Y-14785000D02*
X17615000Y-14815000D01*
X17615000Y-14785000D02*
X17585000Y-14815000D01*
X17676000Y-10886250D02*
X17706000Y-10916250D01*
X17706000Y-10886250D02*
X17676000Y-10916250D01*
X17676000Y-10961250D02*
X17706000Y-10991250D01*
X17706000Y-10961250D02*
X17676000Y-10991250D01*
X17683500Y-11308750D02*
X17713500Y-11338750D01*
X17713500Y-11308750D02*
X17683500Y-11338750D01*
X17683500Y-11400625D02*
X17713500Y-11430625D01*
X17713500Y-11400625D02*
X17683500Y-11430625D01*
X17683500Y-11500625D02*
X17713500Y-11530625D01*
X17713500Y-11500625D02*
X17683500Y-11530625D01*
X17685000Y-14585000D02*
X17715000Y-14615000D01*
X17715000Y-14585000D02*
X17685000Y-14615000D01*
X17699750Y-11858750D02*
X17729750Y-11888750D01*
X17729750Y-11858750D02*
X17699750Y-11888750D01*
X17699750Y-11933750D02*
X17729750Y-11963750D01*
X17729750Y-11933750D02*
X17699750Y-11963750D01*
X17739750Y-12487500D02*
X17769750Y-12517500D01*
X17769750Y-12487500D02*
X17739750Y-12517500D01*
X17739750Y-12616250D02*
X17769750Y-12646250D01*
X17769750Y-12616250D02*
X17739750Y-12646250D01*
X17751000Y-10886250D02*
X17781000Y-10916250D01*
X17781000Y-10886250D02*
X17751000Y-10916250D01*
X17751000Y-10961250D02*
X17781000Y-10991250D01*
X17781000Y-10961250D02*
X17751000Y-10991250D01*
X17774750Y-11858750D02*
X17804750Y-11888750D01*
X17804750Y-11858750D02*
X17774750Y-11888750D01*
X17774750Y-11933750D02*
X17804750Y-11963750D01*
X17804750Y-11933750D02*
X17774750Y-11963750D01*
X17780756Y-9814244D02*
X17810756Y-9844244D01*
X17810756Y-9814244D02*
X17780756Y-9844244D01*
X17785000Y-14785000D02*
X17815000Y-14815000D01*
X17815000Y-14785000D02*
X17785000Y-14815000D01*
X17810000Y-8135000D02*
X17840000Y-8165000D01*
X17840000Y-8135000D02*
X17810000Y-8165000D01*
X17831977Y-7927027D02*
X17861977Y-7957027D01*
X17861977Y-7927027D02*
X17831977Y-7957027D01*
X17885000Y-14585000D02*
X17915000Y-14615000D01*
X17915000Y-14585000D02*
X17885000Y-14615000D01*
X17934750Y-10551250D02*
X17964750Y-10581250D01*
X17964750Y-10551250D02*
X17934750Y-10581250D01*
X17960000Y-9635000D02*
X17990000Y-9665000D01*
X17990000Y-9635000D02*
X17960000Y-9665000D01*
X17985000Y-13985000D02*
X18015000Y-14015000D01*
X18015000Y-13985000D02*
X17985000Y-14015000D01*
X17985000Y-14785000D02*
X18015000Y-14815000D01*
X18015000Y-14785000D02*
X17985000Y-14815000D01*
X18009750Y-10551250D02*
X18039750Y-10581250D01*
X18039750Y-10551250D02*
X18009750Y-10581250D01*
X18016000Y-10886250D02*
X18046000Y-10916250D01*
X18046000Y-10886250D02*
X18016000Y-10916250D01*
X18016000Y-10961250D02*
X18046000Y-10991250D01*
X18046000Y-10961250D02*
X18016000Y-10991250D01*
X18023500Y-11308750D02*
X18053500Y-11338750D01*
X18053500Y-11308750D02*
X18023500Y-11338750D01*
X18023500Y-11400625D02*
X18053500Y-11430625D01*
X18053500Y-11400625D02*
X18023500Y-11430625D01*
X18023500Y-11500625D02*
X18053500Y-11530625D01*
X18053500Y-11500625D02*
X18023500Y-11530625D01*
X18039750Y-11858750D02*
X18069750Y-11888750D01*
X18069750Y-11858750D02*
X18039750Y-11888750D01*
X18039750Y-11933750D02*
X18069750Y-11963750D01*
X18069750Y-11933750D02*
X18039750Y-11963750D01*
X18060000Y-9910000D02*
X18090000Y-9940000D01*
X18090000Y-9910000D02*
X18060000Y-9940000D01*
X18079750Y-12487500D02*
X18109750Y-12517500D01*
X18109750Y-12487500D02*
X18079750Y-12517500D01*
X18079750Y-12616250D02*
X18109750Y-12646250D01*
X18109750Y-12616250D02*
X18079750Y-12646250D01*
X18085000Y-13885000D02*
X18115000Y-13915000D01*
X18115000Y-13885000D02*
X18085000Y-13915000D01*
X18085000Y-14185000D02*
X18115000Y-14215000D01*
X18115000Y-14185000D02*
X18085000Y-14215000D01*
X18085000Y-14585000D02*
X18115000Y-14615000D01*
X18115000Y-14585000D02*
X18085000Y-14615000D01*
X18091000Y-10886250D02*
X18121000Y-10916250D01*
X18121000Y-10886250D02*
X18091000Y-10916250D01*
X18091000Y-10961250D02*
X18121000Y-10991250D01*
X18121000Y-10961250D02*
X18091000Y-10991250D01*
X18114750Y-11858750D02*
X18144750Y-11888750D01*
X18144750Y-11858750D02*
X18114750Y-11888750D01*
X18114750Y-11933750D02*
X18144750Y-11963750D01*
X18144750Y-11933750D02*
X18114750Y-11963750D01*
X18185000Y-13985000D02*
X18215000Y-14015000D01*
X18215000Y-13985000D02*
X18185000Y-14015000D01*
X18185000Y-14385000D02*
X18215000Y-14415000D01*
X18215000Y-14385000D02*
X18185000Y-14415000D01*
X18185000Y-14785000D02*
X18215000Y-14815000D01*
X18215000Y-14785000D02*
X18185000Y-14815000D01*
X18285000Y-13885000D02*
X18315000Y-13915000D01*
X18315000Y-13885000D02*
X18285000Y-13915000D01*
X18285000Y-14185000D02*
X18315000Y-14215000D01*
X18315000Y-14185000D02*
X18285000Y-14215000D01*
X18285000Y-14585000D02*
X18315000Y-14615000D01*
X18315000Y-14585000D02*
X18285000Y-14615000D01*
X18356000Y-10886250D02*
X18386000Y-10916250D01*
X18386000Y-10886250D02*
X18356000Y-10916250D01*
X18356000Y-10961250D02*
X18386000Y-10991250D01*
X18386000Y-10961250D02*
X18356000Y-10991250D01*
X18363500Y-11308750D02*
X18393500Y-11338750D01*
X18393500Y-11308750D02*
X18363500Y-11338750D01*
X18363500Y-11400625D02*
X18393500Y-11430625D01*
X18393500Y-11400625D02*
X18363500Y-11430625D01*
X18363500Y-11500625D02*
X18393500Y-11530625D01*
X18393500Y-11500625D02*
X18363500Y-11530625D01*
X18379750Y-11858750D02*
X18409750Y-11888750D01*
X18409750Y-11858750D02*
X18379750Y-11888750D01*
X18379750Y-11933750D02*
X18409750Y-11963750D01*
X18409750Y-11933750D02*
X18379750Y-11963750D01*
X18384750Y-9851250D02*
X18414750Y-9881250D01*
X18414750Y-9851250D02*
X18384750Y-9881250D01*
X18385000Y-13985000D02*
X18415000Y-14015000D01*
X18415000Y-13985000D02*
X18385000Y-14015000D01*
X18385000Y-14385000D02*
X18415000Y-14415000D01*
X18415000Y-14385000D02*
X18385000Y-14415000D01*
X18385000Y-14785000D02*
X18415000Y-14815000D01*
X18415000Y-14785000D02*
X18385000Y-14815000D01*
X18419750Y-12487500D02*
X18449750Y-12517500D01*
X18449750Y-12487500D02*
X18419750Y-12517500D01*
X18419750Y-12616250D02*
X18449750Y-12646250D01*
X18449750Y-12616250D02*
X18419750Y-12646250D01*
X18431000Y-10886250D02*
X18461000Y-10916250D01*
X18461000Y-10886250D02*
X18431000Y-10916250D01*
X18431000Y-10961250D02*
X18461000Y-10991250D01*
X18461000Y-10961250D02*
X18431000Y-10991250D01*
X18454750Y-11858750D02*
X18484750Y-11888750D01*
X18484750Y-11858750D02*
X18454750Y-11888750D01*
X18454750Y-11933750D02*
X18484750Y-11963750D01*
X18484750Y-11933750D02*
X18454750Y-11963750D01*
X18485000Y-13885000D02*
X18515000Y-13915000D01*
X18515000Y-13885000D02*
X18485000Y-13915000D01*
X18485000Y-14585000D02*
X18515000Y-14615000D01*
X18515000Y-14585000D02*
X18485000Y-14615000D01*
X18560000Y-8660000D02*
X18590000Y-8690000D01*
X18590000Y-8660000D02*
X18560000Y-8690000D01*
X18585000Y-14785000D02*
X18615000Y-14815000D01*
X18615000Y-14785000D02*
X18585000Y-14815000D01*
X18685000Y-14585000D02*
X18715000Y-14615000D01*
X18715000Y-14585000D02*
X18685000Y-14615000D01*
X18696000Y-10886250D02*
X18726000Y-10916250D01*
X18726000Y-10886250D02*
X18696000Y-10916250D01*
X18696000Y-10961250D02*
X18726000Y-10991250D01*
X18726000Y-10961250D02*
X18696000Y-10991250D01*
X18703500Y-11308750D02*
X18733500Y-11338750D01*
X18733500Y-11308750D02*
X18703500Y-11338750D01*
X18703500Y-11400625D02*
X18733500Y-11430625D01*
X18733500Y-11400625D02*
X18703500Y-11430625D01*
X18703500Y-11500625D02*
X18733500Y-11530625D01*
X18733500Y-11500625D02*
X18703500Y-11530625D01*
X18714950Y-8410000D02*
X18744950Y-8440000D01*
X18744950Y-8410000D02*
X18714950Y-8440000D01*
X18719750Y-11858750D02*
X18749750Y-11888750D01*
X18749750Y-11858750D02*
X18719750Y-11888750D01*
X18719750Y-11933750D02*
X18749750Y-11963750D01*
X18749750Y-11933750D02*
X18719750Y-11963750D01*
X18759750Y-12487500D02*
X18789750Y-12517500D01*
X18789750Y-12487500D02*
X18759750Y-12517500D01*
X18759750Y-12616250D02*
X18789750Y-12646250D01*
X18789750Y-12616250D02*
X18759750Y-12646250D01*
X18771000Y-10886250D02*
X18801000Y-10916250D01*
X18801000Y-10886250D02*
X18771000Y-10916250D01*
X18771000Y-10961250D02*
X18801000Y-10991250D01*
X18801000Y-10961250D02*
X18771000Y-10991250D01*
X18785000Y-14785000D02*
X18815000Y-14815000D01*
X18815000Y-14785000D02*
X18785000Y-14815000D01*
X18789900Y-8160000D02*
X18819900Y-8190000D01*
X18819900Y-8160000D02*
X18789900Y-8190000D01*
X18794750Y-11858750D02*
X18824750Y-11888750D01*
X18824750Y-11858750D02*
X18794750Y-11888750D01*
X18794750Y-11933750D02*
X18824750Y-11963750D01*
X18824750Y-11933750D02*
X18794750Y-11963750D01*
X18885000Y-14585000D02*
X18915000Y-14615000D01*
X18915000Y-14585000D02*
X18885000Y-14615000D01*
X18934750Y-10241300D02*
X18964750Y-10271300D01*
X18964750Y-10241300D02*
X18934750Y-10271300D01*
X18985000Y-14785000D02*
X19015000Y-14815000D01*
X19015000Y-14785000D02*
X18985000Y-14815000D01*
X19034750Y-9551250D02*
X19064750Y-9581250D01*
X19064750Y-9551250D02*
X19034750Y-9581250D01*
X19034750Y-9626250D02*
X19064750Y-9656250D01*
X19064750Y-9626250D02*
X19034750Y-9656250D01*
X19036000Y-10886250D02*
X19066000Y-10916250D01*
X19066000Y-10886250D02*
X19036000Y-10916250D01*
X19036000Y-10961250D02*
X19066000Y-10991250D01*
X19066000Y-10961250D02*
X19036000Y-10991250D01*
X19041050Y-9926250D02*
X19071050Y-9956250D01*
X19071050Y-9926250D02*
X19041050Y-9956250D01*
X19043500Y-11308750D02*
X19073500Y-11338750D01*
X19073500Y-11308750D02*
X19043500Y-11338750D01*
X19043500Y-11400625D02*
X19073500Y-11430625D01*
X19073500Y-11400625D02*
X19043500Y-11430625D01*
X19043500Y-11500625D02*
X19073500Y-11530625D01*
X19073500Y-11500625D02*
X19043500Y-11530625D01*
X19059750Y-11858750D02*
X19089750Y-11888750D01*
X19089750Y-11858750D02*
X19059750Y-11888750D01*
X19059750Y-11933750D02*
X19089750Y-11963750D01*
X19089750Y-11933750D02*
X19059750Y-11963750D01*
X19085000Y-6385000D02*
X19115000Y-6415000D01*
X19115000Y-6385000D02*
X19085000Y-6415000D01*
X19085000Y-6585000D02*
X19115000Y-6615000D01*
X19115000Y-6585000D02*
X19085000Y-6615000D01*
X19085000Y-6785000D02*
X19115000Y-6815000D01*
X19115000Y-6785000D02*
X19085000Y-6815000D01*
X19085000Y-6985000D02*
X19115000Y-7015000D01*
X19115000Y-6985000D02*
X19085000Y-7015000D01*
X19085000Y-7385000D02*
X19115000Y-7415000D01*
X19115000Y-7385000D02*
X19085000Y-7415000D01*
X19085000Y-7585000D02*
X19115000Y-7615000D01*
X19115000Y-7585000D02*
X19085000Y-7615000D01*
X19085000Y-7785000D02*
X19115000Y-7815000D01*
X19115000Y-7785000D02*
X19085000Y-7815000D01*
X19085000Y-14585000D02*
X19115000Y-14615000D01*
X19115000Y-14585000D02*
X19085000Y-14615000D01*
X19099750Y-12487500D02*
X19129750Y-12517500D01*
X19129750Y-12487500D02*
X19099750Y-12517500D01*
X19099750Y-12616250D02*
X19129750Y-12646250D01*
X19129750Y-12616250D02*
X19099750Y-12646250D01*
X19111000Y-10886250D02*
X19141000Y-10916250D01*
X19141000Y-10886250D02*
X19111000Y-10916250D01*
X19111000Y-10961250D02*
X19141000Y-10991250D01*
X19141000Y-10961250D02*
X19111000Y-10991250D01*
X19134750Y-11858750D02*
X19164750Y-11888750D01*
X19164750Y-11858750D02*
X19134750Y-11888750D01*
X19134750Y-11933750D02*
X19164750Y-11963750D01*
X19164750Y-11933750D02*
X19134750Y-11963750D01*
X19185000Y-6285000D02*
X19215000Y-6315000D01*
X19215000Y-6285000D02*
X19185000Y-6315000D01*
X19185000Y-6485000D02*
X19215000Y-6515000D01*
X19215000Y-6485000D02*
X19185000Y-6515000D01*
X19185000Y-6685000D02*
X19215000Y-6715000D01*
X19215000Y-6685000D02*
X19185000Y-6715000D01*
X19185000Y-6885000D02*
X19215000Y-6915000D01*
X19215000Y-6885000D02*
X19185000Y-6915000D01*
X19185000Y-7085000D02*
X19215000Y-7115000D01*
X19215000Y-7085000D02*
X19185000Y-7115000D01*
X19185000Y-14785000D02*
X19215000Y-14815000D01*
X19215000Y-14785000D02*
X19185000Y-14815000D01*
X19272250Y-8532500D02*
X19302250Y-8562500D01*
X19302250Y-8532500D02*
X19272250Y-8562500D01*
X19272250Y-8607500D02*
X19302250Y-8637500D01*
X19302250Y-8607500D02*
X19272250Y-8637500D01*
X19279750Y-8955000D02*
X19309750Y-8985000D01*
X19309750Y-8955000D02*
X19279750Y-8985000D01*
X19279750Y-9046875D02*
X19309750Y-9076875D01*
X19309750Y-9046875D02*
X19279750Y-9076875D01*
X19279750Y-9146875D02*
X19309750Y-9176875D01*
X19309750Y-9146875D02*
X19279750Y-9176875D01*
X19285000Y-6385000D02*
X19315000Y-6415000D01*
X19315000Y-6385000D02*
X19285000Y-6415000D01*
X19285000Y-6585000D02*
X19315000Y-6615000D01*
X19315000Y-6585000D02*
X19285000Y-6615000D01*
X19285000Y-6785000D02*
X19315000Y-6815000D01*
X19315000Y-6785000D02*
X19285000Y-6815000D01*
X19285000Y-6985000D02*
X19315000Y-7015000D01*
X19315000Y-6985000D02*
X19285000Y-7015000D01*
X19285000Y-7385000D02*
X19315000Y-7415000D01*
X19315000Y-7385000D02*
X19285000Y-7415000D01*
X19285000Y-7585000D02*
X19315000Y-7615000D01*
X19315000Y-7585000D02*
X19285000Y-7615000D01*
X19285000Y-7785000D02*
X19315000Y-7815000D01*
X19315000Y-7785000D02*
X19285000Y-7815000D01*
X19285000Y-14585000D02*
X19315000Y-14615000D01*
X19315000Y-14585000D02*
X19285000Y-14615000D01*
X19296000Y-9505000D02*
X19326000Y-9535000D01*
X19326000Y-9505000D02*
X19296000Y-9535000D01*
X19296000Y-9580000D02*
X19326000Y-9610000D01*
X19326000Y-9580000D02*
X19296000Y-9610000D01*
X19336000Y-10133750D02*
X19366000Y-10163750D01*
X19366000Y-10133750D02*
X19336000Y-10163750D01*
X19336000Y-10262500D02*
X19366000Y-10292500D01*
X19366000Y-10262500D02*
X19336000Y-10292500D01*
X19347250Y-8532500D02*
X19377250Y-8562500D01*
X19377250Y-8532500D02*
X19347250Y-8562500D01*
X19347250Y-8607500D02*
X19377250Y-8637500D01*
X19377250Y-8607500D02*
X19347250Y-8637500D01*
X19371000Y-9505000D02*
X19401000Y-9535000D01*
X19401000Y-9505000D02*
X19371000Y-9535000D01*
X19371000Y-9580000D02*
X19401000Y-9610000D01*
X19401000Y-9580000D02*
X19371000Y-9610000D01*
X19376000Y-10886250D02*
X19406000Y-10916250D01*
X19406000Y-10886250D02*
X19376000Y-10916250D01*
X19376000Y-10961250D02*
X19406000Y-10991250D01*
X19406000Y-10961250D02*
X19376000Y-10991250D01*
X19383500Y-11308750D02*
X19413500Y-11338750D01*
X19413500Y-11308750D02*
X19383500Y-11338750D01*
X19383500Y-11400625D02*
X19413500Y-11430625D01*
X19413500Y-11400625D02*
X19383500Y-11430625D01*
X19383500Y-11500625D02*
X19413500Y-11530625D01*
X19413500Y-11500625D02*
X19383500Y-11530625D01*
X19385000Y-6285000D02*
X19415000Y-6315000D01*
X19415000Y-6285000D02*
X19385000Y-6315000D01*
X19385000Y-6485000D02*
X19415000Y-6515000D01*
X19415000Y-6485000D02*
X19385000Y-6515000D01*
X19385000Y-6685000D02*
X19415000Y-6715000D01*
X19415000Y-6685000D02*
X19385000Y-6715000D01*
X19385000Y-6885000D02*
X19415000Y-6915000D01*
X19415000Y-6885000D02*
X19385000Y-6915000D01*
X19385000Y-7085000D02*
X19415000Y-7115000D01*
X19415000Y-7085000D02*
X19385000Y-7115000D01*
X19385000Y-14785000D02*
X19415000Y-14815000D01*
X19415000Y-14785000D02*
X19385000Y-14815000D01*
X19399750Y-11858750D02*
X19429750Y-11888750D01*
X19429750Y-11858750D02*
X19399750Y-11888750D01*
X19399750Y-11933750D02*
X19429750Y-11963750D01*
X19429750Y-11933750D02*
X19399750Y-11963750D01*
X19439750Y-12487500D02*
X19469750Y-12517500D01*
X19469750Y-12487500D02*
X19439750Y-12517500D01*
X19439750Y-12616250D02*
X19469750Y-12646250D01*
X19469750Y-12616250D02*
X19439750Y-12646250D01*
X19451000Y-10886250D02*
X19481000Y-10916250D01*
X19481000Y-10886250D02*
X19451000Y-10916250D01*
X19451000Y-10961250D02*
X19481000Y-10991250D01*
X19481000Y-10961250D02*
X19451000Y-10991250D01*
X19474750Y-11858750D02*
X19504750Y-11888750D01*
X19504750Y-11858750D02*
X19474750Y-11888750D01*
X19474750Y-11933750D02*
X19504750Y-11963750D01*
X19504750Y-11933750D02*
X19474750Y-11963750D01*
X19485000Y-6385000D02*
X19515000Y-6415000D01*
X19515000Y-6385000D02*
X19485000Y-6415000D01*
X19485000Y-6585000D02*
X19515000Y-6615000D01*
X19515000Y-6585000D02*
X19485000Y-6615000D01*
X19485000Y-6785000D02*
X19515000Y-6815000D01*
X19515000Y-6785000D02*
X19485000Y-6815000D01*
X19485000Y-6985000D02*
X19515000Y-7015000D01*
X19515000Y-6985000D02*
X19485000Y-7015000D01*
X19485000Y-7385000D02*
X19515000Y-7415000D01*
X19515000Y-7385000D02*
X19485000Y-7415000D01*
X19485000Y-7585000D02*
X19515000Y-7615000D01*
X19515000Y-7585000D02*
X19485000Y-7615000D01*
X19485000Y-7785000D02*
X19515000Y-7815000D01*
X19515000Y-7785000D02*
X19485000Y-7815000D01*
X19485000Y-13485000D02*
X19515000Y-13515000D01*
X19515000Y-13485000D02*
X19485000Y-13515000D01*
X19485000Y-13885000D02*
X19515000Y-13915000D01*
X19515000Y-13885000D02*
X19485000Y-13915000D01*
X19485000Y-14585000D02*
X19515000Y-14615000D01*
X19515000Y-14585000D02*
X19485000Y-14615000D01*
X19585000Y-6285000D02*
X19615000Y-6315000D01*
X19615000Y-6285000D02*
X19585000Y-6315000D01*
X19585000Y-6485000D02*
X19615000Y-6515000D01*
X19615000Y-6485000D02*
X19585000Y-6515000D01*
X19585000Y-6685000D02*
X19615000Y-6715000D01*
X19615000Y-6685000D02*
X19585000Y-6715000D01*
X19585000Y-6885000D02*
X19615000Y-6915000D01*
X19615000Y-6885000D02*
X19585000Y-6915000D01*
X19585000Y-7085000D02*
X19615000Y-7115000D01*
X19615000Y-7085000D02*
X19585000Y-7115000D01*
X19585000Y-13285000D02*
X19615000Y-13315000D01*
X19615000Y-13285000D02*
X19585000Y-13315000D01*
X19585000Y-13985000D02*
X19615000Y-14015000D01*
X19615000Y-13985000D02*
X19585000Y-14015000D01*
X19622250Y-8532500D02*
X19652250Y-8562500D01*
X19652250Y-8532500D02*
X19622250Y-8562500D01*
X19622250Y-8607500D02*
X19652250Y-8637500D01*
X19652250Y-8607500D02*
X19622250Y-8637500D01*
X19629750Y-8955000D02*
X19659750Y-8985000D01*
X19659750Y-8955000D02*
X19629750Y-8985000D01*
X19629750Y-9046875D02*
X19659750Y-9076875D01*
X19659750Y-9046875D02*
X19629750Y-9076875D01*
X19629750Y-9146875D02*
X19659750Y-9176875D01*
X19659750Y-9146875D02*
X19629750Y-9176875D01*
X19646000Y-9505000D02*
X19676000Y-9535000D01*
X19676000Y-9505000D02*
X19646000Y-9535000D01*
X19646000Y-9580000D02*
X19676000Y-9610000D01*
X19676000Y-9580000D02*
X19646000Y-9610000D01*
X19685000Y-6385000D02*
X19715000Y-6415000D01*
X19715000Y-6385000D02*
X19685000Y-6415000D01*
X19685000Y-6585000D02*
X19715000Y-6615000D01*
X19715000Y-6585000D02*
X19685000Y-6615000D01*
X19685000Y-6785000D02*
X19715000Y-6815000D01*
X19715000Y-6785000D02*
X19685000Y-6815000D01*
X19685000Y-6985000D02*
X19715000Y-7015000D01*
X19715000Y-6985000D02*
X19685000Y-7015000D01*
X19685000Y-7385000D02*
X19715000Y-7415000D01*
X19715000Y-7385000D02*
X19685000Y-7415000D01*
X19685000Y-7585000D02*
X19715000Y-7615000D01*
X19715000Y-7585000D02*
X19685000Y-7615000D01*
X19685000Y-7785000D02*
X19715000Y-7815000D01*
X19715000Y-7785000D02*
X19685000Y-7815000D01*
X19685000Y-13085000D02*
X19715000Y-13115000D01*
X19715000Y-13085000D02*
X19685000Y-13115000D01*
X19685000Y-13885000D02*
X19715000Y-13915000D01*
X19715000Y-13885000D02*
X19685000Y-13915000D01*
X19686000Y-10133750D02*
X19716000Y-10163750D01*
X19716000Y-10133750D02*
X19686000Y-10163750D01*
X19686000Y-10262500D02*
X19716000Y-10292500D01*
X19716000Y-10262500D02*
X19686000Y-10292500D01*
X19697250Y-8532500D02*
X19727250Y-8562500D01*
X19727250Y-8532500D02*
X19697250Y-8562500D01*
X19697250Y-8607500D02*
X19727250Y-8637500D01*
X19727250Y-8607500D02*
X19697250Y-8637500D01*
X19721000Y-9505000D02*
X19751000Y-9535000D01*
X19751000Y-9505000D02*
X19721000Y-9535000D01*
X19721000Y-9580000D02*
X19751000Y-9610000D01*
X19751000Y-9580000D02*
X19721000Y-9610000D01*
X19785000Y-13285000D02*
X19815000Y-13315000D01*
X19815000Y-13285000D02*
X19785000Y-13315000D01*
X19785000Y-13985000D02*
X19815000Y-14015000D01*
X19815000Y-13985000D02*
X19785000Y-14015000D01*
X19837957Y-10476036D02*
X19867957Y-10506036D01*
X19867957Y-10476036D02*
X19837957Y-10506036D01*
X19885000Y-13885000D02*
X19915000Y-13915000D01*
X19915000Y-13885000D02*
X19885000Y-13915000D01*
D13*
X15901500Y-5700000D02*
G75*
G03*
X15901500Y-5700000I-16500J0D01*
G01*
X15901500Y-5830000D02*
G75*
G03*
X15901500Y-5830000I-16500J0D01*
G01*
X15901500Y-5960000D02*
G75*
G03*
X15901500Y-5960000I-16500J0D01*
G01*
X16031500Y-5700000D02*
G75*
G03*
X16031500Y-5700000I-16500J0D01*
G01*
X16031500Y-5830000D02*
G75*
G03*
X16031500Y-5830000I-16500J0D01*
G01*
X16031500Y-5960000D02*
G75*
G03*
X16031500Y-5960000I-16500J0D01*
G01*
D14*
X10110000Y-14285000D02*
X10110000Y-14335000D01*
X10085000Y-14310000D02*
X10135000Y-14310000D01*
D11*
X10135000Y-14370000D02*
X10135000Y-14250000D01*
X10085000Y-14370000D02*
X10085000Y-14250000D01*
X10135000Y-14250000D02*
G75*
G03*
X10085000Y-14250000I-25000J0D01*
G01*
X10085000Y-14370000D02*
G75*
G03*
X10135000Y-14370000I25000J0D01*
G01*
D14*
X10260000Y-5475000D02*
X10260000Y-5525000D01*
X10235000Y-5500000D02*
X10285000Y-5500000D01*
X10330294Y-5305294D02*
X10330294Y-5355294D01*
X10305294Y-5330294D02*
X10355294Y-5330294D01*
X10330294Y-5644706D02*
X10330294Y-5694706D01*
X10305294Y-5669706D02*
X10355294Y-5669706D01*
X10500000Y-5235000D02*
X10500000Y-5285000D01*
X10475000Y-5260000D02*
X10525000Y-5260000D01*
X10500000Y-5715000D02*
X10500000Y-5765000D01*
X10475000Y-5740000D02*
X10525000Y-5740000D01*
X10669706Y-5305294D02*
X10669706Y-5355294D01*
X10644706Y-5330294D02*
X10694706Y-5330294D01*
X10669706Y-5644706D02*
X10669706Y-5694706D01*
X10644706Y-5669706D02*
X10694706Y-5669706D01*
X10740000Y-5475000D02*
X10740000Y-5525000D01*
X10715000Y-5500000D02*
X10765000Y-5500000D01*
X11470000Y-13226000D02*
X11470000Y-13276000D01*
X11445000Y-13251000D02*
X11495000Y-13251000D01*
X11540294Y-13056294D02*
X11540294Y-13106294D01*
X11515294Y-13081294D02*
X11565294Y-13081294D01*
X11540294Y-13395706D02*
X11540294Y-13445706D01*
X11515294Y-13420706D02*
X11565294Y-13420706D01*
X11710000Y-12986000D02*
X11710000Y-13036000D01*
X11685000Y-13011000D02*
X11735000Y-13011000D01*
X11710000Y-13466000D02*
X11710000Y-13516000D01*
X11685000Y-13491000D02*
X11735000Y-13491000D01*
X11879706Y-13056294D02*
X11879706Y-13106294D01*
X11854706Y-13081294D02*
X11904706Y-13081294D01*
X11879706Y-13395706D02*
X11879706Y-13445706D01*
X11854706Y-13420706D02*
X11904706Y-13420706D01*
X11950000Y-13226000D02*
X11950000Y-13276000D01*
X11925000Y-13251000D02*
X11975000Y-13251000D01*
X13300000Y-14285000D02*
X13300000Y-14335000D01*
X13275000Y-14310000D02*
X13325000Y-14310000D01*
D11*
X13325000Y-14370000D02*
X13325000Y-14250000D01*
X13275000Y-14370000D02*
X13275000Y-14250000D01*
X13325000Y-14250000D02*
G75*
G03*
X13275000Y-14250000I-25000J0D01*
G01*
X13275000Y-14370000D02*
G75*
G03*
X13325000Y-14370000I25000J0D01*
G01*
D14*
X13405000Y-14285000D02*
X13405000Y-14335000D01*
X13380000Y-14310000D02*
X13430000Y-14310000D01*
D11*
X13430000Y-14370000D02*
X13430000Y-14250000D01*
X13380000Y-14370000D02*
X13380000Y-14250000D01*
X13430000Y-14250000D02*
G75*
G03*
X13380000Y-14250000I-25000J0D01*
G01*
X13380000Y-14370000D02*
G75*
G03*
X13430000Y-14370000I25000J0D01*
G01*
D14*
X14760000Y-5475000D02*
X14760000Y-5525000D01*
X14735000Y-5500000D02*
X14785000Y-5500000D01*
X14760000Y-13226000D02*
X14760000Y-13276000D01*
X14735000Y-13251000D02*
X14785000Y-13251000D01*
X14830294Y-5305294D02*
X14830294Y-5355294D01*
X14805294Y-5330294D02*
X14855294Y-5330294D01*
X14830294Y-5644706D02*
X14830294Y-5694706D01*
X14805294Y-5669706D02*
X14855294Y-5669706D01*
X14830294Y-13056294D02*
X14830294Y-13106294D01*
X14805294Y-13081294D02*
X14855294Y-13081294D01*
X14830294Y-13395706D02*
X14830294Y-13445706D01*
X14805294Y-13420706D02*
X14855294Y-13420706D01*
X15000000Y-5235000D02*
X15000000Y-5285000D01*
X14975000Y-5260000D02*
X15025000Y-5260000D01*
X15000000Y-5715000D02*
X15000000Y-5765000D01*
X14975000Y-5740000D02*
X15025000Y-5740000D01*
X15000000Y-12986000D02*
X15000000Y-13036000D01*
X14975000Y-13011000D02*
X15025000Y-13011000D01*
X15000000Y-13466000D02*
X15000000Y-13516000D01*
X14975000Y-13491000D02*
X15025000Y-13491000D01*
X15169706Y-5305294D02*
X15169706Y-5355294D01*
X15144706Y-5330294D02*
X15194706Y-5330294D01*
X15169706Y-5644706D02*
X15169706Y-5694706D01*
X15144706Y-5669706D02*
X15194706Y-5669706D01*
X15169706Y-13056294D02*
X15169706Y-13106294D01*
X15144706Y-13081294D02*
X15194706Y-13081294D01*
X15169706Y-13395706D02*
X15169706Y-13445706D01*
X15144706Y-13420706D02*
X15194706Y-13420706D01*
X15240000Y-5475000D02*
X15240000Y-5525000D01*
X15215000Y-5500000D02*
X15265000Y-5500000D01*
X15240000Y-13226000D02*
X15240000Y-13276000D01*
X15215000Y-13251000D02*
X15265000Y-13251000D01*
X16595000Y-14285000D02*
X16595000Y-14335000D01*
X16570000Y-14310000D02*
X16620000Y-14310000D01*
D11*
X16620000Y-14370000D02*
X16620000Y-14250000D01*
X16570000Y-14370000D02*
X16570000Y-14250000D01*
X16620000Y-14250000D02*
G75*
G03*
X16570000Y-14250000I-25000J0D01*
G01*
X16570000Y-14370000D02*
G75*
G03*
X16620000Y-14370000I25000J0D01*
G01*
D14*
X16700000Y-14285000D02*
X16700000Y-14335000D01*
X16675000Y-14310000D02*
X16725000Y-14310000D01*
D11*
X16725000Y-14370000D02*
X16725000Y-14250000D01*
X16675000Y-14370000D02*
X16675000Y-14250000D01*
X16725000Y-14250000D02*
G75*
G03*
X16675000Y-14250000I-25000J0D01*
G01*
X16675000Y-14370000D02*
G75*
G03*
X16725000Y-14370000I25000J0D01*
G01*
D14*
X18060000Y-13226000D02*
X18060000Y-13276000D01*
X18035000Y-13251000D02*
X18085000Y-13251000D01*
X18130294Y-13056294D02*
X18130294Y-13106294D01*
X18105294Y-13081294D02*
X18155294Y-13081294D01*
X18130294Y-13395706D02*
X18130294Y-13445706D01*
X18105294Y-13420706D02*
X18155294Y-13420706D01*
X18300000Y-12986000D02*
X18300000Y-13036000D01*
X18275000Y-13011000D02*
X18325000Y-13011000D01*
X18300000Y-13466000D02*
X18300000Y-13516000D01*
X18275000Y-13491000D02*
X18325000Y-13491000D01*
X18469706Y-13056294D02*
X18469706Y-13106294D01*
X18444706Y-13081294D02*
X18494706Y-13081294D01*
X18469706Y-13395706D02*
X18469706Y-13445706D01*
X18444706Y-13420706D02*
X18494706Y-13420706D01*
X18540000Y-13226000D02*
X18540000Y-13276000D01*
X18515000Y-13251000D02*
X18565000Y-13251000D01*
X19260000Y-5475000D02*
X19260000Y-5525000D01*
X19235000Y-5500000D02*
X19285000Y-5500000D01*
X19330294Y-5305294D02*
X19330294Y-5355294D01*
X19305294Y-5330294D02*
X19355294Y-5330294D01*
X19330294Y-5644706D02*
X19330294Y-5694706D01*
X19305294Y-5669706D02*
X19355294Y-5669706D01*
X19500000Y-5235000D02*
X19500000Y-5285000D01*
X19475000Y-5260000D02*
X19525000Y-5260000D01*
X19500000Y-5715000D02*
X19500000Y-5765000D01*
X19475000Y-5740000D02*
X19525000Y-5740000D01*
X19669706Y-5305294D02*
X19669706Y-5355294D01*
X19644706Y-5330294D02*
X19694706Y-5330294D01*
X19669706Y-5644706D02*
X19669706Y-5694706D01*
X19644706Y-5669706D02*
X19694706Y-5669706D01*
X19740000Y-5475000D02*
X19740000Y-5525000D01*
X19715000Y-5500000D02*
X19765000Y-5500000D01*
X19890000Y-14285000D02*
X19890000Y-14335000D01*
X19865000Y-14310000D02*
X19915000Y-14310000D01*
D11*
X19915000Y-14370000D02*
X19915000Y-14250000D01*
X19865000Y-14370000D02*
X19865000Y-14250000D01*
X19915000Y-14250000D02*
G75*
G03*
X19865000Y-14250000I-25000J0D01*
G01*
X19865000Y-14370000D02*
G75*
G03*
X19915000Y-14370000I25000J0D01*
G01*
D15*
X15805284Y-5308285D02*
X15805284Y-5251716D01*
X15748715Y-5251716D01*
X15748715Y-5308285D01*
X15805284Y-5308285D01*
X16059284Y-5308285D02*
X16059284Y-5251716D01*
X16002715Y-5251716D01*
X16002715Y-5308285D01*
X16059284Y-5308285D01*
X16313284Y-5308285D02*
X16313284Y-5251716D01*
X16256715Y-5251716D01*
X16256715Y-5308285D01*
X16313284Y-5308285D01*
D16*
X10233000Y-13784000D02*
X10278000Y-13739000D01*
X10233000Y-13694000D01*
X10188000Y-13739000D01*
X10233000Y-13784000D01*
X10462000Y-13784000D02*
X10507000Y-13739000D01*
X10462000Y-13694000D01*
X10417000Y-13739000D01*
X10462000Y-13784000D01*
X10563800Y-14266000D02*
X10608800Y-14221000D01*
X10563800Y-14176000D01*
X10518800Y-14221000D01*
X10563800Y-14266000D01*
X10665400Y-14444000D02*
X10710400Y-14399000D01*
X10665400Y-14354000D01*
X10620400Y-14399000D01*
X10665400Y-14444000D01*
X10767000Y-14266000D02*
X10812000Y-14221000D01*
X10767000Y-14176000D01*
X10722000Y-14221000D01*
X10767000Y-14266000D01*
X10868600Y-14444000D02*
X10913600Y-14399000D01*
X10868600Y-14354000D01*
X10823600Y-14399000D01*
X10868600Y-14444000D01*
X10970200Y-14266000D02*
X11015200Y-14221000D01*
X10970200Y-14176000D01*
X10925200Y-14221000D01*
X10970200Y-14266000D01*
X11071800Y-14444000D02*
X11116800Y-14399000D01*
X11071800Y-14354000D01*
X11026800Y-14399000D01*
X11071800Y-14444000D01*
X11173400Y-14266000D02*
X11218400Y-14221000D01*
X11173400Y-14176000D01*
X11128400Y-14221000D01*
X11173400Y-14266000D01*
X11275000Y-14444000D02*
X11320000Y-14399000D01*
X11275000Y-14354000D01*
X11230000Y-14399000D01*
X11275000Y-14444000D01*
X11376000Y-13784000D02*
X11421000Y-13739000D01*
X11376000Y-13694000D01*
X11331000Y-13739000D01*
X11376000Y-13784000D01*
X11605000Y-13784000D02*
X11650000Y-13739000D01*
X11605000Y-13694000D01*
X11560000Y-13739000D01*
X11605000Y-13784000D01*
X11808000Y-13784000D02*
X11853000Y-13739000D01*
X11808000Y-13694000D01*
X11763000Y-13739000D01*
X11808000Y-13784000D01*
X12037000Y-13784000D02*
X12082000Y-13739000D01*
X12037000Y-13694000D01*
X11992000Y-13739000D01*
X12037000Y-13784000D01*
X12138800Y-14266000D02*
X12183800Y-14221000D01*
X12138800Y-14176000D01*
X12093800Y-14221000D01*
X12138800Y-14266000D01*
X12240400Y-14444000D02*
X12285400Y-14399000D01*
X12240400Y-14354000D01*
X12195400Y-14399000D01*
X12240400Y-14444000D01*
X12342000Y-14266000D02*
X12387000Y-14221000D01*
X12342000Y-14176000D01*
X12297000Y-14221000D01*
X12342000Y-14266000D01*
X12443600Y-14444000D02*
X12488600Y-14399000D01*
X12443600Y-14354000D01*
X12398600Y-14399000D01*
X12443600Y-14444000D01*
X12545200Y-14266000D02*
X12590200Y-14221000D01*
X12545200Y-14176000D01*
X12500200Y-14221000D01*
X12545200Y-14266000D01*
X12646800Y-14444000D02*
X12691800Y-14399000D01*
X12646800Y-14354000D01*
X12601800Y-14399000D01*
X12646800Y-14444000D01*
X12748400Y-14266000D02*
X12793400Y-14221000D01*
X12748400Y-14176000D01*
X12703400Y-14221000D01*
X12748400Y-14266000D01*
X12850000Y-14444000D02*
X12895000Y-14399000D01*
X12850000Y-14354000D01*
X12805000Y-14399000D01*
X12850000Y-14444000D01*
X12951000Y-13784000D02*
X12996000Y-13739000D01*
X12951000Y-13694000D01*
X12906000Y-13739000D01*
X12951000Y-13784000D01*
X13180000Y-13784000D02*
X13225000Y-13739000D01*
X13180000Y-13694000D01*
X13135000Y-13739000D01*
X13180000Y-13784000D01*
X13528000Y-13784000D02*
X13573000Y-13739000D01*
X13528000Y-13694000D01*
X13483000Y-13739000D01*
X13528000Y-13784000D01*
X13757000Y-13784000D02*
X13802000Y-13739000D01*
X13757000Y-13694000D01*
X13712000Y-13739000D01*
X13757000Y-13784000D01*
X13858800Y-14266000D02*
X13903800Y-14221000D01*
X13858800Y-14176000D01*
X13813800Y-14221000D01*
X13858800Y-14266000D01*
X13960400Y-14444000D02*
X14005400Y-14399000D01*
X13960400Y-14354000D01*
X13915400Y-14399000D01*
X13960400Y-14444000D01*
X14062000Y-14266000D02*
X14107000Y-14221000D01*
X14062000Y-14176000D01*
X14017000Y-14221000D01*
X14062000Y-14266000D01*
X14163600Y-14444000D02*
X14208600Y-14399000D01*
X14163600Y-14354000D01*
X14118600Y-14399000D01*
X14163600Y-14444000D01*
X14265200Y-14266000D02*
X14310200Y-14221000D01*
X14265200Y-14176000D01*
X14220200Y-14221000D01*
X14265200Y-14266000D01*
X14366800Y-14444000D02*
X14411800Y-14399000D01*
X14366800Y-14354000D01*
X14321800Y-14399000D01*
X14366800Y-14444000D01*
X14468400Y-14266000D02*
X14513400Y-14221000D01*
X14468400Y-14176000D01*
X14423400Y-14221000D01*
X14468400Y-14266000D01*
X14570000Y-14444000D02*
X14615000Y-14399000D01*
X14570000Y-14354000D01*
X14525000Y-14399000D01*
X14570000Y-14444000D01*
X14671000Y-13784000D02*
X14716000Y-13739000D01*
X14671000Y-13694000D01*
X14626000Y-13739000D01*
X14671000Y-13784000D01*
X14900000Y-13784000D02*
X14945000Y-13739000D01*
X14900000Y-13694000D01*
X14855000Y-13739000D01*
X14900000Y-13784000D01*
X15103000Y-13784000D02*
X15148000Y-13739000D01*
X15103000Y-13694000D01*
X15058000Y-13739000D01*
X15103000Y-13784000D01*
X15332000Y-13784000D02*
X15377000Y-13739000D01*
X15332000Y-13694000D01*
X15287000Y-13739000D01*
X15332000Y-13784000D01*
X15433800Y-14266000D02*
X15478800Y-14221000D01*
X15433800Y-14176000D01*
X15388800Y-14221000D01*
X15433800Y-14266000D01*
X15535400Y-14444000D02*
X15580400Y-14399000D01*
X15535400Y-14354000D01*
X15490400Y-14399000D01*
X15535400Y-14444000D01*
X15637000Y-14266000D02*
X15682000Y-14221000D01*
X15637000Y-14176000D01*
X15592000Y-14221000D01*
X15637000Y-14266000D01*
X15738600Y-14444000D02*
X15783600Y-14399000D01*
X15738600Y-14354000D01*
X15693600Y-14399000D01*
X15738600Y-14444000D01*
X15840200Y-14266000D02*
X15885200Y-14221000D01*
X15840200Y-14176000D01*
X15795200Y-14221000D01*
X15840200Y-14266000D01*
X15941800Y-14444000D02*
X15986800Y-14399000D01*
X15941800Y-14354000D01*
X15896800Y-14399000D01*
X15941800Y-14444000D01*
X16043400Y-14266000D02*
X16088400Y-14221000D01*
X16043400Y-14176000D01*
X15998400Y-14221000D01*
X16043400Y-14266000D01*
X16145000Y-14444000D02*
X16190000Y-14399000D01*
X16145000Y-14354000D01*
X16100000Y-14399000D01*
X16145000Y-14444000D01*
X16246000Y-13784000D02*
X16291000Y-13739000D01*
X16246000Y-13694000D01*
X16201000Y-13739000D01*
X16246000Y-13784000D01*
X16475000Y-13784000D02*
X16520000Y-13739000D01*
X16475000Y-13694000D01*
X16430000Y-13739000D01*
X16475000Y-13784000D01*
X16823000Y-13784000D02*
X16868000Y-13739000D01*
X16823000Y-13694000D01*
X16778000Y-13739000D01*
X16823000Y-13784000D01*
X17052000Y-13784000D02*
X17097000Y-13739000D01*
X17052000Y-13694000D01*
X17007000Y-13739000D01*
X17052000Y-13784000D01*
X17153800Y-14266000D02*
X17198800Y-14221000D01*
X17153800Y-14176000D01*
X17108800Y-14221000D01*
X17153800Y-14266000D01*
X17255400Y-14444000D02*
X17300400Y-14399000D01*
X17255400Y-14354000D01*
X17210400Y-14399000D01*
X17255400Y-14444000D01*
X17357000Y-14266000D02*
X17402000Y-14221000D01*
X17357000Y-14176000D01*
X17312000Y-14221000D01*
X17357000Y-14266000D01*
X17458600Y-14444000D02*
X17503600Y-14399000D01*
X17458600Y-14354000D01*
X17413600Y-14399000D01*
X17458600Y-14444000D01*
X17560200Y-14266000D02*
X17605200Y-14221000D01*
X17560200Y-14176000D01*
X17515200Y-14221000D01*
X17560200Y-14266000D01*
X17661800Y-14444000D02*
X17706800Y-14399000D01*
X17661800Y-14354000D01*
X17616800Y-14399000D01*
X17661800Y-14444000D01*
X17763400Y-14266000D02*
X17808400Y-14221000D01*
X17763400Y-14176000D01*
X17718400Y-14221000D01*
X17763400Y-14266000D01*
X17865000Y-14444000D02*
X17910000Y-14399000D01*
X17865000Y-14354000D01*
X17820000Y-14399000D01*
X17865000Y-14444000D01*
X17966000Y-13784000D02*
X18011000Y-13739000D01*
X17966000Y-13694000D01*
X17921000Y-13739000D01*
X17966000Y-13784000D01*
X18195000Y-13784000D02*
X18240000Y-13739000D01*
X18195000Y-13694000D01*
X18150000Y-13739000D01*
X18195000Y-13784000D01*
X18398000Y-13784000D02*
X18443000Y-13739000D01*
X18398000Y-13694000D01*
X18353000Y-13739000D01*
X18398000Y-13784000D01*
X18627000Y-13784000D02*
X18672000Y-13739000D01*
X18627000Y-13694000D01*
X18582000Y-13739000D01*
X18627000Y-13784000D01*
X18728800Y-14266000D02*
X18773800Y-14221000D01*
X18728800Y-14176000D01*
X18683800Y-14221000D01*
X18728800Y-14266000D01*
X18830400Y-14444000D02*
X18875400Y-14399000D01*
X18830400Y-14354000D01*
X18785400Y-14399000D01*
X18830400Y-14444000D01*
X18932000Y-14266000D02*
X18977000Y-14221000D01*
X18932000Y-14176000D01*
X18887000Y-14221000D01*
X18932000Y-14266000D01*
X19033600Y-14444000D02*
X19078600Y-14399000D01*
X19033600Y-14354000D01*
X18988600Y-14399000D01*
X19033600Y-14444000D01*
X19135200Y-14266000D02*
X19180200Y-14221000D01*
X19135200Y-14176000D01*
X19090200Y-14221000D01*
X19135200Y-14266000D01*
X19236800Y-14444000D02*
X19281800Y-14399000D01*
X19236800Y-14354000D01*
X19191800Y-14399000D01*
X19236800Y-14444000D01*
X19338400Y-14266000D02*
X19383400Y-14221000D01*
X19338400Y-14176000D01*
X19293400Y-14221000D01*
X19338400Y-14266000D01*
X19440000Y-14444000D02*
X19485000Y-14399000D01*
X19440000Y-14354000D01*
X19395000Y-14399000D01*
X19440000Y-14444000D01*
X19541000Y-13784000D02*
X19586000Y-13739000D01*
X19541000Y-13694000D01*
X19496000Y-13739000D01*
X19541000Y-13784000D01*
X19770000Y-13784000D02*
X19815000Y-13739000D01*
X19770000Y-13694000D01*
X19725000Y-13739000D01*
X19770000Y-13784000D01*
D10*
X11496000Y-7111000D02*
X11596000Y-7211000D01*
X11596000Y-7111000D02*
X11496000Y-7211000D01*
X11596000Y-7161000D02*
G75*
G03*
X11596000Y-7161000I-50000J0D01*
G01*
X11496000Y-7365000D02*
X11596000Y-7465000D01*
X11596000Y-7365000D02*
X11496000Y-7465000D01*
X11596000Y-7415000D02*
G75*
G03*
X11596000Y-7415000I-50000J0D01*
G01*
X11496000Y-7619000D02*
X11596000Y-7719000D01*
X11596000Y-7619000D02*
X11496000Y-7719000D01*
X11596000Y-7669000D02*
G75*
G03*
X11596000Y-7669000I-50000J0D01*
G01*
X11496000Y-7873000D02*
X11596000Y-7973000D01*
X11596000Y-7873000D02*
X11496000Y-7973000D01*
X11596000Y-7923000D02*
G75*
G03*
X11596000Y-7923000I-50000J0D01*
G01*
X11496000Y-8127000D02*
X11596000Y-8227000D01*
X11596000Y-8127000D02*
X11496000Y-8227000D01*
X11596000Y-8177000D02*
G75*
G03*
X11596000Y-8177000I-50000J0D01*
G01*
X11496000Y-8381000D02*
X11596000Y-8481000D01*
X11596000Y-8381000D02*
X11496000Y-8481000D01*
X11596000Y-8431000D02*
G75*
G03*
X11596000Y-8431000I-50000J0D01*
G01*
X11496000Y-8635000D02*
X11596000Y-8735000D01*
X11596000Y-8635000D02*
X11496000Y-8735000D01*
X11596000Y-8685000D02*
G75*
G03*
X11596000Y-8685000I-50000J0D01*
G01*
X11496000Y-8889000D02*
X11596000Y-8989000D01*
X11596000Y-8889000D02*
X11496000Y-8989000D01*
X11596000Y-8939000D02*
G75*
G03*
X11596000Y-8939000I-50000J0D01*
G01*
X11750000Y-7111000D02*
X11850000Y-7211000D01*
X11850000Y-7111000D02*
X11750000Y-7211000D01*
X11850000Y-7161000D02*
G75*
G03*
X11850000Y-7161000I-50000J0D01*
G01*
X11750000Y-7365000D02*
X11850000Y-7465000D01*
X11850000Y-7365000D02*
X11750000Y-7465000D01*
X11850000Y-7415000D02*
G75*
G03*
X11850000Y-7415000I-50000J0D01*
G01*
X11750000Y-7619000D02*
X11850000Y-7719000D01*
X11850000Y-7619000D02*
X11750000Y-7719000D01*
X11850000Y-7669000D02*
G75*
G03*
X11850000Y-7669000I-50000J0D01*
G01*
X11750000Y-7873000D02*
X11850000Y-7973000D01*
X11850000Y-7873000D02*
X11750000Y-7973000D01*
X11850000Y-7923000D02*
G75*
G03*
X11850000Y-7923000I-50000J0D01*
G01*
X11750000Y-8127000D02*
X11850000Y-8227000D01*
X11850000Y-8127000D02*
X11750000Y-8227000D01*
X11850000Y-8177000D02*
G75*
G03*
X11850000Y-8177000I-50000J0D01*
G01*
X11750000Y-8381000D02*
X11850000Y-8481000D01*
X11850000Y-8381000D02*
X11750000Y-8481000D01*
X11850000Y-8431000D02*
G75*
G03*
X11850000Y-8431000I-50000J0D01*
G01*
X11750000Y-8635000D02*
X11850000Y-8735000D01*
X11850000Y-8635000D02*
X11750000Y-8735000D01*
X11850000Y-8685000D02*
G75*
G03*
X11850000Y-8685000I-50000J0D01*
G01*
X11750000Y-8889000D02*
X11850000Y-8989000D01*
X11850000Y-8889000D02*
X11750000Y-8989000D01*
X11850000Y-8939000D02*
G75*
G03*
X11850000Y-8939000I-50000J0D01*
G01*
X13300000Y-5317500D02*
X13400000Y-5417500D01*
X13400000Y-5317500D02*
X13300000Y-5417500D01*
X13400000Y-5367500D02*
G75*
G03*
X13400000Y-5367500I-50000J0D01*
G01*
X14400000Y-5317500D02*
X14500000Y-5417500D01*
X14500000Y-5317500D02*
X14400000Y-5417500D01*
X14500000Y-5367500D02*
G75*
G03*
X14500000Y-5367500I-50000J0D01*
G01*
X17900000Y-5684500D02*
X18000000Y-5784500D01*
X18000000Y-5684500D02*
X17900000Y-5784500D01*
X18000000Y-5734500D02*
G75*
G03*
X18000000Y-5734500I-50000J0D01*
G01*
X17900000Y-5938500D02*
X18000000Y-6038500D01*
X18000000Y-5938500D02*
X17900000Y-6038500D01*
X18000000Y-5988500D02*
G75*
G03*
X18000000Y-5988500I-50000J0D01*
G01*
X17900000Y-6192500D02*
X18000000Y-6292500D01*
X18000000Y-6192500D02*
X17900000Y-6292500D01*
X18000000Y-6242500D02*
G75*
G03*
X18000000Y-6242500I-50000J0D01*
G01*
X18121250Y-7111000D02*
X18221250Y-7211000D01*
X18221250Y-7111000D02*
X18121250Y-7211000D01*
X18221250Y-7161000D02*
G75*
G03*
X18221250Y-7161000I-50000J0D01*
G01*
X18121250Y-7365000D02*
X18221250Y-7465000D01*
X18221250Y-7365000D02*
X18121250Y-7465000D01*
X18221250Y-7415000D02*
G75*
G03*
X18221250Y-7415000I-50000J0D01*
G01*
X18121250Y-7619000D02*
X18221250Y-7719000D01*
X18221250Y-7619000D02*
X18121250Y-7719000D01*
X18221250Y-7669000D02*
G75*
G03*
X18221250Y-7669000I-50000J0D01*
G01*
X18121250Y-7873000D02*
X18221250Y-7973000D01*
X18221250Y-7873000D02*
X18121250Y-7973000D01*
X18221250Y-7923000D02*
G75*
G03*
X18221250Y-7923000I-50000J0D01*
G01*
X18121250Y-8127000D02*
X18221250Y-8227000D01*
X18221250Y-8127000D02*
X18121250Y-8227000D01*
X18221250Y-8177000D02*
G75*
G03*
X18221250Y-8177000I-50000J0D01*
G01*
X18121250Y-8381000D02*
X18221250Y-8481000D01*
X18221250Y-8381000D02*
X18121250Y-8481000D01*
X18221250Y-8431000D02*
G75*
G03*
X18221250Y-8431000I-50000J0D01*
G01*
X18121250Y-8635000D02*
X18221250Y-8735000D01*
X18221250Y-8635000D02*
X18121250Y-8735000D01*
X18221250Y-8685000D02*
G75*
G03*
X18221250Y-8685000I-50000J0D01*
G01*
X18121250Y-8889000D02*
X18221250Y-8989000D01*
X18221250Y-8889000D02*
X18121250Y-8989000D01*
X18221250Y-8939000D02*
G75*
G03*
X18221250Y-8939000I-50000J0D01*
G01*
X18375250Y-7111000D02*
X18475250Y-7211000D01*
X18475250Y-7111000D02*
X18375250Y-7211000D01*
X18475250Y-7161000D02*
G75*
G03*
X18475250Y-7161000I-50000J0D01*
G01*
X18375250Y-7365000D02*
X18475250Y-7465000D01*
X18475250Y-7365000D02*
X18375250Y-7465000D01*
X18475250Y-7415000D02*
G75*
G03*
X18475250Y-7415000I-50000J0D01*
G01*
X18375250Y-7619000D02*
X18475250Y-7719000D01*
X18475250Y-7619000D02*
X18375250Y-7719000D01*
X18475250Y-7669000D02*
G75*
G03*
X18475250Y-7669000I-50000J0D01*
G01*
X18375250Y-7873000D02*
X18475250Y-7973000D01*
X18475250Y-7873000D02*
X18375250Y-7973000D01*
X18475250Y-7923000D02*
G75*
G03*
X18475250Y-7923000I-50000J0D01*
G01*
X18375250Y-8127000D02*
X18475250Y-8227000D01*
X18475250Y-8127000D02*
X18375250Y-8227000D01*
X18475250Y-8177000D02*
G75*
G03*
X18475250Y-8177000I-50000J0D01*
G01*
X18375250Y-8381000D02*
X18475250Y-8481000D01*
X18475250Y-8381000D02*
X18375250Y-8481000D01*
X18475250Y-8431000D02*
G75*
G03*
X18475250Y-8431000I-50000J0D01*
G01*
X18375250Y-8635000D02*
X18475250Y-8735000D01*
X18475250Y-8635000D02*
X18375250Y-8735000D01*
X18475250Y-8685000D02*
G75*
G03*
X18475250Y-8685000I-50000J0D01*
G01*
X18375250Y-8889000D02*
X18475250Y-8989000D01*
X18475250Y-8889000D02*
X18375250Y-8989000D01*
X18475250Y-8939000D02*
G75*
G03*
X18475250Y-8939000I-50000J0D01*
G01*
D17*
X16755000Y-6145000D02*
X16885000Y-6275000D01*
X16885000Y-6145000D02*
X16755000Y-6275000D01*
X16820000Y-6145000D02*
X16820000Y-6275000D01*
X16755000Y-6210000D02*
X16885000Y-6210000D01*
X17255000Y-6145000D02*
X17385000Y-6275000D01*
X17385000Y-6145000D02*
X17255000Y-6275000D01*
X17320000Y-6145000D02*
X17320000Y-6275000D01*
X17255000Y-6210000D02*
X17385000Y-6210000D01*
D18*
X13555000Y-6272500D02*
X13745000Y-6462500D01*
X13745000Y-6272500D02*
X13555000Y-6462500D01*
X13717176Y-6434676D02*
X13717176Y-6300324D01*
X13582824Y-6300324D01*
X13582824Y-6434676D01*
X13717176Y-6434676D01*
X14055000Y-6272500D02*
X14245000Y-6462500D01*
X14245000Y-6272500D02*
X14055000Y-6462500D01*
X14217176Y-6434676D02*
X14217176Y-6300324D01*
X14082824Y-6300324D01*
X14082824Y-6434676D01*
X14217176Y-6434676D01*
D19*
X10340000Y-5340000D02*
X10660000Y-5660000D01*
X10660000Y-5340000D02*
X10340000Y-5660000D01*
X10500000Y-5660000D02*
X10660000Y-5500000D01*
X10500000Y-5340000D01*
X10340000Y-5500000D01*
X10500000Y-5660000D01*
X11550000Y-13091000D02*
X11870000Y-13411000D01*
X11870000Y-13091000D02*
X11550000Y-13411000D01*
X11710000Y-13411000D02*
X11870000Y-13251000D01*
X11710000Y-13091000D01*
X11550000Y-13251000D01*
X11710000Y-13411000D01*
X14840000Y-5340000D02*
X15160000Y-5660000D01*
X15160000Y-5340000D02*
X14840000Y-5660000D01*
X15000000Y-5660000D02*
X15160000Y-5500000D01*
X15000000Y-5340000D01*
X14840000Y-5500000D01*
X15000000Y-5660000D01*
X14840000Y-13091000D02*
X15160000Y-13411000D01*
X15160000Y-13091000D02*
X14840000Y-13411000D01*
X15000000Y-13411000D02*
X15160000Y-13251000D01*
X15000000Y-13091000D01*
X14840000Y-13251000D01*
X15000000Y-13411000D01*
X18140000Y-13091000D02*
X18460000Y-13411000D01*
X18460000Y-13091000D02*
X18140000Y-13411000D01*
X18300000Y-13411000D02*
X18460000Y-13251000D01*
X18300000Y-13091000D01*
X18140000Y-13251000D01*
X18300000Y-13411000D01*
X19340000Y-5340000D02*
X19660000Y-5660000D01*
X19660000Y-5340000D02*
X19340000Y-5660000D01*
X19500000Y-5660000D02*
X19660000Y-5500000D01*
X19500000Y-5340000D01*
X19340000Y-5500000D01*
X19500000Y-5660000D01*
D11*
X10252619Y-15315476D02*
X10252619Y-15115476D01*
X10300238Y-15115476D01*
X10328810Y-15125000D01*
X10347857Y-15144048D01*
X10357381Y-15163095D01*
X10366905Y-15201190D01*
X10366905Y-15229762D01*
X10357381Y-15267857D01*
X10347857Y-15286905D01*
X10328810Y-15305952D01*
X10300238Y-15315476D01*
X10252619Y-15315476D01*
X10452619Y-15315476D02*
X10452619Y-15182143D01*
X10452619Y-15220238D02*
X10462143Y-15201190D01*
X10471667Y-15191667D01*
X10490714Y-15182143D01*
X10509762Y-15182143D01*
X10576429Y-15315476D02*
X10576429Y-15182143D01*
X10576429Y-15115476D02*
X10566905Y-15125000D01*
X10576429Y-15134524D01*
X10585952Y-15125000D01*
X10576429Y-15115476D01*
X10576429Y-15134524D01*
X10700238Y-15315476D02*
X10681190Y-15305952D01*
X10671667Y-15286905D01*
X10671667Y-15115476D01*
X10805000Y-15315476D02*
X10785952Y-15305952D01*
X10776429Y-15286905D01*
X10776429Y-15115476D01*
X11033571Y-15315476D02*
X11033571Y-15115476D01*
X11100238Y-15258333D01*
X11166905Y-15115476D01*
X11166905Y-15315476D01*
X11347857Y-15315476D02*
X11347857Y-15210714D01*
X11338333Y-15191667D01*
X11319286Y-15182143D01*
X11281190Y-15182143D01*
X11262143Y-15191667D01*
X11347857Y-15305952D02*
X11328809Y-15315476D01*
X11281190Y-15315476D01*
X11262143Y-15305952D01*
X11252619Y-15286905D01*
X11252619Y-15267857D01*
X11262143Y-15248809D01*
X11281190Y-15239286D01*
X11328809Y-15239286D01*
X11347857Y-15229762D01*
X11443095Y-15182143D02*
X11443095Y-15382143D01*
X11443095Y-15191667D02*
X11462143Y-15182143D01*
X11500238Y-15182143D01*
X11519286Y-15191667D01*
X11528809Y-15201190D01*
X11538333Y-15220238D01*
X11538333Y-15277381D01*
X11528809Y-15296428D01*
X11519286Y-15305952D01*
X11500238Y-15315476D01*
X11462143Y-15315476D01*
X11443095Y-15305952D01*
X11624048Y-15296428D02*
X11633571Y-15305952D01*
X11624048Y-15315476D01*
X11614524Y-15305952D01*
X11624048Y-15296428D01*
X11624048Y-15315476D01*
X11624048Y-15191667D02*
X11633571Y-15201190D01*
X11624048Y-15210714D01*
X11614524Y-15201190D01*
X11624048Y-15191667D01*
X11624048Y-15210714D01*
D12*
X9965000Y-15630000D02*
X9995000Y-15660000D01*
X9995000Y-15630000D02*
X9965000Y-15660000D01*
D11*
X10290714Y-15535476D02*
X10309762Y-15535476D01*
X10328810Y-15545000D01*
X10338333Y-15554524D01*
X10347857Y-15573571D01*
X10357381Y-15611667D01*
X10357381Y-15659286D01*
X10347857Y-15697381D01*
X10338333Y-15716428D01*
X10328810Y-15725952D01*
X10309762Y-15735476D01*
X10290714Y-15735476D01*
X10271667Y-15725952D01*
X10262143Y-15716428D01*
X10252619Y-15697381D01*
X10243095Y-15659286D01*
X10243095Y-15611667D01*
X10252619Y-15573571D01*
X10262143Y-15554524D01*
X10271667Y-15545000D01*
X10290714Y-15535476D01*
X10443095Y-15716428D02*
X10452619Y-15725952D01*
X10443095Y-15735476D01*
X10433571Y-15725952D01*
X10443095Y-15716428D01*
X10443095Y-15735476D01*
X10519286Y-15535476D02*
X10643095Y-15535476D01*
X10576429Y-15611667D01*
X10605000Y-15611667D01*
X10624048Y-15621190D01*
X10633571Y-15630714D01*
X10643095Y-15649762D01*
X10643095Y-15697381D01*
X10633571Y-15716428D01*
X10624048Y-15725952D01*
X10605000Y-15735476D01*
X10547857Y-15735476D01*
X10528810Y-15725952D01*
X10519286Y-15716428D01*
X10766905Y-15535476D02*
X10785952Y-15535476D01*
X10805000Y-15545000D01*
X10814524Y-15554524D01*
X10824048Y-15573571D01*
X10833571Y-15611667D01*
X10833571Y-15659286D01*
X10824048Y-15697381D01*
X10814524Y-15716428D01*
X10805000Y-15725952D01*
X10785952Y-15735476D01*
X10766905Y-15735476D01*
X10747857Y-15725952D01*
X10738333Y-15716428D01*
X10728810Y-15697381D01*
X10719286Y-15659286D01*
X10719286Y-15611667D01*
X10728810Y-15573571D01*
X10738333Y-15554524D01*
X10747857Y-15545000D01*
X10766905Y-15535476D01*
X10957381Y-15535476D02*
X10976429Y-15535476D01*
X10995476Y-15545000D01*
X11005000Y-15554524D01*
X11014524Y-15573571D01*
X11024048Y-15611667D01*
X11024048Y-15659286D01*
X11014524Y-15697381D01*
X11005000Y-15716428D01*
X10995476Y-15725952D01*
X10976429Y-15735476D01*
X10957381Y-15735476D01*
X10938333Y-15725952D01*
X10928810Y-15716428D01*
X10919286Y-15697381D01*
X10909762Y-15659286D01*
X10909762Y-15611667D01*
X10919286Y-15573571D01*
X10928810Y-15554524D01*
X10938333Y-15545000D01*
X10957381Y-15535476D01*
X11109762Y-15735476D02*
X11109762Y-15602143D01*
X11109762Y-15621190D02*
X11119286Y-15611667D01*
X11138333Y-15602143D01*
X11166905Y-15602143D01*
X11185952Y-15611667D01*
X11195476Y-15630714D01*
X11195476Y-15735476D01*
X11195476Y-15630714D02*
X11205000Y-15611667D01*
X11224048Y-15602143D01*
X11252619Y-15602143D01*
X11271667Y-15611667D01*
X11281190Y-15630714D01*
X11281190Y-15735476D01*
X11376428Y-15735476D02*
X11376428Y-15602143D01*
X11376428Y-15621190D02*
X11385952Y-15611667D01*
X11405000Y-15602143D01*
X11433571Y-15602143D01*
X11452619Y-15611667D01*
X11462143Y-15630714D01*
X11462143Y-15735476D01*
X11462143Y-15630714D02*
X11471667Y-15611667D01*
X11490714Y-15602143D01*
X11519286Y-15602143D01*
X11538333Y-15611667D01*
X11547857Y-15630714D01*
X11547857Y-15735476D01*
X11938333Y-15525952D02*
X11766905Y-15783095D01*
X12195476Y-15535476D02*
X12214524Y-15535476D01*
X12233571Y-15545000D01*
X12243095Y-15554524D01*
X12252619Y-15573571D01*
X12262143Y-15611667D01*
X12262143Y-15659286D01*
X12252619Y-15697381D01*
X12243095Y-15716428D01*
X12233571Y-15725952D01*
X12214524Y-15735476D01*
X12195476Y-15735476D01*
X12176428Y-15725952D01*
X12166905Y-15716428D01*
X12157381Y-15697381D01*
X12147857Y-15659286D01*
X12147857Y-15611667D01*
X12157381Y-15573571D01*
X12166905Y-15554524D01*
X12176428Y-15545000D01*
X12195476Y-15535476D01*
X12347857Y-15716428D02*
X12357381Y-15725952D01*
X12347857Y-15735476D01*
X12338333Y-15725952D01*
X12347857Y-15716428D01*
X12347857Y-15735476D01*
X12481190Y-15535476D02*
X12500238Y-15535476D01*
X12519286Y-15545000D01*
X12528809Y-15554524D01*
X12538333Y-15573571D01*
X12547857Y-15611667D01*
X12547857Y-15659286D01*
X12538333Y-15697381D01*
X12528809Y-15716428D01*
X12519286Y-15725952D01*
X12500238Y-15735476D01*
X12481190Y-15735476D01*
X12462143Y-15725952D01*
X12452619Y-15716428D01*
X12443095Y-15697381D01*
X12433571Y-15659286D01*
X12433571Y-15611667D01*
X12443095Y-15573571D01*
X12452619Y-15554524D01*
X12462143Y-15545000D01*
X12481190Y-15535476D01*
X12738333Y-15735476D02*
X12624048Y-15735476D01*
X12681190Y-15735476D02*
X12681190Y-15535476D01*
X12662143Y-15564048D01*
X12643095Y-15583095D01*
X12624048Y-15592619D01*
X12928809Y-15735476D02*
X12814524Y-15735476D01*
X12871667Y-15735476D02*
X12871667Y-15535476D01*
X12852619Y-15564048D01*
X12833571Y-15583095D01*
X12814524Y-15592619D01*
X13043095Y-15621190D02*
X13024048Y-15611667D01*
X13014524Y-15602143D01*
X13005000Y-15583095D01*
X13005000Y-15573571D01*
X13014524Y-15554524D01*
X13024048Y-15545000D01*
X13043095Y-15535476D01*
X13081190Y-15535476D01*
X13100238Y-15545000D01*
X13109762Y-15554524D01*
X13119286Y-15573571D01*
X13119286Y-15583095D01*
X13109762Y-15602143D01*
X13100238Y-15611667D01*
X13081190Y-15621190D01*
X13043095Y-15621190D01*
X13024048Y-15630714D01*
X13014524Y-15640238D01*
X13005000Y-15659286D01*
X13005000Y-15697381D01*
X13014524Y-15716428D01*
X13024048Y-15725952D01*
X13043095Y-15735476D01*
X13081190Y-15735476D01*
X13100238Y-15725952D01*
X13109762Y-15716428D01*
X13119286Y-15697381D01*
X13119286Y-15659286D01*
X13109762Y-15640238D01*
X13100238Y-15630714D01*
X13081190Y-15621190D01*
X13195476Y-15535476D02*
X13195476Y-15573571D01*
X13271667Y-15535476D02*
X13271667Y-15573571D01*
X13566905Y-15811667D02*
X13557381Y-15802143D01*
X13538333Y-15773571D01*
X13528809Y-15754524D01*
X13519286Y-15725952D01*
X13509762Y-15678333D01*
X13509762Y-15640238D01*
X13519286Y-15592619D01*
X13528809Y-15564048D01*
X13538333Y-15545000D01*
X13557381Y-15516428D01*
X13566905Y-15506905D01*
X13652619Y-15735476D02*
X13690714Y-15735476D01*
X13709762Y-15725952D01*
X13719286Y-15716428D01*
X13738333Y-15687857D01*
X13747857Y-15649762D01*
X13747857Y-15573571D01*
X13738333Y-15554524D01*
X13728809Y-15545000D01*
X13709762Y-15535476D01*
X13671667Y-15535476D01*
X13652619Y-15545000D01*
X13643095Y-15554524D01*
X13633571Y-15573571D01*
X13633571Y-15621190D01*
X13643095Y-15640238D01*
X13652619Y-15649762D01*
X13671667Y-15659286D01*
X13709762Y-15659286D01*
X13728809Y-15649762D01*
X13738333Y-15640238D01*
X13747857Y-15621190D01*
X13928809Y-15535476D02*
X13833571Y-15535476D01*
X13824048Y-15630714D01*
X13833571Y-15621190D01*
X13852619Y-15611667D01*
X13900238Y-15611667D01*
X13919286Y-15621190D01*
X13928809Y-15630714D01*
X13938333Y-15649762D01*
X13938333Y-15697381D01*
X13928809Y-15716428D01*
X13919286Y-15725952D01*
X13900238Y-15735476D01*
X13852619Y-15735476D01*
X13833571Y-15725952D01*
X13824048Y-15716428D01*
X14052619Y-15621190D02*
X14033571Y-15611667D01*
X14024048Y-15602143D01*
X14014524Y-15583095D01*
X14014524Y-15573571D01*
X14024048Y-15554524D01*
X14033571Y-15545000D01*
X14052619Y-15535476D01*
X14090714Y-15535476D01*
X14109762Y-15545000D01*
X14119286Y-15554524D01*
X14128809Y-15573571D01*
X14128809Y-15583095D01*
X14119286Y-15602143D01*
X14109762Y-15611667D01*
X14090714Y-15621190D01*
X14052619Y-15621190D01*
X14033571Y-15630714D01*
X14024048Y-15640238D01*
X14014524Y-15659286D01*
X14014524Y-15697381D01*
X14024048Y-15716428D01*
X14033571Y-15725952D01*
X14052619Y-15735476D01*
X14090714Y-15735476D01*
X14109762Y-15725952D01*
X14119286Y-15716428D01*
X14128809Y-15697381D01*
X14128809Y-15659286D01*
X14119286Y-15640238D01*
X14109762Y-15630714D01*
X14090714Y-15621190D01*
X14366905Y-15735476D02*
X14366905Y-15535476D01*
X14452619Y-15735476D02*
X14452619Y-15630714D01*
X14443095Y-15611667D01*
X14424048Y-15602143D01*
X14395476Y-15602143D01*
X14376428Y-15611667D01*
X14366905Y-15621190D01*
X14576428Y-15735476D02*
X14557381Y-15725952D01*
X14547857Y-15716428D01*
X14538333Y-15697381D01*
X14538333Y-15640238D01*
X14547857Y-15621190D01*
X14557381Y-15611667D01*
X14576428Y-15602143D01*
X14605000Y-15602143D01*
X14624048Y-15611667D01*
X14633571Y-15621190D01*
X14643095Y-15640238D01*
X14643095Y-15697381D01*
X14633571Y-15716428D01*
X14624048Y-15725952D01*
X14605000Y-15735476D01*
X14576428Y-15735476D01*
X14757381Y-15735476D02*
X14738333Y-15725952D01*
X14728809Y-15706905D01*
X14728809Y-15535476D01*
X14909762Y-15725952D02*
X14890714Y-15735476D01*
X14852619Y-15735476D01*
X14833571Y-15725952D01*
X14824048Y-15706905D01*
X14824048Y-15630714D01*
X14833571Y-15611667D01*
X14852619Y-15602143D01*
X14890714Y-15602143D01*
X14909762Y-15611667D01*
X14919286Y-15630714D01*
X14919286Y-15649762D01*
X14824048Y-15668809D01*
X14995476Y-15725952D02*
X15014524Y-15735476D01*
X15052619Y-15735476D01*
X15071667Y-15725952D01*
X15081190Y-15706905D01*
X15081190Y-15697381D01*
X15071667Y-15678333D01*
X15052619Y-15668809D01*
X15024048Y-15668809D01*
X15005000Y-15659286D01*
X14995476Y-15640238D01*
X14995476Y-15630714D01*
X15005000Y-15611667D01*
X15024048Y-15602143D01*
X15052619Y-15602143D01*
X15071667Y-15611667D01*
X15147857Y-15811667D02*
X15157381Y-15802143D01*
X15176428Y-15773571D01*
X15185952Y-15754524D01*
X15195476Y-15725952D01*
X15205000Y-15678333D01*
X15205000Y-15640238D01*
X15195476Y-15592619D01*
X15185952Y-15564048D01*
X15176428Y-15545000D01*
X15157381Y-15516428D01*
X15147857Y-15506905D01*
D13*
X9995000Y-15909000D02*
G75*
G03*
X9995000Y-15909000I-16500J0D01*
G01*
D11*
X10290714Y-15799476D02*
X10309762Y-15799476D01*
X10328810Y-15809000D01*
X10338333Y-15818524D01*
X10347857Y-15837571D01*
X10357381Y-15875667D01*
X10357381Y-15923286D01*
X10347857Y-15961381D01*
X10338333Y-15980428D01*
X10328810Y-15989952D01*
X10309762Y-15999476D01*
X10290714Y-15999476D01*
X10271667Y-15989952D01*
X10262143Y-15980428D01*
X10252619Y-15961381D01*
X10243095Y-15923286D01*
X10243095Y-15875667D01*
X10252619Y-15837571D01*
X10262143Y-15818524D01*
X10271667Y-15809000D01*
X10290714Y-15799476D01*
X10443095Y-15980428D02*
X10452619Y-15989952D01*
X10443095Y-15999476D01*
X10433571Y-15989952D01*
X10443095Y-15980428D01*
X10443095Y-15999476D01*
X10519286Y-15799476D02*
X10643095Y-15799476D01*
X10576429Y-15875667D01*
X10605000Y-15875667D01*
X10624048Y-15885190D01*
X10633571Y-15894714D01*
X10643095Y-15913762D01*
X10643095Y-15961381D01*
X10633571Y-15980428D01*
X10624048Y-15989952D01*
X10605000Y-15999476D01*
X10547857Y-15999476D01*
X10528810Y-15989952D01*
X10519286Y-15980428D01*
X10709762Y-15799476D02*
X10833571Y-15799476D01*
X10766905Y-15875667D01*
X10795476Y-15875667D01*
X10814524Y-15885190D01*
X10824048Y-15894714D01*
X10833571Y-15913762D01*
X10833571Y-15961381D01*
X10824048Y-15980428D01*
X10814524Y-15989952D01*
X10795476Y-15999476D01*
X10738333Y-15999476D01*
X10719286Y-15989952D01*
X10709762Y-15980428D01*
X10957381Y-15799476D02*
X10976429Y-15799476D01*
X10995476Y-15809000D01*
X11005000Y-15818524D01*
X11014524Y-15837571D01*
X11024048Y-15875667D01*
X11024048Y-15923286D01*
X11014524Y-15961381D01*
X11005000Y-15980428D01*
X10995476Y-15989952D01*
X10976429Y-15999476D01*
X10957381Y-15999476D01*
X10938333Y-15989952D01*
X10928810Y-15980428D01*
X10919286Y-15961381D01*
X10909762Y-15923286D01*
X10909762Y-15875667D01*
X10919286Y-15837571D01*
X10928810Y-15818524D01*
X10938333Y-15809000D01*
X10957381Y-15799476D01*
X11109762Y-15999476D02*
X11109762Y-15866143D01*
X11109762Y-15885190D02*
X11119286Y-15875667D01*
X11138333Y-15866143D01*
X11166905Y-15866143D01*
X11185952Y-15875667D01*
X11195476Y-15894714D01*
X11195476Y-15999476D01*
X11195476Y-15894714D02*
X11205000Y-15875667D01*
X11224048Y-15866143D01*
X11252619Y-15866143D01*
X11271667Y-15875667D01*
X11281190Y-15894714D01*
X11281190Y-15999476D01*
X11376428Y-15999476D02*
X11376428Y-15866143D01*
X11376428Y-15885190D02*
X11385952Y-15875667D01*
X11405000Y-15866143D01*
X11433571Y-15866143D01*
X11452619Y-15875667D01*
X11462143Y-15894714D01*
X11462143Y-15999476D01*
X11462143Y-15894714D02*
X11471667Y-15875667D01*
X11490714Y-15866143D01*
X11519286Y-15866143D01*
X11538333Y-15875667D01*
X11547857Y-15894714D01*
X11547857Y-15999476D01*
X11938333Y-15789952D02*
X11766905Y-16047095D01*
X12195476Y-15799476D02*
X12214524Y-15799476D01*
X12233571Y-15809000D01*
X12243095Y-15818524D01*
X12252619Y-15837571D01*
X12262143Y-15875667D01*
X12262143Y-15923286D01*
X12252619Y-15961381D01*
X12243095Y-15980428D01*
X12233571Y-15989952D01*
X12214524Y-15999476D01*
X12195476Y-15999476D01*
X12176428Y-15989952D01*
X12166905Y-15980428D01*
X12157381Y-15961381D01*
X12147857Y-15923286D01*
X12147857Y-15875667D01*
X12157381Y-15837571D01*
X12166905Y-15818524D01*
X12176428Y-15809000D01*
X12195476Y-15799476D01*
X12347857Y-15980428D02*
X12357381Y-15989952D01*
X12347857Y-15999476D01*
X12338333Y-15989952D01*
X12347857Y-15980428D01*
X12347857Y-15999476D01*
X12481190Y-15799476D02*
X12500238Y-15799476D01*
X12519286Y-15809000D01*
X12528809Y-15818524D01*
X12538333Y-15837571D01*
X12547857Y-15875667D01*
X12547857Y-15923286D01*
X12538333Y-15961381D01*
X12528809Y-15980428D01*
X12519286Y-15989952D01*
X12500238Y-15999476D01*
X12481190Y-15999476D01*
X12462143Y-15989952D01*
X12452619Y-15980428D01*
X12443095Y-15961381D01*
X12433571Y-15923286D01*
X12433571Y-15875667D01*
X12443095Y-15837571D01*
X12452619Y-15818524D01*
X12462143Y-15809000D01*
X12481190Y-15799476D01*
X12738333Y-15999476D02*
X12624048Y-15999476D01*
X12681190Y-15999476D02*
X12681190Y-15799476D01*
X12662143Y-15828048D01*
X12643095Y-15847095D01*
X12624048Y-15856619D01*
X12805000Y-15799476D02*
X12928809Y-15799476D01*
X12862143Y-15875667D01*
X12890714Y-15875667D01*
X12909762Y-15885190D01*
X12919286Y-15894714D01*
X12928809Y-15913762D01*
X12928809Y-15961381D01*
X12919286Y-15980428D01*
X12909762Y-15989952D01*
X12890714Y-15999476D01*
X12833571Y-15999476D01*
X12814524Y-15989952D01*
X12805000Y-15980428D01*
X13052619Y-15799476D02*
X13071667Y-15799476D01*
X13090714Y-15809000D01*
X13100238Y-15818524D01*
X13109762Y-15837571D01*
X13119286Y-15875667D01*
X13119286Y-15923286D01*
X13109762Y-15961381D01*
X13100238Y-15980428D01*
X13090714Y-15989952D01*
X13071667Y-15999476D01*
X13052619Y-15999476D01*
X13033571Y-15989952D01*
X13024048Y-15980428D01*
X13014524Y-15961381D01*
X13005000Y-15923286D01*
X13005000Y-15875667D01*
X13014524Y-15837571D01*
X13024048Y-15818524D01*
X13033571Y-15809000D01*
X13052619Y-15799476D01*
X13195476Y-15799476D02*
X13195476Y-15837571D01*
X13271667Y-15799476D02*
X13271667Y-15837571D01*
X13566905Y-16075667D02*
X13557381Y-16066143D01*
X13538333Y-16037571D01*
X13528809Y-16018524D01*
X13519286Y-15989952D01*
X13509762Y-15942333D01*
X13509762Y-15904238D01*
X13519286Y-15856619D01*
X13528809Y-15828048D01*
X13538333Y-15809000D01*
X13557381Y-15780428D01*
X13566905Y-15770905D01*
X13728809Y-15799476D02*
X13690714Y-15799476D01*
X13671667Y-15809000D01*
X13662143Y-15818524D01*
X13643095Y-15847095D01*
X13633571Y-15885190D01*
X13633571Y-15961381D01*
X13643095Y-15980428D01*
X13652619Y-15989952D01*
X13671667Y-15999476D01*
X13709762Y-15999476D01*
X13728809Y-15989952D01*
X13738333Y-15980428D01*
X13747857Y-15961381D01*
X13747857Y-15913762D01*
X13738333Y-15894714D01*
X13728809Y-15885190D01*
X13709762Y-15875667D01*
X13671667Y-15875667D01*
X13652619Y-15885190D01*
X13643095Y-15894714D01*
X13633571Y-15913762D01*
X13985952Y-15999476D02*
X13985952Y-15799476D01*
X14071667Y-15999476D02*
X14071667Y-15894714D01*
X14062143Y-15875667D01*
X14043095Y-15866143D01*
X14014524Y-15866143D01*
X13995476Y-15875667D01*
X13985952Y-15885190D01*
X14195476Y-15999476D02*
X14176428Y-15989952D01*
X14166905Y-15980428D01*
X14157381Y-15961381D01*
X14157381Y-15904238D01*
X14166905Y-15885190D01*
X14176428Y-15875667D01*
X14195476Y-15866143D01*
X14224048Y-15866143D01*
X14243095Y-15875667D01*
X14252619Y-15885190D01*
X14262143Y-15904238D01*
X14262143Y-15961381D01*
X14252619Y-15980428D01*
X14243095Y-15989952D01*
X14224048Y-15999476D01*
X14195476Y-15999476D01*
X14376428Y-15999476D02*
X14357381Y-15989952D01*
X14347857Y-15970905D01*
X14347857Y-15799476D01*
X14528809Y-15989952D02*
X14509762Y-15999476D01*
X14471667Y-15999476D01*
X14452619Y-15989952D01*
X14443095Y-15970905D01*
X14443095Y-15894714D01*
X14452619Y-15875667D01*
X14471667Y-15866143D01*
X14509762Y-15866143D01*
X14528809Y-15875667D01*
X14538333Y-15894714D01*
X14538333Y-15913762D01*
X14443095Y-15932809D01*
X14614524Y-15989952D02*
X14633571Y-15999476D01*
X14671667Y-15999476D01*
X14690714Y-15989952D01*
X14700238Y-15970905D01*
X14700238Y-15961381D01*
X14690714Y-15942333D01*
X14671667Y-15932809D01*
X14643095Y-15932809D01*
X14624048Y-15923286D01*
X14614524Y-15904238D01*
X14614524Y-15894714D01*
X14624048Y-15875667D01*
X14643095Y-15866143D01*
X14671667Y-15866143D01*
X14690714Y-15875667D01*
X14766905Y-16075667D02*
X14776428Y-16066143D01*
X14795476Y-16037571D01*
X14805000Y-16018524D01*
X14814524Y-15989952D01*
X14824048Y-15942333D01*
X14824048Y-15904238D01*
X14814524Y-15856619D01*
X14805000Y-15828048D01*
X14795476Y-15809000D01*
X14776428Y-15780428D01*
X14766905Y-15770905D01*
D14*
X9970000Y-16148000D02*
X9970000Y-16198000D01*
X9945000Y-16173000D02*
X9995000Y-16173000D01*
D11*
X10290714Y-16063476D02*
X10309762Y-16063476D01*
X10328810Y-16073000D01*
X10338333Y-16082524D01*
X10347857Y-16101571D01*
X10357381Y-16139667D01*
X10357381Y-16187286D01*
X10347857Y-16225381D01*
X10338333Y-16244428D01*
X10328810Y-16253952D01*
X10309762Y-16263476D01*
X10290714Y-16263476D01*
X10271667Y-16253952D01*
X10262143Y-16244428D01*
X10252619Y-16225381D01*
X10243095Y-16187286D01*
X10243095Y-16139667D01*
X10252619Y-16101571D01*
X10262143Y-16082524D01*
X10271667Y-16073000D01*
X10290714Y-16063476D01*
X10443095Y-16244428D02*
X10452619Y-16253952D01*
X10443095Y-16263476D01*
X10433571Y-16253952D01*
X10443095Y-16244428D01*
X10443095Y-16263476D01*
X10633571Y-16063476D02*
X10538333Y-16063476D01*
X10528810Y-16158714D01*
X10538333Y-16149190D01*
X10557381Y-16139667D01*
X10605000Y-16139667D01*
X10624048Y-16149190D01*
X10633571Y-16158714D01*
X10643095Y-16177762D01*
X10643095Y-16225381D01*
X10633571Y-16244428D01*
X10624048Y-16253952D01*
X10605000Y-16263476D01*
X10557381Y-16263476D01*
X10538333Y-16253952D01*
X10528810Y-16244428D01*
X10766905Y-16063476D02*
X10785952Y-16063476D01*
X10805000Y-16073000D01*
X10814524Y-16082524D01*
X10824048Y-16101571D01*
X10833571Y-16139667D01*
X10833571Y-16187286D01*
X10824048Y-16225381D01*
X10814524Y-16244428D01*
X10805000Y-16253952D01*
X10785952Y-16263476D01*
X10766905Y-16263476D01*
X10747857Y-16253952D01*
X10738333Y-16244428D01*
X10728810Y-16225381D01*
X10719286Y-16187286D01*
X10719286Y-16139667D01*
X10728810Y-16101571D01*
X10738333Y-16082524D01*
X10747857Y-16073000D01*
X10766905Y-16063476D01*
X10957381Y-16063476D02*
X10976429Y-16063476D01*
X10995476Y-16073000D01*
X11005000Y-16082524D01*
X11014524Y-16101571D01*
X11024048Y-16139667D01*
X11024048Y-16187286D01*
X11014524Y-16225381D01*
X11005000Y-16244428D01*
X10995476Y-16253952D01*
X10976429Y-16263476D01*
X10957381Y-16263476D01*
X10938333Y-16253952D01*
X10928810Y-16244428D01*
X10919286Y-16225381D01*
X10909762Y-16187286D01*
X10909762Y-16139667D01*
X10919286Y-16101571D01*
X10928810Y-16082524D01*
X10938333Y-16073000D01*
X10957381Y-16063476D01*
X11109762Y-16263476D02*
X11109762Y-16130143D01*
X11109762Y-16149190D02*
X11119286Y-16139667D01*
X11138333Y-16130143D01*
X11166905Y-16130143D01*
X11185952Y-16139667D01*
X11195476Y-16158714D01*
X11195476Y-16263476D01*
X11195476Y-16158714D02*
X11205000Y-16139667D01*
X11224048Y-16130143D01*
X11252619Y-16130143D01*
X11271667Y-16139667D01*
X11281190Y-16158714D01*
X11281190Y-16263476D01*
X11376428Y-16263476D02*
X11376428Y-16130143D01*
X11376428Y-16149190D02*
X11385952Y-16139667D01*
X11405000Y-16130143D01*
X11433571Y-16130143D01*
X11452619Y-16139667D01*
X11462143Y-16158714D01*
X11462143Y-16263476D01*
X11462143Y-16158714D02*
X11471667Y-16139667D01*
X11490714Y-16130143D01*
X11519286Y-16130143D01*
X11538333Y-16139667D01*
X11547857Y-16158714D01*
X11547857Y-16263476D01*
X11938333Y-16053952D02*
X11766905Y-16311095D01*
X12195476Y-16063476D02*
X12214524Y-16063476D01*
X12233571Y-16073000D01*
X12243095Y-16082524D01*
X12252619Y-16101571D01*
X12262143Y-16139667D01*
X12262143Y-16187286D01*
X12252619Y-16225381D01*
X12243095Y-16244428D01*
X12233571Y-16253952D01*
X12214524Y-16263476D01*
X12195476Y-16263476D01*
X12176428Y-16253952D01*
X12166905Y-16244428D01*
X12157381Y-16225381D01*
X12147857Y-16187286D01*
X12147857Y-16139667D01*
X12157381Y-16101571D01*
X12166905Y-16082524D01*
X12176428Y-16073000D01*
X12195476Y-16063476D01*
X12347857Y-16244428D02*
X12357381Y-16253952D01*
X12347857Y-16263476D01*
X12338333Y-16253952D01*
X12347857Y-16244428D01*
X12347857Y-16263476D01*
X12481190Y-16063476D02*
X12500238Y-16063476D01*
X12519286Y-16073000D01*
X12528809Y-16082524D01*
X12538333Y-16101571D01*
X12547857Y-16139667D01*
X12547857Y-16187286D01*
X12538333Y-16225381D01*
X12528809Y-16244428D01*
X12519286Y-16253952D01*
X12500238Y-16263476D01*
X12481190Y-16263476D01*
X12462143Y-16253952D01*
X12452619Y-16244428D01*
X12443095Y-16225381D01*
X12433571Y-16187286D01*
X12433571Y-16139667D01*
X12443095Y-16101571D01*
X12452619Y-16082524D01*
X12462143Y-16073000D01*
X12481190Y-16063476D01*
X12738333Y-16263476D02*
X12624048Y-16263476D01*
X12681190Y-16263476D02*
X12681190Y-16063476D01*
X12662143Y-16092048D01*
X12643095Y-16111095D01*
X12624048Y-16120619D01*
X12833571Y-16263476D02*
X12871667Y-16263476D01*
X12890714Y-16253952D01*
X12900238Y-16244428D01*
X12919286Y-16215857D01*
X12928809Y-16177762D01*
X12928809Y-16101571D01*
X12919286Y-16082524D01*
X12909762Y-16073000D01*
X12890714Y-16063476D01*
X12852619Y-16063476D01*
X12833571Y-16073000D01*
X12824048Y-16082524D01*
X12814524Y-16101571D01*
X12814524Y-16149190D01*
X12824048Y-16168238D01*
X12833571Y-16177762D01*
X12852619Y-16187286D01*
X12890714Y-16187286D01*
X12909762Y-16177762D01*
X12919286Y-16168238D01*
X12928809Y-16149190D01*
X12995476Y-16063476D02*
X13128809Y-16063476D01*
X13043095Y-16263476D01*
X13195476Y-16063476D02*
X13195476Y-16101571D01*
X13271667Y-16063476D02*
X13271667Y-16101571D01*
X13566905Y-16339667D02*
X13557381Y-16330143D01*
X13538333Y-16301571D01*
X13528809Y-16282524D01*
X13519286Y-16253952D01*
X13509762Y-16206333D01*
X13509762Y-16168238D01*
X13519286Y-16120619D01*
X13528809Y-16092048D01*
X13538333Y-16073000D01*
X13557381Y-16044428D01*
X13566905Y-16034905D01*
X13728809Y-16130143D02*
X13728809Y-16263476D01*
X13681190Y-16053952D02*
X13633571Y-16196809D01*
X13757381Y-16196809D01*
X13862143Y-16149190D02*
X13843095Y-16139667D01*
X13833571Y-16130143D01*
X13824048Y-16111095D01*
X13824048Y-16101571D01*
X13833571Y-16082524D01*
X13843095Y-16073000D01*
X13862143Y-16063476D01*
X13900238Y-16063476D01*
X13919286Y-16073000D01*
X13928809Y-16082524D01*
X13938333Y-16101571D01*
X13938333Y-16111095D01*
X13928809Y-16130143D01*
X13919286Y-16139667D01*
X13900238Y-16149190D01*
X13862143Y-16149190D01*
X13843095Y-16158714D01*
X13833571Y-16168238D01*
X13824048Y-16187286D01*
X13824048Y-16225381D01*
X13833571Y-16244428D01*
X13843095Y-16253952D01*
X13862143Y-16263476D01*
X13900238Y-16263476D01*
X13919286Y-16253952D01*
X13928809Y-16244428D01*
X13938333Y-16225381D01*
X13938333Y-16187286D01*
X13928809Y-16168238D01*
X13919286Y-16158714D01*
X13900238Y-16149190D01*
X14176428Y-16263476D02*
X14176428Y-16063476D01*
X14262143Y-16263476D02*
X14262143Y-16158714D01*
X14252619Y-16139667D01*
X14233571Y-16130143D01*
X14205000Y-16130143D01*
X14185952Y-16139667D01*
X14176428Y-16149190D01*
X14385952Y-16263476D02*
X14366905Y-16253952D01*
X14357381Y-16244428D01*
X14347857Y-16225381D01*
X14347857Y-16168238D01*
X14357381Y-16149190D01*
X14366905Y-16139667D01*
X14385952Y-16130143D01*
X14414524Y-16130143D01*
X14433571Y-16139667D01*
X14443095Y-16149190D01*
X14452619Y-16168238D01*
X14452619Y-16225381D01*
X14443095Y-16244428D01*
X14433571Y-16253952D01*
X14414524Y-16263476D01*
X14385952Y-16263476D01*
X14566905Y-16263476D02*
X14547857Y-16253952D01*
X14538333Y-16234905D01*
X14538333Y-16063476D01*
X14719286Y-16253952D02*
X14700238Y-16263476D01*
X14662143Y-16263476D01*
X14643095Y-16253952D01*
X14633571Y-16234905D01*
X14633571Y-16158714D01*
X14643095Y-16139667D01*
X14662143Y-16130143D01*
X14700238Y-16130143D01*
X14719286Y-16139667D01*
X14728809Y-16158714D01*
X14728809Y-16177762D01*
X14633571Y-16196809D01*
X14805000Y-16253952D02*
X14824048Y-16263476D01*
X14862143Y-16263476D01*
X14881190Y-16253952D01*
X14890714Y-16234905D01*
X14890714Y-16225381D01*
X14881190Y-16206333D01*
X14862143Y-16196809D01*
X14833571Y-16196809D01*
X14814524Y-16187286D01*
X14805000Y-16168238D01*
X14805000Y-16158714D01*
X14814524Y-16139667D01*
X14833571Y-16130143D01*
X14862143Y-16130143D01*
X14881190Y-16139667D01*
X15128809Y-16187286D02*
X15281190Y-16187286D01*
X15205000Y-16263476D02*
X15205000Y-16111095D01*
X15614524Y-16063476D02*
X15576428Y-16063476D01*
X15557381Y-16073000D01*
X15547857Y-16082524D01*
X15528809Y-16111095D01*
X15519286Y-16149190D01*
X15519286Y-16225381D01*
X15528809Y-16244428D01*
X15538333Y-16253952D01*
X15557381Y-16263476D01*
X15595476Y-16263476D01*
X15614524Y-16253952D01*
X15624048Y-16244428D01*
X15633571Y-16225381D01*
X15633571Y-16177762D01*
X15624048Y-16158714D01*
X15614524Y-16149190D01*
X15595476Y-16139667D01*
X15557381Y-16139667D01*
X15538333Y-16149190D01*
X15528809Y-16158714D01*
X15519286Y-16177762D01*
X15862143Y-16253952D02*
X15881190Y-16263476D01*
X15919286Y-16263476D01*
X15938333Y-16253952D01*
X15947857Y-16234905D01*
X15947857Y-16225381D01*
X15938333Y-16206333D01*
X15919286Y-16196809D01*
X15890714Y-16196809D01*
X15871667Y-16187286D01*
X15862143Y-16168238D01*
X15862143Y-16158714D01*
X15871667Y-16139667D01*
X15890714Y-16130143D01*
X15919286Y-16130143D01*
X15938333Y-16139667D01*
X16062143Y-16263476D02*
X16043095Y-16253952D01*
X16033571Y-16234905D01*
X16033571Y-16063476D01*
X16166905Y-16263476D02*
X16147857Y-16253952D01*
X16138333Y-16244428D01*
X16128809Y-16225381D01*
X16128809Y-16168238D01*
X16138333Y-16149190D01*
X16147857Y-16139667D01*
X16166905Y-16130143D01*
X16195476Y-16130143D01*
X16214524Y-16139667D01*
X16224048Y-16149190D01*
X16233571Y-16168238D01*
X16233571Y-16225381D01*
X16224048Y-16244428D01*
X16214524Y-16253952D01*
X16195476Y-16263476D01*
X16166905Y-16263476D01*
X16290714Y-16130143D02*
X16366905Y-16130143D01*
X16319286Y-16063476D02*
X16319286Y-16234905D01*
X16328809Y-16253952D01*
X16347857Y-16263476D01*
X16366905Y-16263476D01*
X16424048Y-16253952D02*
X16443095Y-16263476D01*
X16481190Y-16263476D01*
X16500238Y-16253952D01*
X16509762Y-16234905D01*
X16509762Y-16225381D01*
X16500238Y-16206333D01*
X16481190Y-16196809D01*
X16452619Y-16196809D01*
X16433571Y-16187286D01*
X16424048Y-16168238D01*
X16424048Y-16158714D01*
X16433571Y-16139667D01*
X16452619Y-16130143D01*
X16481190Y-16130143D01*
X16500238Y-16139667D01*
X16576428Y-16339667D02*
X16585952Y-16330143D01*
X16605000Y-16301571D01*
X16614524Y-16282524D01*
X16624048Y-16253952D01*
X16633571Y-16206333D01*
X16633571Y-16168238D01*
X16624048Y-16120619D01*
X16614524Y-16092048D01*
X16605000Y-16073000D01*
X16585952Y-16044428D01*
X16576428Y-16034905D01*
D15*
X9983285Y-16465284D02*
X9983285Y-16408715D01*
X9926716Y-16408715D01*
X9926716Y-16465284D01*
X9983285Y-16465284D01*
D11*
X10290714Y-16327476D02*
X10309762Y-16327476D01*
X10328810Y-16337000D01*
X10338333Y-16346524D01*
X10347857Y-16365571D01*
X10357381Y-16403667D01*
X10357381Y-16451286D01*
X10347857Y-16489381D01*
X10338333Y-16508428D01*
X10328810Y-16517952D01*
X10309762Y-16527476D01*
X10290714Y-16527476D01*
X10271667Y-16517952D01*
X10262143Y-16508428D01*
X10252619Y-16489381D01*
X10243095Y-16451286D01*
X10243095Y-16403667D01*
X10252619Y-16365571D01*
X10262143Y-16346524D01*
X10271667Y-16337000D01*
X10290714Y-16327476D01*
X10443095Y-16508428D02*
X10452619Y-16517952D01*
X10443095Y-16527476D01*
X10433571Y-16517952D01*
X10443095Y-16508428D01*
X10443095Y-16527476D01*
X10566905Y-16413190D02*
X10547857Y-16403667D01*
X10538333Y-16394143D01*
X10528810Y-16375095D01*
X10528810Y-16365571D01*
X10538333Y-16346524D01*
X10547857Y-16337000D01*
X10566905Y-16327476D01*
X10605000Y-16327476D01*
X10624048Y-16337000D01*
X10633571Y-16346524D01*
X10643095Y-16365571D01*
X10643095Y-16375095D01*
X10633571Y-16394143D01*
X10624048Y-16403667D01*
X10605000Y-16413190D01*
X10566905Y-16413190D01*
X10547857Y-16422714D01*
X10538333Y-16432238D01*
X10528810Y-16451286D01*
X10528810Y-16489381D01*
X10538333Y-16508428D01*
X10547857Y-16517952D01*
X10566905Y-16527476D01*
X10605000Y-16527476D01*
X10624048Y-16517952D01*
X10633571Y-16508428D01*
X10643095Y-16489381D01*
X10643095Y-16451286D01*
X10633571Y-16432238D01*
X10624048Y-16422714D01*
X10605000Y-16413190D01*
X10766905Y-16327476D02*
X10785952Y-16327476D01*
X10805000Y-16337000D01*
X10814524Y-16346524D01*
X10824048Y-16365571D01*
X10833571Y-16403667D01*
X10833571Y-16451286D01*
X10824048Y-16489381D01*
X10814524Y-16508428D01*
X10805000Y-16517952D01*
X10785952Y-16527476D01*
X10766905Y-16527476D01*
X10747857Y-16517952D01*
X10738333Y-16508428D01*
X10728810Y-16489381D01*
X10719286Y-16451286D01*
X10719286Y-16403667D01*
X10728810Y-16365571D01*
X10738333Y-16346524D01*
X10747857Y-16337000D01*
X10766905Y-16327476D01*
X10957381Y-16327476D02*
X10976429Y-16327476D01*
X10995476Y-16337000D01*
X11005000Y-16346524D01*
X11014524Y-16365571D01*
X11024048Y-16403667D01*
X11024048Y-16451286D01*
X11014524Y-16489381D01*
X11005000Y-16508428D01*
X10995476Y-16517952D01*
X10976429Y-16527476D01*
X10957381Y-16527476D01*
X10938333Y-16517952D01*
X10928810Y-16508428D01*
X10919286Y-16489381D01*
X10909762Y-16451286D01*
X10909762Y-16403667D01*
X10919286Y-16365571D01*
X10928810Y-16346524D01*
X10938333Y-16337000D01*
X10957381Y-16327476D01*
X11109762Y-16527476D02*
X11109762Y-16394143D01*
X11109762Y-16413190D02*
X11119286Y-16403667D01*
X11138333Y-16394143D01*
X11166905Y-16394143D01*
X11185952Y-16403667D01*
X11195476Y-16422714D01*
X11195476Y-16527476D01*
X11195476Y-16422714D02*
X11205000Y-16403667D01*
X11224048Y-16394143D01*
X11252619Y-16394143D01*
X11271667Y-16403667D01*
X11281190Y-16422714D01*
X11281190Y-16527476D01*
X11376428Y-16527476D02*
X11376428Y-16394143D01*
X11376428Y-16413190D02*
X11385952Y-16403667D01*
X11405000Y-16394143D01*
X11433571Y-16394143D01*
X11452619Y-16403667D01*
X11462143Y-16422714D01*
X11462143Y-16527476D01*
X11462143Y-16422714D02*
X11471667Y-16403667D01*
X11490714Y-16394143D01*
X11519286Y-16394143D01*
X11538333Y-16403667D01*
X11547857Y-16422714D01*
X11547857Y-16527476D01*
X11938333Y-16317952D02*
X11766905Y-16575095D01*
X12195476Y-16327476D02*
X12214524Y-16327476D01*
X12233571Y-16337000D01*
X12243095Y-16346524D01*
X12252619Y-16365571D01*
X12262143Y-16403667D01*
X12262143Y-16451286D01*
X12252619Y-16489381D01*
X12243095Y-16508428D01*
X12233571Y-16517952D01*
X12214524Y-16527476D01*
X12195476Y-16527476D01*
X12176428Y-16517952D01*
X12166905Y-16508428D01*
X12157381Y-16489381D01*
X12147857Y-16451286D01*
X12147857Y-16403667D01*
X12157381Y-16365571D01*
X12166905Y-16346524D01*
X12176428Y-16337000D01*
X12195476Y-16327476D01*
X12347857Y-16508428D02*
X12357381Y-16517952D01*
X12347857Y-16527476D01*
X12338333Y-16517952D01*
X12347857Y-16508428D01*
X12347857Y-16527476D01*
X12481190Y-16327476D02*
X12500238Y-16327476D01*
X12519286Y-16337000D01*
X12528809Y-16346524D01*
X12538333Y-16365571D01*
X12547857Y-16403667D01*
X12547857Y-16451286D01*
X12538333Y-16489381D01*
X12528809Y-16508428D01*
X12519286Y-16517952D01*
X12500238Y-16527476D01*
X12481190Y-16527476D01*
X12462143Y-16517952D01*
X12452619Y-16508428D01*
X12443095Y-16489381D01*
X12433571Y-16451286D01*
X12433571Y-16403667D01*
X12443095Y-16365571D01*
X12452619Y-16346524D01*
X12462143Y-16337000D01*
X12481190Y-16327476D01*
X12614524Y-16327476D02*
X12738333Y-16327476D01*
X12671667Y-16403667D01*
X12700238Y-16403667D01*
X12719286Y-16413190D01*
X12728809Y-16422714D01*
X12738333Y-16441762D01*
X12738333Y-16489381D01*
X12728809Y-16508428D01*
X12719286Y-16517952D01*
X12700238Y-16527476D01*
X12643095Y-16527476D01*
X12624048Y-16517952D01*
X12614524Y-16508428D01*
X12928809Y-16527476D02*
X12814524Y-16527476D01*
X12871667Y-16527476D02*
X12871667Y-16327476D01*
X12852619Y-16356048D01*
X12833571Y-16375095D01*
X12814524Y-16384619D01*
X13109762Y-16327476D02*
X13014524Y-16327476D01*
X13005000Y-16422714D01*
X13014524Y-16413190D01*
X13033571Y-16403667D01*
X13081190Y-16403667D01*
X13100238Y-16413190D01*
X13109762Y-16422714D01*
X13119286Y-16441762D01*
X13119286Y-16489381D01*
X13109762Y-16508428D01*
X13100238Y-16517952D01*
X13081190Y-16527476D01*
X13033571Y-16527476D01*
X13014524Y-16517952D01*
X13005000Y-16508428D01*
X13195476Y-16327476D02*
X13195476Y-16365571D01*
X13271667Y-16327476D02*
X13271667Y-16365571D01*
X13566905Y-16603667D02*
X13557381Y-16594143D01*
X13538333Y-16565571D01*
X13528809Y-16546524D01*
X13519286Y-16517952D01*
X13509762Y-16470333D01*
X13509762Y-16432238D01*
X13519286Y-16384619D01*
X13528809Y-16356048D01*
X13538333Y-16337000D01*
X13557381Y-16308428D01*
X13566905Y-16298905D01*
X13624048Y-16327476D02*
X13747857Y-16327476D01*
X13681190Y-16403667D01*
X13709762Y-16403667D01*
X13728809Y-16413190D01*
X13738333Y-16422714D01*
X13747857Y-16441762D01*
X13747857Y-16489381D01*
X13738333Y-16508428D01*
X13728809Y-16517952D01*
X13709762Y-16527476D01*
X13652619Y-16527476D01*
X13633571Y-16517952D01*
X13624048Y-16508428D01*
X13985952Y-16527476D02*
X13985952Y-16327476D01*
X14071667Y-16527476D02*
X14071667Y-16422714D01*
X14062143Y-16403667D01*
X14043095Y-16394143D01*
X14014524Y-16394143D01*
X13995476Y-16403667D01*
X13985952Y-16413190D01*
X14195476Y-16527476D02*
X14176428Y-16517952D01*
X14166905Y-16508428D01*
X14157381Y-16489381D01*
X14157381Y-16432238D01*
X14166905Y-16413190D01*
X14176428Y-16403667D01*
X14195476Y-16394143D01*
X14224048Y-16394143D01*
X14243095Y-16403667D01*
X14252619Y-16413190D01*
X14262143Y-16432238D01*
X14262143Y-16489381D01*
X14252619Y-16508428D01*
X14243095Y-16517952D01*
X14224048Y-16527476D01*
X14195476Y-16527476D01*
X14376428Y-16527476D02*
X14357381Y-16517952D01*
X14347857Y-16498905D01*
X14347857Y-16327476D01*
X14528809Y-16517952D02*
X14509762Y-16527476D01*
X14471667Y-16527476D01*
X14452619Y-16517952D01*
X14443095Y-16498905D01*
X14443095Y-16422714D01*
X14452619Y-16403667D01*
X14471667Y-16394143D01*
X14509762Y-16394143D01*
X14528809Y-16403667D01*
X14538333Y-16422714D01*
X14538333Y-16441762D01*
X14443095Y-16460809D01*
X14614524Y-16517952D02*
X14633571Y-16527476D01*
X14671667Y-16527476D01*
X14690714Y-16517952D01*
X14700238Y-16498905D01*
X14700238Y-16489381D01*
X14690714Y-16470333D01*
X14671667Y-16460809D01*
X14643095Y-16460809D01*
X14624048Y-16451286D01*
X14614524Y-16432238D01*
X14614524Y-16422714D01*
X14624048Y-16403667D01*
X14643095Y-16394143D01*
X14671667Y-16394143D01*
X14690714Y-16403667D01*
X14766905Y-16603667D02*
X14776428Y-16594143D01*
X14795476Y-16565571D01*
X14805000Y-16546524D01*
X14814524Y-16517952D01*
X14824048Y-16470333D01*
X14824048Y-16432238D01*
X14814524Y-16384619D01*
X14805000Y-16356048D01*
X14795476Y-16337000D01*
X14776428Y-16308428D01*
X14766905Y-16298905D01*
D16*
X9950000Y-16746000D02*
X9995000Y-16701000D01*
X9950000Y-16656000D01*
X9905000Y-16701000D01*
X9950000Y-16746000D01*
D11*
X10290714Y-16591476D02*
X10309762Y-16591476D01*
X10328810Y-16601000D01*
X10338333Y-16610524D01*
X10347857Y-16629571D01*
X10357381Y-16667667D01*
X10357381Y-16715286D01*
X10347857Y-16753381D01*
X10338333Y-16772428D01*
X10328810Y-16781952D01*
X10309762Y-16791476D01*
X10290714Y-16791476D01*
X10271667Y-16781952D01*
X10262143Y-16772428D01*
X10252619Y-16753381D01*
X10243095Y-16715286D01*
X10243095Y-16667667D01*
X10252619Y-16629571D01*
X10262143Y-16610524D01*
X10271667Y-16601000D01*
X10290714Y-16591476D01*
X10443095Y-16772428D02*
X10452619Y-16781952D01*
X10443095Y-16791476D01*
X10433571Y-16781952D01*
X10443095Y-16772428D01*
X10443095Y-16791476D01*
X10547857Y-16791476D02*
X10585952Y-16791476D01*
X10605000Y-16781952D01*
X10614524Y-16772428D01*
X10633571Y-16743857D01*
X10643095Y-16705762D01*
X10643095Y-16629571D01*
X10633571Y-16610524D01*
X10624048Y-16601000D01*
X10605000Y-16591476D01*
X10566905Y-16591476D01*
X10547857Y-16601000D01*
X10538333Y-16610524D01*
X10528810Y-16629571D01*
X10528810Y-16677190D01*
X10538333Y-16696238D01*
X10547857Y-16705762D01*
X10566905Y-16715286D01*
X10605000Y-16715286D01*
X10624048Y-16705762D01*
X10633571Y-16696238D01*
X10643095Y-16677190D01*
X10766905Y-16591476D02*
X10785952Y-16591476D01*
X10805000Y-16601000D01*
X10814524Y-16610524D01*
X10824048Y-16629571D01*
X10833571Y-16667667D01*
X10833571Y-16715286D01*
X10824048Y-16753381D01*
X10814524Y-16772428D01*
X10805000Y-16781952D01*
X10785952Y-16791476D01*
X10766905Y-16791476D01*
X10747857Y-16781952D01*
X10738333Y-16772428D01*
X10728810Y-16753381D01*
X10719286Y-16715286D01*
X10719286Y-16667667D01*
X10728810Y-16629571D01*
X10738333Y-16610524D01*
X10747857Y-16601000D01*
X10766905Y-16591476D01*
X10957381Y-16591476D02*
X10976429Y-16591476D01*
X10995476Y-16601000D01*
X11005000Y-16610524D01*
X11014524Y-16629571D01*
X11024048Y-16667667D01*
X11024048Y-16715286D01*
X11014524Y-16753381D01*
X11005000Y-16772428D01*
X10995476Y-16781952D01*
X10976429Y-16791476D01*
X10957381Y-16791476D01*
X10938333Y-16781952D01*
X10928810Y-16772428D01*
X10919286Y-16753381D01*
X10909762Y-16715286D01*
X10909762Y-16667667D01*
X10919286Y-16629571D01*
X10928810Y-16610524D01*
X10938333Y-16601000D01*
X10957381Y-16591476D01*
X11109762Y-16791476D02*
X11109762Y-16658143D01*
X11109762Y-16677190D02*
X11119286Y-16667667D01*
X11138333Y-16658143D01*
X11166905Y-16658143D01*
X11185952Y-16667667D01*
X11195476Y-16686714D01*
X11195476Y-16791476D01*
X11195476Y-16686714D02*
X11205000Y-16667667D01*
X11224048Y-16658143D01*
X11252619Y-16658143D01*
X11271667Y-16667667D01*
X11281190Y-16686714D01*
X11281190Y-16791476D01*
X11376428Y-16791476D02*
X11376428Y-16658143D01*
X11376428Y-16677190D02*
X11385952Y-16667667D01*
X11405000Y-16658143D01*
X11433571Y-16658143D01*
X11452619Y-16667667D01*
X11462143Y-16686714D01*
X11462143Y-16791476D01*
X11462143Y-16686714D02*
X11471667Y-16667667D01*
X11490714Y-16658143D01*
X11519286Y-16658143D01*
X11538333Y-16667667D01*
X11547857Y-16686714D01*
X11547857Y-16791476D01*
X11938333Y-16581952D02*
X11766905Y-16839095D01*
X12195476Y-16591476D02*
X12214524Y-16591476D01*
X12233571Y-16601000D01*
X12243095Y-16610524D01*
X12252619Y-16629571D01*
X12262143Y-16667667D01*
X12262143Y-16715286D01*
X12252619Y-16753381D01*
X12243095Y-16772428D01*
X12233571Y-16781952D01*
X12214524Y-16791476D01*
X12195476Y-16791476D01*
X12176428Y-16781952D01*
X12166905Y-16772428D01*
X12157381Y-16753381D01*
X12147857Y-16715286D01*
X12147857Y-16667667D01*
X12157381Y-16629571D01*
X12166905Y-16610524D01*
X12176428Y-16601000D01*
X12195476Y-16591476D01*
X12347857Y-16772428D02*
X12357381Y-16781952D01*
X12347857Y-16791476D01*
X12338333Y-16781952D01*
X12347857Y-16772428D01*
X12347857Y-16791476D01*
X12481190Y-16591476D02*
X12500238Y-16591476D01*
X12519286Y-16601000D01*
X12528809Y-16610524D01*
X12538333Y-16629571D01*
X12547857Y-16667667D01*
X12547857Y-16715286D01*
X12538333Y-16753381D01*
X12528809Y-16772428D01*
X12519286Y-16781952D01*
X12500238Y-16791476D01*
X12481190Y-16791476D01*
X12462143Y-16781952D01*
X12452619Y-16772428D01*
X12443095Y-16753381D01*
X12433571Y-16715286D01*
X12433571Y-16667667D01*
X12443095Y-16629571D01*
X12452619Y-16610524D01*
X12462143Y-16601000D01*
X12481190Y-16591476D01*
X12614524Y-16591476D02*
X12738333Y-16591476D01*
X12671667Y-16667667D01*
X12700238Y-16667667D01*
X12719286Y-16677190D01*
X12728809Y-16686714D01*
X12738333Y-16705762D01*
X12738333Y-16753381D01*
X12728809Y-16772428D01*
X12719286Y-16781952D01*
X12700238Y-16791476D01*
X12643095Y-16791476D01*
X12624048Y-16781952D01*
X12614524Y-16772428D01*
X12919286Y-16591476D02*
X12824048Y-16591476D01*
X12814524Y-16686714D01*
X12824048Y-16677190D01*
X12843095Y-16667667D01*
X12890714Y-16667667D01*
X12909762Y-16677190D01*
X12919286Y-16686714D01*
X12928809Y-16705762D01*
X12928809Y-16753381D01*
X12919286Y-16772428D01*
X12909762Y-16781952D01*
X12890714Y-16791476D01*
X12843095Y-16791476D01*
X12824048Y-16781952D01*
X12814524Y-16772428D01*
X13100238Y-16658143D02*
X13100238Y-16791476D01*
X13052619Y-16581952D02*
X13005000Y-16724809D01*
X13128809Y-16724809D01*
X13195476Y-16591476D02*
X13195476Y-16629571D01*
X13271667Y-16591476D02*
X13271667Y-16629571D01*
X13566905Y-16867667D02*
X13557381Y-16858143D01*
X13538333Y-16829571D01*
X13528809Y-16810524D01*
X13519286Y-16781952D01*
X13509762Y-16734333D01*
X13509762Y-16696238D01*
X13519286Y-16648619D01*
X13528809Y-16620048D01*
X13538333Y-16601000D01*
X13557381Y-16572428D01*
X13566905Y-16562905D01*
X13624048Y-16591476D02*
X13757381Y-16591476D01*
X13671667Y-16791476D01*
X13824048Y-16610524D02*
X13833571Y-16601000D01*
X13852619Y-16591476D01*
X13900238Y-16591476D01*
X13919286Y-16601000D01*
X13928809Y-16610524D01*
X13938333Y-16629571D01*
X13938333Y-16648619D01*
X13928809Y-16677190D01*
X13814524Y-16791476D01*
X13938333Y-16791476D01*
X14176428Y-16791476D02*
X14176428Y-16591476D01*
X14262143Y-16791476D02*
X14262143Y-16686714D01*
X14252619Y-16667667D01*
X14233571Y-16658143D01*
X14205000Y-16658143D01*
X14185952Y-16667667D01*
X14176428Y-16677190D01*
X14385952Y-16791476D02*
X14366905Y-16781952D01*
X14357381Y-16772428D01*
X14347857Y-16753381D01*
X14347857Y-16696238D01*
X14357381Y-16677190D01*
X14366905Y-16667667D01*
X14385952Y-16658143D01*
X14414524Y-16658143D01*
X14433571Y-16667667D01*
X14443095Y-16677190D01*
X14452619Y-16696238D01*
X14452619Y-16753381D01*
X14443095Y-16772428D01*
X14433571Y-16781952D01*
X14414524Y-16791476D01*
X14385952Y-16791476D01*
X14566905Y-16791476D02*
X14547857Y-16781952D01*
X14538333Y-16762905D01*
X14538333Y-16591476D01*
X14719286Y-16781952D02*
X14700238Y-16791476D01*
X14662143Y-16791476D01*
X14643095Y-16781952D01*
X14633571Y-16762905D01*
X14633571Y-16686714D01*
X14643095Y-16667667D01*
X14662143Y-16658143D01*
X14700238Y-16658143D01*
X14719286Y-16667667D01*
X14728809Y-16686714D01*
X14728809Y-16705762D01*
X14633571Y-16724809D01*
X14805000Y-16781952D02*
X14824048Y-16791476D01*
X14862143Y-16791476D01*
X14881190Y-16781952D01*
X14890714Y-16762905D01*
X14890714Y-16753381D01*
X14881190Y-16734333D01*
X14862143Y-16724809D01*
X14833571Y-16724809D01*
X14814524Y-16715286D01*
X14805000Y-16696238D01*
X14805000Y-16686714D01*
X14814524Y-16667667D01*
X14833571Y-16658143D01*
X14862143Y-16658143D01*
X14881190Y-16667667D01*
X14957381Y-16867667D02*
X14966905Y-16858143D01*
X14985952Y-16829571D01*
X14995476Y-16810524D01*
X15005000Y-16781952D01*
X15014524Y-16734333D01*
X15014524Y-16696238D01*
X15005000Y-16648619D01*
X14995476Y-16620048D01*
X14985952Y-16601000D01*
X14966905Y-16572428D01*
X14957381Y-16562905D01*
D10*
X9895000Y-16915000D02*
X9995000Y-17015000D01*
X9995000Y-16915000D02*
X9895000Y-17015000D01*
X9995000Y-16965000D02*
G75*
G03*
X9995000Y-16965000I-50000J0D01*
G01*
D11*
X10357381Y-17055476D02*
X10243095Y-17055476D01*
X10300238Y-17055476D02*
X10300238Y-16855476D01*
X10281190Y-16884048D01*
X10262143Y-16903095D01*
X10243095Y-16912619D01*
X10443095Y-17036429D02*
X10452619Y-17045952D01*
X10443095Y-17055476D01*
X10433571Y-17045952D01*
X10443095Y-17036429D01*
X10443095Y-17055476D01*
X10576429Y-16855476D02*
X10595476Y-16855476D01*
X10614524Y-16865000D01*
X10624048Y-16874524D01*
X10633571Y-16893571D01*
X10643095Y-16931667D01*
X10643095Y-16979286D01*
X10633571Y-17017381D01*
X10624048Y-17036429D01*
X10614524Y-17045952D01*
X10595476Y-17055476D01*
X10576429Y-17055476D01*
X10557381Y-17045952D01*
X10547857Y-17036429D01*
X10538333Y-17017381D01*
X10528810Y-16979286D01*
X10528810Y-16931667D01*
X10538333Y-16893571D01*
X10547857Y-16874524D01*
X10557381Y-16865000D01*
X10576429Y-16855476D01*
X10766905Y-16855476D02*
X10785952Y-16855476D01*
X10805000Y-16865000D01*
X10814524Y-16874524D01*
X10824048Y-16893571D01*
X10833571Y-16931667D01*
X10833571Y-16979286D01*
X10824048Y-17017381D01*
X10814524Y-17036429D01*
X10805000Y-17045952D01*
X10785952Y-17055476D01*
X10766905Y-17055476D01*
X10747857Y-17045952D01*
X10738333Y-17036429D01*
X10728810Y-17017381D01*
X10719286Y-16979286D01*
X10719286Y-16931667D01*
X10728810Y-16893571D01*
X10738333Y-16874524D01*
X10747857Y-16865000D01*
X10766905Y-16855476D01*
X10957381Y-16855476D02*
X10976429Y-16855476D01*
X10995476Y-16865000D01*
X11005000Y-16874524D01*
X11014524Y-16893571D01*
X11024048Y-16931667D01*
X11024048Y-16979286D01*
X11014524Y-17017381D01*
X11005000Y-17036429D01*
X10995476Y-17045952D01*
X10976429Y-17055476D01*
X10957381Y-17055476D01*
X10938333Y-17045952D01*
X10928810Y-17036429D01*
X10919286Y-17017381D01*
X10909762Y-16979286D01*
X10909762Y-16931667D01*
X10919286Y-16893571D01*
X10928810Y-16874524D01*
X10938333Y-16865000D01*
X10957381Y-16855476D01*
X11109762Y-17055476D02*
X11109762Y-16922143D01*
X11109762Y-16941190D02*
X11119286Y-16931667D01*
X11138333Y-16922143D01*
X11166905Y-16922143D01*
X11185952Y-16931667D01*
X11195476Y-16950714D01*
X11195476Y-17055476D01*
X11195476Y-16950714D02*
X11205000Y-16931667D01*
X11224048Y-16922143D01*
X11252619Y-16922143D01*
X11271667Y-16931667D01*
X11281190Y-16950714D01*
X11281190Y-17055476D01*
X11376428Y-17055476D02*
X11376428Y-16922143D01*
X11376428Y-16941190D02*
X11385952Y-16931667D01*
X11405000Y-16922143D01*
X11433571Y-16922143D01*
X11452619Y-16931667D01*
X11462143Y-16950714D01*
X11462143Y-17055476D01*
X11462143Y-16950714D02*
X11471667Y-16931667D01*
X11490714Y-16922143D01*
X11519286Y-16922143D01*
X11538333Y-16931667D01*
X11547857Y-16950714D01*
X11547857Y-17055476D01*
X11938333Y-16845952D02*
X11766905Y-17103095D01*
X12195476Y-16855476D02*
X12214524Y-16855476D01*
X12233571Y-16865000D01*
X12243095Y-16874524D01*
X12252619Y-16893571D01*
X12262143Y-16931667D01*
X12262143Y-16979286D01*
X12252619Y-17017381D01*
X12243095Y-17036429D01*
X12233571Y-17045952D01*
X12214524Y-17055476D01*
X12195476Y-17055476D01*
X12176428Y-17045952D01*
X12166905Y-17036429D01*
X12157381Y-17017381D01*
X12147857Y-16979286D01*
X12147857Y-16931667D01*
X12157381Y-16893571D01*
X12166905Y-16874524D01*
X12176428Y-16865000D01*
X12195476Y-16855476D01*
X12347857Y-17036429D02*
X12357381Y-17045952D01*
X12347857Y-17055476D01*
X12338333Y-17045952D01*
X12347857Y-17036429D01*
X12347857Y-17055476D01*
X12481190Y-16855476D02*
X12500238Y-16855476D01*
X12519286Y-16865000D01*
X12528809Y-16874524D01*
X12538333Y-16893571D01*
X12547857Y-16931667D01*
X12547857Y-16979286D01*
X12538333Y-17017381D01*
X12528809Y-17036429D01*
X12519286Y-17045952D01*
X12500238Y-17055476D01*
X12481190Y-17055476D01*
X12462143Y-17045952D01*
X12452619Y-17036429D01*
X12443095Y-17017381D01*
X12433571Y-16979286D01*
X12433571Y-16931667D01*
X12443095Y-16893571D01*
X12452619Y-16874524D01*
X12462143Y-16865000D01*
X12481190Y-16855476D01*
X12614524Y-16855476D02*
X12738333Y-16855476D01*
X12671667Y-16931667D01*
X12700238Y-16931667D01*
X12719286Y-16941190D01*
X12728809Y-16950714D01*
X12738333Y-16969762D01*
X12738333Y-17017381D01*
X12728809Y-17036429D01*
X12719286Y-17045952D01*
X12700238Y-17055476D01*
X12643095Y-17055476D01*
X12624048Y-17045952D01*
X12614524Y-17036429D01*
X12833571Y-17055476D02*
X12871667Y-17055476D01*
X12890714Y-17045952D01*
X12900238Y-17036429D01*
X12919286Y-17007857D01*
X12928809Y-16969762D01*
X12928809Y-16893571D01*
X12919286Y-16874524D01*
X12909762Y-16865000D01*
X12890714Y-16855476D01*
X12852619Y-16855476D01*
X12833571Y-16865000D01*
X12824048Y-16874524D01*
X12814524Y-16893571D01*
X12814524Y-16941190D01*
X12824048Y-16960238D01*
X12833571Y-16969762D01*
X12852619Y-16979286D01*
X12890714Y-16979286D01*
X12909762Y-16969762D01*
X12919286Y-16960238D01*
X12928809Y-16941190D01*
X13100238Y-16922143D02*
X13100238Y-17055476D01*
X13052619Y-16845952D02*
X13005000Y-16988810D01*
X13128809Y-16988810D01*
X13195476Y-16855476D02*
X13195476Y-16893571D01*
X13271667Y-16855476D02*
X13271667Y-16893571D01*
X13566905Y-17131667D02*
X13557381Y-17122143D01*
X13538333Y-17093571D01*
X13528809Y-17074524D01*
X13519286Y-17045952D01*
X13509762Y-16998333D01*
X13509762Y-16960238D01*
X13519286Y-16912619D01*
X13528809Y-16884048D01*
X13538333Y-16865000D01*
X13557381Y-16836429D01*
X13566905Y-16826905D01*
X13624048Y-16855476D02*
X13747857Y-16855476D01*
X13681190Y-16931667D01*
X13709762Y-16931667D01*
X13728809Y-16941190D01*
X13738333Y-16950714D01*
X13747857Y-16969762D01*
X13747857Y-17017381D01*
X13738333Y-17036429D01*
X13728809Y-17045952D01*
X13709762Y-17055476D01*
X13652619Y-17055476D01*
X13633571Y-17045952D01*
X13624048Y-17036429D01*
X13814524Y-16855476D02*
X13947857Y-16855476D01*
X13862143Y-17055476D01*
X14176428Y-17055476D02*
X14176428Y-16855476D01*
X14262143Y-17055476D02*
X14262143Y-16950714D01*
X14252619Y-16931667D01*
X14233571Y-16922143D01*
X14205000Y-16922143D01*
X14185952Y-16931667D01*
X14176428Y-16941190D01*
X14385952Y-17055476D02*
X14366905Y-17045952D01*
X14357381Y-17036429D01*
X14347857Y-17017381D01*
X14347857Y-16960238D01*
X14357381Y-16941190D01*
X14366905Y-16931667D01*
X14385952Y-16922143D01*
X14414524Y-16922143D01*
X14433571Y-16931667D01*
X14443095Y-16941190D01*
X14452619Y-16960238D01*
X14452619Y-17017381D01*
X14443095Y-17036429D01*
X14433571Y-17045952D01*
X14414524Y-17055476D01*
X14385952Y-17055476D01*
X14566905Y-17055476D02*
X14547857Y-17045952D01*
X14538333Y-17026905D01*
X14538333Y-16855476D01*
X14719286Y-17045952D02*
X14700238Y-17055476D01*
X14662143Y-17055476D01*
X14643095Y-17045952D01*
X14633571Y-17026905D01*
X14633571Y-16950714D01*
X14643095Y-16931667D01*
X14662143Y-16922143D01*
X14700238Y-16922143D01*
X14719286Y-16931667D01*
X14728809Y-16950714D01*
X14728809Y-16969762D01*
X14633571Y-16988810D01*
X14805000Y-17045952D02*
X14824048Y-17055476D01*
X14862143Y-17055476D01*
X14881190Y-17045952D01*
X14890714Y-17026905D01*
X14890714Y-17017381D01*
X14881190Y-16998333D01*
X14862143Y-16988810D01*
X14833571Y-16988810D01*
X14814524Y-16979286D01*
X14805000Y-16960238D01*
X14805000Y-16950714D01*
X14814524Y-16931667D01*
X14833571Y-16922143D01*
X14862143Y-16922143D01*
X14881190Y-16931667D01*
X14957381Y-17131667D02*
X14966905Y-17122143D01*
X14985952Y-17093571D01*
X14995476Y-17074524D01*
X15005000Y-17045952D01*
X15014524Y-16998333D01*
X15014524Y-16960238D01*
X15005000Y-16912619D01*
X14995476Y-16884048D01*
X14985952Y-16865000D01*
X14966905Y-16836429D01*
X14957381Y-16826905D01*
D17*
X9865000Y-17164000D02*
X9995000Y-17294000D01*
X9995000Y-17164000D02*
X9865000Y-17294000D01*
X9930000Y-17164000D02*
X9930000Y-17294000D01*
X9865000Y-17229000D02*
X9995000Y-17229000D01*
D11*
X10357381Y-17319476D02*
X10243095Y-17319476D01*
X10300238Y-17319476D02*
X10300238Y-17119476D01*
X10281190Y-17148048D01*
X10262143Y-17167095D01*
X10243095Y-17176619D01*
X10443095Y-17300429D02*
X10452619Y-17309952D01*
X10443095Y-17319476D01*
X10433571Y-17309952D01*
X10443095Y-17300429D01*
X10443095Y-17319476D01*
X10519286Y-17119476D02*
X10643095Y-17119476D01*
X10576429Y-17195667D01*
X10605000Y-17195667D01*
X10624048Y-17205190D01*
X10633571Y-17214714D01*
X10643095Y-17233762D01*
X10643095Y-17281381D01*
X10633571Y-17300429D01*
X10624048Y-17309952D01*
X10605000Y-17319476D01*
X10547857Y-17319476D01*
X10528810Y-17309952D01*
X10519286Y-17300429D01*
X10766905Y-17119476D02*
X10785952Y-17119476D01*
X10805000Y-17129000D01*
X10814524Y-17138524D01*
X10824048Y-17157571D01*
X10833571Y-17195667D01*
X10833571Y-17243286D01*
X10824048Y-17281381D01*
X10814524Y-17300429D01*
X10805000Y-17309952D01*
X10785952Y-17319476D01*
X10766905Y-17319476D01*
X10747857Y-17309952D01*
X10738333Y-17300429D01*
X10728810Y-17281381D01*
X10719286Y-17243286D01*
X10719286Y-17195667D01*
X10728810Y-17157571D01*
X10738333Y-17138524D01*
X10747857Y-17129000D01*
X10766905Y-17119476D01*
X10957381Y-17119476D02*
X10976429Y-17119476D01*
X10995476Y-17129000D01*
X11005000Y-17138524D01*
X11014524Y-17157571D01*
X11024048Y-17195667D01*
X11024048Y-17243286D01*
X11014524Y-17281381D01*
X11005000Y-17300429D01*
X10995476Y-17309952D01*
X10976429Y-17319476D01*
X10957381Y-17319476D01*
X10938333Y-17309952D01*
X10928810Y-17300429D01*
X10919286Y-17281381D01*
X10909762Y-17243286D01*
X10909762Y-17195667D01*
X10919286Y-17157571D01*
X10928810Y-17138524D01*
X10938333Y-17129000D01*
X10957381Y-17119476D01*
X11109762Y-17319476D02*
X11109762Y-17186143D01*
X11109762Y-17205190D02*
X11119286Y-17195667D01*
X11138333Y-17186143D01*
X11166905Y-17186143D01*
X11185952Y-17195667D01*
X11195476Y-17214714D01*
X11195476Y-17319476D01*
X11195476Y-17214714D02*
X11205000Y-17195667D01*
X11224048Y-17186143D01*
X11252619Y-17186143D01*
X11271667Y-17195667D01*
X11281190Y-17214714D01*
X11281190Y-17319476D01*
X11376428Y-17319476D02*
X11376428Y-17186143D01*
X11376428Y-17205190D02*
X11385952Y-17195667D01*
X11405000Y-17186143D01*
X11433571Y-17186143D01*
X11452619Y-17195667D01*
X11462143Y-17214714D01*
X11462143Y-17319476D01*
X11462143Y-17214714D02*
X11471667Y-17195667D01*
X11490714Y-17186143D01*
X11519286Y-17186143D01*
X11538333Y-17195667D01*
X11547857Y-17214714D01*
X11547857Y-17319476D01*
X11938333Y-17109952D02*
X11766905Y-17367095D01*
X12195476Y-17119476D02*
X12214524Y-17119476D01*
X12233571Y-17129000D01*
X12243095Y-17138524D01*
X12252619Y-17157571D01*
X12262143Y-17195667D01*
X12262143Y-17243286D01*
X12252619Y-17281381D01*
X12243095Y-17300429D01*
X12233571Y-17309952D01*
X12214524Y-17319476D01*
X12195476Y-17319476D01*
X12176428Y-17309952D01*
X12166905Y-17300429D01*
X12157381Y-17281381D01*
X12147857Y-17243286D01*
X12147857Y-17195667D01*
X12157381Y-17157571D01*
X12166905Y-17138524D01*
X12176428Y-17129000D01*
X12195476Y-17119476D01*
X12347857Y-17300429D02*
X12357381Y-17309952D01*
X12347857Y-17319476D01*
X12338333Y-17309952D01*
X12347857Y-17300429D01*
X12347857Y-17319476D01*
X12481190Y-17119476D02*
X12500238Y-17119476D01*
X12519286Y-17129000D01*
X12528809Y-17138524D01*
X12538333Y-17157571D01*
X12547857Y-17195667D01*
X12547857Y-17243286D01*
X12538333Y-17281381D01*
X12528809Y-17300429D01*
X12519286Y-17309952D01*
X12500238Y-17319476D01*
X12481190Y-17319476D01*
X12462143Y-17309952D01*
X12452619Y-17300429D01*
X12443095Y-17281381D01*
X12433571Y-17243286D01*
X12433571Y-17195667D01*
X12443095Y-17157571D01*
X12452619Y-17138524D01*
X12462143Y-17129000D01*
X12481190Y-17119476D01*
X12728809Y-17119476D02*
X12633571Y-17119476D01*
X12624048Y-17214714D01*
X12633571Y-17205190D01*
X12652619Y-17195667D01*
X12700238Y-17195667D01*
X12719286Y-17205190D01*
X12728809Y-17214714D01*
X12738333Y-17233762D01*
X12738333Y-17281381D01*
X12728809Y-17300429D01*
X12719286Y-17309952D01*
X12700238Y-17319476D01*
X12652619Y-17319476D01*
X12633571Y-17309952D01*
X12624048Y-17300429D01*
X12928809Y-17319476D02*
X12814524Y-17319476D01*
X12871667Y-17319476D02*
X12871667Y-17119476D01*
X12852619Y-17148048D01*
X12833571Y-17167095D01*
X12814524Y-17176619D01*
X13005000Y-17138524D02*
X13014524Y-17129000D01*
X13033571Y-17119476D01*
X13081190Y-17119476D01*
X13100238Y-17129000D01*
X13109762Y-17138524D01*
X13119286Y-17157571D01*
X13119286Y-17176619D01*
X13109762Y-17205190D01*
X12995476Y-17319476D01*
X13119286Y-17319476D01*
X13195476Y-17119476D02*
X13195476Y-17157571D01*
X13271667Y-17119476D02*
X13271667Y-17157571D01*
X13566905Y-17395667D02*
X13557381Y-17386143D01*
X13538333Y-17357571D01*
X13528809Y-17338524D01*
X13519286Y-17309952D01*
X13509762Y-17262333D01*
X13509762Y-17224238D01*
X13519286Y-17176619D01*
X13528809Y-17148048D01*
X13538333Y-17129000D01*
X13557381Y-17100429D01*
X13566905Y-17090905D01*
X13633571Y-17138524D02*
X13643095Y-17129000D01*
X13662143Y-17119476D01*
X13709762Y-17119476D01*
X13728809Y-17129000D01*
X13738333Y-17138524D01*
X13747857Y-17157571D01*
X13747857Y-17176619D01*
X13738333Y-17205190D01*
X13624048Y-17319476D01*
X13747857Y-17319476D01*
X13985952Y-17319476D02*
X13985952Y-17119476D01*
X14071667Y-17319476D02*
X14071667Y-17214714D01*
X14062143Y-17195667D01*
X14043095Y-17186143D01*
X14014524Y-17186143D01*
X13995476Y-17195667D01*
X13985952Y-17205190D01*
X14195476Y-17319476D02*
X14176428Y-17309952D01*
X14166905Y-17300429D01*
X14157381Y-17281381D01*
X14157381Y-17224238D01*
X14166905Y-17205190D01*
X14176428Y-17195667D01*
X14195476Y-17186143D01*
X14224048Y-17186143D01*
X14243095Y-17195667D01*
X14252619Y-17205190D01*
X14262143Y-17224238D01*
X14262143Y-17281381D01*
X14252619Y-17300429D01*
X14243095Y-17309952D01*
X14224048Y-17319476D01*
X14195476Y-17319476D01*
X14376428Y-17319476D02*
X14357381Y-17309952D01*
X14347857Y-17290905D01*
X14347857Y-17119476D01*
X14528809Y-17309952D02*
X14509762Y-17319476D01*
X14471667Y-17319476D01*
X14452619Y-17309952D01*
X14443095Y-17290905D01*
X14443095Y-17214714D01*
X14452619Y-17195667D01*
X14471667Y-17186143D01*
X14509762Y-17186143D01*
X14528809Y-17195667D01*
X14538333Y-17214714D01*
X14538333Y-17233762D01*
X14443095Y-17252810D01*
X14614524Y-17309952D02*
X14633571Y-17319476D01*
X14671667Y-17319476D01*
X14690714Y-17309952D01*
X14700238Y-17290905D01*
X14700238Y-17281381D01*
X14690714Y-17262333D01*
X14671667Y-17252810D01*
X14643095Y-17252810D01*
X14624048Y-17243286D01*
X14614524Y-17224238D01*
X14614524Y-17214714D01*
X14624048Y-17195667D01*
X14643095Y-17186143D01*
X14671667Y-17186143D01*
X14690714Y-17195667D01*
X14766905Y-17395667D02*
X14776428Y-17386143D01*
X14795476Y-17357571D01*
X14805000Y-17338524D01*
X14814524Y-17309952D01*
X14824048Y-17262333D01*
X14824048Y-17224238D01*
X14814524Y-17176619D01*
X14805000Y-17148048D01*
X14795476Y-17129000D01*
X14776428Y-17100429D01*
X14766905Y-17090905D01*
D18*
X9805000Y-17398000D02*
X9995000Y-17588000D01*
X9995000Y-17398000D02*
X9805000Y-17588000D01*
X9967176Y-17560176D02*
X9967176Y-17425824D01*
X9832824Y-17425824D01*
X9832824Y-17560176D01*
X9967176Y-17560176D01*
D11*
X10357381Y-17583476D02*
X10243095Y-17583476D01*
X10300238Y-17583476D02*
X10300238Y-17383476D01*
X10281190Y-17412048D01*
X10262143Y-17431095D01*
X10243095Y-17440619D01*
X10443095Y-17564429D02*
X10452619Y-17573952D01*
X10443095Y-17583476D01*
X10433571Y-17573952D01*
X10443095Y-17564429D01*
X10443095Y-17583476D01*
X10547857Y-17583476D02*
X10585952Y-17583476D01*
X10605000Y-17573952D01*
X10614524Y-17564429D01*
X10633571Y-17535857D01*
X10643095Y-17497762D01*
X10643095Y-17421571D01*
X10633571Y-17402524D01*
X10624048Y-17393000D01*
X10605000Y-17383476D01*
X10566905Y-17383476D01*
X10547857Y-17393000D01*
X10538333Y-17402524D01*
X10528810Y-17421571D01*
X10528810Y-17469190D01*
X10538333Y-17488238D01*
X10547857Y-17497762D01*
X10566905Y-17507286D01*
X10605000Y-17507286D01*
X10624048Y-17497762D01*
X10633571Y-17488238D01*
X10643095Y-17469190D01*
X10766905Y-17383476D02*
X10785952Y-17383476D01*
X10805000Y-17393000D01*
X10814524Y-17402524D01*
X10824048Y-17421571D01*
X10833571Y-17459667D01*
X10833571Y-17507286D01*
X10824048Y-17545381D01*
X10814524Y-17564429D01*
X10805000Y-17573952D01*
X10785952Y-17583476D01*
X10766905Y-17583476D01*
X10747857Y-17573952D01*
X10738333Y-17564429D01*
X10728810Y-17545381D01*
X10719286Y-17507286D01*
X10719286Y-17459667D01*
X10728810Y-17421571D01*
X10738333Y-17402524D01*
X10747857Y-17393000D01*
X10766905Y-17383476D01*
X10957381Y-17383476D02*
X10976429Y-17383476D01*
X10995476Y-17393000D01*
X11005000Y-17402524D01*
X11014524Y-17421571D01*
X11024048Y-17459667D01*
X11024048Y-17507286D01*
X11014524Y-17545381D01*
X11005000Y-17564429D01*
X10995476Y-17573952D01*
X10976429Y-17583476D01*
X10957381Y-17583476D01*
X10938333Y-17573952D01*
X10928810Y-17564429D01*
X10919286Y-17545381D01*
X10909762Y-17507286D01*
X10909762Y-17459667D01*
X10919286Y-17421571D01*
X10928810Y-17402524D01*
X10938333Y-17393000D01*
X10957381Y-17383476D01*
X11109762Y-17583476D02*
X11109762Y-17450143D01*
X11109762Y-17469190D02*
X11119286Y-17459667D01*
X11138333Y-17450143D01*
X11166905Y-17450143D01*
X11185952Y-17459667D01*
X11195476Y-17478714D01*
X11195476Y-17583476D01*
X11195476Y-17478714D02*
X11205000Y-17459667D01*
X11224048Y-17450143D01*
X11252619Y-17450143D01*
X11271667Y-17459667D01*
X11281190Y-17478714D01*
X11281190Y-17583476D01*
X11376428Y-17583476D02*
X11376428Y-17450143D01*
X11376428Y-17469190D02*
X11385952Y-17459667D01*
X11405000Y-17450143D01*
X11433571Y-17450143D01*
X11452619Y-17459667D01*
X11462143Y-17478714D01*
X11462143Y-17583476D01*
X11462143Y-17478714D02*
X11471667Y-17459667D01*
X11490714Y-17450143D01*
X11519286Y-17450143D01*
X11538333Y-17459667D01*
X11547857Y-17478714D01*
X11547857Y-17583476D01*
X11938333Y-17373952D02*
X11766905Y-17631095D01*
X12195476Y-17383476D02*
X12214524Y-17383476D01*
X12233571Y-17393000D01*
X12243095Y-17402524D01*
X12252619Y-17421571D01*
X12262143Y-17459667D01*
X12262143Y-17507286D01*
X12252619Y-17545381D01*
X12243095Y-17564429D01*
X12233571Y-17573952D01*
X12214524Y-17583476D01*
X12195476Y-17583476D01*
X12176428Y-17573952D01*
X12166905Y-17564429D01*
X12157381Y-17545381D01*
X12147857Y-17507286D01*
X12147857Y-17459667D01*
X12157381Y-17421571D01*
X12166905Y-17402524D01*
X12176428Y-17393000D01*
X12195476Y-17383476D01*
X12347857Y-17564429D02*
X12357381Y-17573952D01*
X12347857Y-17583476D01*
X12338333Y-17573952D01*
X12347857Y-17564429D01*
X12347857Y-17583476D01*
X12481190Y-17383476D02*
X12500238Y-17383476D01*
X12519286Y-17393000D01*
X12528809Y-17402524D01*
X12538333Y-17421571D01*
X12547857Y-17459667D01*
X12547857Y-17507286D01*
X12538333Y-17545381D01*
X12528809Y-17564429D01*
X12519286Y-17573952D01*
X12500238Y-17583476D01*
X12481190Y-17583476D01*
X12462143Y-17573952D01*
X12452619Y-17564429D01*
X12443095Y-17545381D01*
X12433571Y-17507286D01*
X12433571Y-17459667D01*
X12443095Y-17421571D01*
X12452619Y-17402524D01*
X12462143Y-17393000D01*
X12481190Y-17383476D01*
X12614524Y-17383476D02*
X12747857Y-17383476D01*
X12662143Y-17583476D01*
X12909762Y-17450143D02*
X12909762Y-17583476D01*
X12862143Y-17373952D02*
X12814524Y-17516810D01*
X12938333Y-17516810D01*
X13043095Y-17469190D02*
X13024048Y-17459667D01*
X13014524Y-17450143D01*
X13005000Y-17431095D01*
X13005000Y-17421571D01*
X13014524Y-17402524D01*
X13024048Y-17393000D01*
X13043095Y-17383476D01*
X13081190Y-17383476D01*
X13100238Y-17393000D01*
X13109762Y-17402524D01*
X13119286Y-17421571D01*
X13119286Y-17431095D01*
X13109762Y-17450143D01*
X13100238Y-17459667D01*
X13081190Y-17469190D01*
X13043095Y-17469190D01*
X13024048Y-17478714D01*
X13014524Y-17488238D01*
X13005000Y-17507286D01*
X13005000Y-17545381D01*
X13014524Y-17564429D01*
X13024048Y-17573952D01*
X13043095Y-17583476D01*
X13081190Y-17583476D01*
X13100238Y-17573952D01*
X13109762Y-17564429D01*
X13119286Y-17545381D01*
X13119286Y-17507286D01*
X13109762Y-17488238D01*
X13100238Y-17478714D01*
X13081190Y-17469190D01*
X13195476Y-17383476D02*
X13195476Y-17421571D01*
X13271667Y-17383476D02*
X13271667Y-17421571D01*
X13566905Y-17659667D02*
X13557381Y-17650143D01*
X13538333Y-17621571D01*
X13528809Y-17602524D01*
X13519286Y-17573952D01*
X13509762Y-17526333D01*
X13509762Y-17488238D01*
X13519286Y-17440619D01*
X13528809Y-17412048D01*
X13538333Y-17393000D01*
X13557381Y-17364429D01*
X13566905Y-17354905D01*
X13633571Y-17402524D02*
X13643095Y-17393000D01*
X13662143Y-17383476D01*
X13709762Y-17383476D01*
X13728809Y-17393000D01*
X13738333Y-17402524D01*
X13747857Y-17421571D01*
X13747857Y-17440619D01*
X13738333Y-17469190D01*
X13624048Y-17583476D01*
X13747857Y-17583476D01*
X13985952Y-17583476D02*
X13985952Y-17383476D01*
X14071667Y-17583476D02*
X14071667Y-17478714D01*
X14062143Y-17459667D01*
X14043095Y-17450143D01*
X14014524Y-17450143D01*
X13995476Y-17459667D01*
X13985952Y-17469190D01*
X14195476Y-17583476D02*
X14176428Y-17573952D01*
X14166905Y-17564429D01*
X14157381Y-17545381D01*
X14157381Y-17488238D01*
X14166905Y-17469190D01*
X14176428Y-17459667D01*
X14195476Y-17450143D01*
X14224048Y-17450143D01*
X14243095Y-17459667D01*
X14252619Y-17469190D01*
X14262143Y-17488238D01*
X14262143Y-17545381D01*
X14252619Y-17564429D01*
X14243095Y-17573952D01*
X14224048Y-17583476D01*
X14195476Y-17583476D01*
X14376428Y-17583476D02*
X14357381Y-17573952D01*
X14347857Y-17554905D01*
X14347857Y-17383476D01*
X14528809Y-17573952D02*
X14509762Y-17583476D01*
X14471667Y-17583476D01*
X14452619Y-17573952D01*
X14443095Y-17554905D01*
X14443095Y-17478714D01*
X14452619Y-17459667D01*
X14471667Y-17450143D01*
X14509762Y-17450143D01*
X14528809Y-17459667D01*
X14538333Y-17478714D01*
X14538333Y-17497762D01*
X14443095Y-17516810D01*
X14614524Y-17573952D02*
X14633571Y-17583476D01*
X14671667Y-17583476D01*
X14690714Y-17573952D01*
X14700238Y-17554905D01*
X14700238Y-17545381D01*
X14690714Y-17526333D01*
X14671667Y-17516810D01*
X14643095Y-17516810D01*
X14624048Y-17507286D01*
X14614524Y-17488238D01*
X14614524Y-17478714D01*
X14624048Y-17459667D01*
X14643095Y-17450143D01*
X14671667Y-17450143D01*
X14690714Y-17459667D01*
X14766905Y-17659667D02*
X14776428Y-17650143D01*
X14795476Y-17621571D01*
X14805000Y-17602524D01*
X14814524Y-17573952D01*
X14824048Y-17526333D01*
X14824048Y-17488238D01*
X14814524Y-17440619D01*
X14805000Y-17412048D01*
X14795476Y-17393000D01*
X14776428Y-17364429D01*
X14766905Y-17354905D01*
X9795000Y-17703000D02*
X9995000Y-17903000D01*
X9995000Y-17703000D02*
X9795000Y-17903000D01*
X9895000Y-17903000D02*
X9995000Y-17803000D01*
X9895000Y-17703000D01*
X9795000Y-17803000D01*
X9895000Y-17903000D01*
X10233571Y-17693476D02*
X10357381Y-17693476D01*
X10290714Y-17769667D01*
X10319286Y-17769667D01*
X10338333Y-17779190D01*
X10347857Y-17788714D01*
X10357381Y-17807762D01*
X10357381Y-17855381D01*
X10347857Y-17874429D01*
X10338333Y-17883952D01*
X10319286Y-17893476D01*
X10262143Y-17893476D01*
X10243095Y-17883952D01*
X10233571Y-17874429D01*
X10443095Y-17874429D02*
X10452619Y-17883952D01*
X10443095Y-17893476D01*
X10433571Y-17883952D01*
X10443095Y-17874429D01*
X10443095Y-17893476D01*
X10528810Y-17712524D02*
X10538333Y-17703000D01*
X10557381Y-17693476D01*
X10605000Y-17693476D01*
X10624048Y-17703000D01*
X10633571Y-17712524D01*
X10643095Y-17731571D01*
X10643095Y-17750619D01*
X10633571Y-17779190D01*
X10519286Y-17893476D01*
X10643095Y-17893476D01*
X10766905Y-17693476D02*
X10785952Y-17693476D01*
X10805000Y-17703000D01*
X10814524Y-17712524D01*
X10824048Y-17731571D01*
X10833571Y-17769667D01*
X10833571Y-17817286D01*
X10824048Y-17855381D01*
X10814524Y-17874429D01*
X10805000Y-17883952D01*
X10785952Y-17893476D01*
X10766905Y-17893476D01*
X10747857Y-17883952D01*
X10738333Y-17874429D01*
X10728810Y-17855381D01*
X10719286Y-17817286D01*
X10719286Y-17769667D01*
X10728810Y-17731571D01*
X10738333Y-17712524D01*
X10747857Y-17703000D01*
X10766905Y-17693476D01*
X10957381Y-17693476D02*
X10976429Y-17693476D01*
X10995476Y-17703000D01*
X11005000Y-17712524D01*
X11014524Y-17731571D01*
X11024048Y-17769667D01*
X11024048Y-17817286D01*
X11014524Y-17855381D01*
X11005000Y-17874429D01*
X10995476Y-17883952D01*
X10976429Y-17893476D01*
X10957381Y-17893476D01*
X10938333Y-17883952D01*
X10928810Y-17874429D01*
X10919286Y-17855381D01*
X10909762Y-17817286D01*
X10909762Y-17769667D01*
X10919286Y-17731571D01*
X10928810Y-17712524D01*
X10938333Y-17703000D01*
X10957381Y-17693476D01*
X11109762Y-17893476D02*
X11109762Y-17760143D01*
X11109762Y-17779190D02*
X11119286Y-17769667D01*
X11138333Y-17760143D01*
X11166905Y-17760143D01*
X11185952Y-17769667D01*
X11195476Y-17788714D01*
X11195476Y-17893476D01*
X11195476Y-17788714D02*
X11205000Y-17769667D01*
X11224048Y-17760143D01*
X11252619Y-17760143D01*
X11271667Y-17769667D01*
X11281190Y-17788714D01*
X11281190Y-17893476D01*
X11376428Y-17893476D02*
X11376428Y-17760143D01*
X11376428Y-17779190D02*
X11385952Y-17769667D01*
X11405000Y-17760143D01*
X11433571Y-17760143D01*
X11452619Y-17769667D01*
X11462143Y-17788714D01*
X11462143Y-17893476D01*
X11462143Y-17788714D02*
X11471667Y-17769667D01*
X11490714Y-17760143D01*
X11519286Y-17760143D01*
X11538333Y-17769667D01*
X11547857Y-17788714D01*
X11547857Y-17893476D01*
X11938333Y-17683952D02*
X11766905Y-17941095D01*
X12195476Y-17693476D02*
X12214524Y-17693476D01*
X12233571Y-17703000D01*
X12243095Y-17712524D01*
X12252619Y-17731571D01*
X12262143Y-17769667D01*
X12262143Y-17817286D01*
X12252619Y-17855381D01*
X12243095Y-17874429D01*
X12233571Y-17883952D01*
X12214524Y-17893476D01*
X12195476Y-17893476D01*
X12176428Y-17883952D01*
X12166905Y-17874429D01*
X12157381Y-17855381D01*
X12147857Y-17817286D01*
X12147857Y-17769667D01*
X12157381Y-17731571D01*
X12166905Y-17712524D01*
X12176428Y-17703000D01*
X12195476Y-17693476D01*
X12347857Y-17874429D02*
X12357381Y-17883952D01*
X12347857Y-17893476D01*
X12338333Y-17883952D01*
X12347857Y-17874429D01*
X12347857Y-17893476D01*
X12547857Y-17893476D02*
X12433571Y-17893476D01*
X12490714Y-17893476D02*
X12490714Y-17693476D01*
X12471667Y-17722048D01*
X12452619Y-17741095D01*
X12433571Y-17750619D01*
X12624048Y-17712524D02*
X12633571Y-17703000D01*
X12652619Y-17693476D01*
X12700238Y-17693476D01*
X12719286Y-17703000D01*
X12728809Y-17712524D01*
X12738333Y-17731571D01*
X12738333Y-17750619D01*
X12728809Y-17779190D01*
X12614524Y-17893476D01*
X12738333Y-17893476D01*
X12909762Y-17693476D02*
X12871667Y-17693476D01*
X12852619Y-17703000D01*
X12843095Y-17712524D01*
X12824048Y-17741095D01*
X12814524Y-17779190D01*
X12814524Y-17855381D01*
X12824048Y-17874429D01*
X12833571Y-17883952D01*
X12852619Y-17893476D01*
X12890714Y-17893476D01*
X12909762Y-17883952D01*
X12919286Y-17874429D01*
X12928809Y-17855381D01*
X12928809Y-17807762D01*
X12919286Y-17788714D01*
X12909762Y-17779190D01*
X12890714Y-17769667D01*
X12852619Y-17769667D01*
X12833571Y-17779190D01*
X12824048Y-17788714D01*
X12814524Y-17807762D01*
X13052619Y-17693476D02*
X13071667Y-17693476D01*
X13090714Y-17703000D01*
X13100238Y-17712524D01*
X13109762Y-17731571D01*
X13119286Y-17769667D01*
X13119286Y-17817286D01*
X13109762Y-17855381D01*
X13100238Y-17874429D01*
X13090714Y-17883952D01*
X13071667Y-17893476D01*
X13052619Y-17893476D01*
X13033571Y-17883952D01*
X13024048Y-17874429D01*
X13014524Y-17855381D01*
X13005000Y-17817286D01*
X13005000Y-17769667D01*
X13014524Y-17731571D01*
X13024048Y-17712524D01*
X13033571Y-17703000D01*
X13052619Y-17693476D01*
X13195476Y-17693476D02*
X13195476Y-17731571D01*
X13271667Y-17693476D02*
X13271667Y-17731571D01*
X13566905Y-17969667D02*
X13557381Y-17960143D01*
X13538333Y-17931571D01*
X13528809Y-17912524D01*
X13519286Y-17883952D01*
X13509762Y-17836333D01*
X13509762Y-17798238D01*
X13519286Y-17750619D01*
X13528809Y-17722048D01*
X13538333Y-17703000D01*
X13557381Y-17674429D01*
X13566905Y-17664905D01*
X13728809Y-17693476D02*
X13690714Y-17693476D01*
X13671667Y-17703000D01*
X13662143Y-17712524D01*
X13643095Y-17741095D01*
X13633571Y-17779190D01*
X13633571Y-17855381D01*
X13643095Y-17874429D01*
X13652619Y-17883952D01*
X13671667Y-17893476D01*
X13709762Y-17893476D01*
X13728809Y-17883952D01*
X13738333Y-17874429D01*
X13747857Y-17855381D01*
X13747857Y-17807762D01*
X13738333Y-17788714D01*
X13728809Y-17779190D01*
X13709762Y-17769667D01*
X13671667Y-17769667D01*
X13652619Y-17779190D01*
X13643095Y-17788714D01*
X13633571Y-17807762D01*
X13985952Y-17893476D02*
X13985952Y-17693476D01*
X14071667Y-17893476D02*
X14071667Y-17788714D01*
X14062143Y-17769667D01*
X14043095Y-17760143D01*
X14014524Y-17760143D01*
X13995476Y-17769667D01*
X13985952Y-17779190D01*
X14195476Y-17893476D02*
X14176428Y-17883952D01*
X14166905Y-17874429D01*
X14157381Y-17855381D01*
X14157381Y-17798238D01*
X14166905Y-17779190D01*
X14176428Y-17769667D01*
X14195476Y-17760143D01*
X14224048Y-17760143D01*
X14243095Y-17769667D01*
X14252619Y-17779190D01*
X14262143Y-17798238D01*
X14262143Y-17855381D01*
X14252619Y-17874429D01*
X14243095Y-17883952D01*
X14224048Y-17893476D01*
X14195476Y-17893476D01*
X14376428Y-17893476D02*
X14357381Y-17883952D01*
X14347857Y-17864905D01*
X14347857Y-17693476D01*
X14528809Y-17883952D02*
X14509762Y-17893476D01*
X14471667Y-17893476D01*
X14452619Y-17883952D01*
X14443095Y-17864905D01*
X14443095Y-17788714D01*
X14452619Y-17769667D01*
X14471667Y-17760143D01*
X14509762Y-17760143D01*
X14528809Y-17769667D01*
X14538333Y-17788714D01*
X14538333Y-17807762D01*
X14443095Y-17826810D01*
X14614524Y-17883952D02*
X14633571Y-17893476D01*
X14671667Y-17893476D01*
X14690714Y-17883952D01*
X14700238Y-17864905D01*
X14700238Y-17855381D01*
X14690714Y-17836333D01*
X14671667Y-17826810D01*
X14643095Y-17826810D01*
X14624048Y-17817286D01*
X14614524Y-17798238D01*
X14614524Y-17788714D01*
X14624048Y-17769667D01*
X14643095Y-17760143D01*
X14671667Y-17760143D01*
X14690714Y-17769667D01*
X14766905Y-17969667D02*
X14776428Y-17960143D01*
X14795476Y-17931571D01*
X14805000Y-17912524D01*
X14814524Y-17883952D01*
X14824048Y-17836333D01*
X14824048Y-17798238D01*
X14814524Y-17750619D01*
X14805000Y-17722048D01*
X14795476Y-17703000D01*
X14776428Y-17674429D01*
X14766905Y-17664905D01*
M02*
