%TF.GenerationSoftware,KiCad,Pcbnew,6.0.10+dfsg-1~bpo11+1*%
%TF.ProjectId,project,70726f6a-6563-4742-9e6b-696361645f70,rev?*%
%TF.SameCoordinates,Original*%
%TF.FileFunction,Drillmap*%
%TF.FilePolarity,Positive*%
%FSLAX45Y45*%
G04 Gerber Fmt 4.5, Leading zero omitted, Abs format (unit mm)*
%MOMM*%
%LPD*%
G01*
G04 APERTURE LIST*
%ADD10C,0.100000*%
%ADD11C,0.200000*%
%ADD12C,0.115200*%
%ADD13C,0.325000*%
G04 APERTURE END LIST*
D10*
X10000000Y-14750000D02*
X10000000Y-5500000D01*
X10000000Y-14750000D02*
G75*
G03*
X10250000Y-15000000I250000J0D01*
G01*
X10500000Y-5000000D02*
G75*
G03*
X10000000Y-5500000I0J-500000D01*
G01*
X19750000Y-15000000D02*
G75*
G03*
X20000000Y-14750000I0J250000D01*
G01*
X20000000Y-5500000D02*
X20000000Y-14750000D01*
X10250000Y-15000000D02*
X19750000Y-15000000D01*
X20000000Y-5500000D02*
G75*
G03*
X19500000Y-5000000I-500000J0D01*
G01*
X10500000Y-5000000D02*
X19500000Y-5000000D01*
D11*
D12*
X10242400Y-13142400D02*
X10357600Y-13257600D01*
X10357600Y-13142400D02*
X10242400Y-13257600D01*
X10842400Y-5142400D02*
X10957600Y-5257600D01*
X10957600Y-5142400D02*
X10842400Y-5257600D01*
X19042400Y-5142400D02*
X19157600Y-5257600D01*
X19157600Y-5142400D02*
X19042400Y-5257600D01*
D13*
X10446500Y-14653000D02*
G75*
G03*
X10446500Y-14653000I-162500J0D01*
G01*
X13291500Y-14653000D02*
G75*
G03*
X13291500Y-14653000I-162500J0D01*
G01*
X13741500Y-14653000D02*
G75*
G03*
X13741500Y-14653000I-162500J0D01*
G01*
X16586500Y-14653000D02*
G75*
G03*
X16586500Y-14653000I-162500J0D01*
G01*
X17036500Y-14653000D02*
G75*
G03*
X17036500Y-14653000I-162500J0D01*
G01*
X19881500Y-14653000D02*
G75*
G03*
X19881500Y-14653000I-162500J0D01*
G01*
D11*
X10252619Y-15315476D02*
X10252619Y-15115476D01*
X10300238Y-15115476D01*
X10328810Y-15125000D01*
X10347857Y-15144048D01*
X10357381Y-15163095D01*
X10366905Y-15201190D01*
X10366905Y-15229762D01*
X10357381Y-15267857D01*
X10347857Y-15286905D01*
X10328810Y-15305952D01*
X10300238Y-15315476D01*
X10252619Y-15315476D01*
X10452619Y-15315476D02*
X10452619Y-15182143D01*
X10452619Y-15220238D02*
X10462143Y-15201190D01*
X10471667Y-15191667D01*
X10490714Y-15182143D01*
X10509762Y-15182143D01*
X10576429Y-15315476D02*
X10576429Y-15182143D01*
X10576429Y-15115476D02*
X10566905Y-15125000D01*
X10576429Y-15134524D01*
X10585952Y-15125000D01*
X10576429Y-15115476D01*
X10576429Y-15134524D01*
X10700238Y-15315476D02*
X10681190Y-15305952D01*
X10671667Y-15286905D01*
X10671667Y-15115476D01*
X10805000Y-15315476D02*
X10785952Y-15305952D01*
X10776429Y-15286905D01*
X10776429Y-15115476D01*
X11033571Y-15315476D02*
X11033571Y-15115476D01*
X11100238Y-15258333D01*
X11166905Y-15115476D01*
X11166905Y-15315476D01*
X11347857Y-15315476D02*
X11347857Y-15210714D01*
X11338333Y-15191667D01*
X11319286Y-15182143D01*
X11281190Y-15182143D01*
X11262143Y-15191667D01*
X11347857Y-15305952D02*
X11328809Y-15315476D01*
X11281190Y-15315476D01*
X11262143Y-15305952D01*
X11252619Y-15286905D01*
X11252619Y-15267857D01*
X11262143Y-15248809D01*
X11281190Y-15239286D01*
X11328809Y-15239286D01*
X11347857Y-15229762D01*
X11443095Y-15182143D02*
X11443095Y-15382143D01*
X11443095Y-15191667D02*
X11462143Y-15182143D01*
X11500238Y-15182143D01*
X11519286Y-15191667D01*
X11528809Y-15201190D01*
X11538333Y-15220238D01*
X11538333Y-15277381D01*
X11528809Y-15296428D01*
X11519286Y-15305952D01*
X11500238Y-15315476D01*
X11462143Y-15315476D01*
X11443095Y-15305952D01*
X11624048Y-15296428D02*
X11633571Y-15305952D01*
X11624048Y-15315476D01*
X11614524Y-15305952D01*
X11624048Y-15296428D01*
X11624048Y-15315476D01*
X11624048Y-15191667D02*
X11633571Y-15201190D01*
X11624048Y-15210714D01*
X11614524Y-15201190D01*
X11624048Y-15191667D01*
X11624048Y-15210714D01*
D12*
X9879800Y-15587400D02*
X9995000Y-15702600D01*
X9995000Y-15587400D02*
X9879800Y-15702600D01*
D11*
X10357381Y-15735476D02*
X10243095Y-15735476D01*
X10300238Y-15735476D02*
X10300238Y-15535476D01*
X10281190Y-15564048D01*
X10262143Y-15583095D01*
X10243095Y-15592619D01*
X10443095Y-15716428D02*
X10452619Y-15725952D01*
X10443095Y-15735476D01*
X10433571Y-15725952D01*
X10443095Y-15716428D01*
X10443095Y-15735476D01*
X10643095Y-15735476D02*
X10528810Y-15735476D01*
X10585952Y-15735476D02*
X10585952Y-15535476D01*
X10566905Y-15564048D01*
X10547857Y-15583095D01*
X10528810Y-15592619D01*
X10824048Y-15535476D02*
X10728810Y-15535476D01*
X10719286Y-15630714D01*
X10728810Y-15621190D01*
X10747857Y-15611667D01*
X10795476Y-15611667D01*
X10814524Y-15621190D01*
X10824048Y-15630714D01*
X10833571Y-15649762D01*
X10833571Y-15697381D01*
X10824048Y-15716428D01*
X10814524Y-15725952D01*
X10795476Y-15735476D01*
X10747857Y-15735476D01*
X10728810Y-15725952D01*
X10719286Y-15716428D01*
X10909762Y-15554524D02*
X10919286Y-15545000D01*
X10938333Y-15535476D01*
X10985952Y-15535476D01*
X11005000Y-15545000D01*
X11014524Y-15554524D01*
X11024048Y-15573571D01*
X11024048Y-15592619D01*
X11014524Y-15621190D01*
X10900238Y-15735476D01*
X11024048Y-15735476D01*
X11109762Y-15735476D02*
X11109762Y-15602143D01*
X11109762Y-15621190D02*
X11119286Y-15611667D01*
X11138333Y-15602143D01*
X11166905Y-15602143D01*
X11185952Y-15611667D01*
X11195476Y-15630714D01*
X11195476Y-15735476D01*
X11195476Y-15630714D02*
X11205000Y-15611667D01*
X11224048Y-15602143D01*
X11252619Y-15602143D01*
X11271667Y-15611667D01*
X11281190Y-15630714D01*
X11281190Y-15735476D01*
X11376428Y-15735476D02*
X11376428Y-15602143D01*
X11376428Y-15621190D02*
X11385952Y-15611667D01*
X11405000Y-15602143D01*
X11433571Y-15602143D01*
X11452619Y-15611667D01*
X11462143Y-15630714D01*
X11462143Y-15735476D01*
X11462143Y-15630714D02*
X11471667Y-15611667D01*
X11490714Y-15602143D01*
X11519286Y-15602143D01*
X11538333Y-15611667D01*
X11547857Y-15630714D01*
X11547857Y-15735476D01*
X11938333Y-15525952D02*
X11766905Y-15783095D01*
X12195476Y-15535476D02*
X12214524Y-15535476D01*
X12233571Y-15545000D01*
X12243095Y-15554524D01*
X12252619Y-15573571D01*
X12262143Y-15611667D01*
X12262143Y-15659286D01*
X12252619Y-15697381D01*
X12243095Y-15716428D01*
X12233571Y-15725952D01*
X12214524Y-15735476D01*
X12195476Y-15735476D01*
X12176428Y-15725952D01*
X12166905Y-15716428D01*
X12157381Y-15697381D01*
X12147857Y-15659286D01*
X12147857Y-15611667D01*
X12157381Y-15573571D01*
X12166905Y-15554524D01*
X12176428Y-15545000D01*
X12195476Y-15535476D01*
X12347857Y-15716428D02*
X12357381Y-15725952D01*
X12347857Y-15735476D01*
X12338333Y-15725952D01*
X12347857Y-15716428D01*
X12347857Y-15735476D01*
X12481190Y-15535476D02*
X12500238Y-15535476D01*
X12519286Y-15545000D01*
X12528809Y-15554524D01*
X12538333Y-15573571D01*
X12547857Y-15611667D01*
X12547857Y-15659286D01*
X12538333Y-15697381D01*
X12528809Y-15716428D01*
X12519286Y-15725952D01*
X12500238Y-15735476D01*
X12481190Y-15735476D01*
X12462143Y-15725952D01*
X12452619Y-15716428D01*
X12443095Y-15697381D01*
X12433571Y-15659286D01*
X12433571Y-15611667D01*
X12443095Y-15573571D01*
X12452619Y-15554524D01*
X12462143Y-15545000D01*
X12481190Y-15535476D01*
X12719286Y-15602143D02*
X12719286Y-15735476D01*
X12671667Y-15525952D02*
X12624048Y-15668809D01*
X12747857Y-15668809D01*
X12919286Y-15535476D02*
X12824048Y-15535476D01*
X12814524Y-15630714D01*
X12824048Y-15621190D01*
X12843095Y-15611667D01*
X12890714Y-15611667D01*
X12909762Y-15621190D01*
X12919286Y-15630714D01*
X12928809Y-15649762D01*
X12928809Y-15697381D01*
X12919286Y-15716428D01*
X12909762Y-15725952D01*
X12890714Y-15735476D01*
X12843095Y-15735476D01*
X12824048Y-15725952D01*
X12814524Y-15716428D01*
X13100238Y-15602143D02*
X13100238Y-15735476D01*
X13052619Y-15525952D02*
X13005000Y-15668809D01*
X13128809Y-15668809D01*
X13195476Y-15535476D02*
X13195476Y-15573571D01*
X13271667Y-15535476D02*
X13271667Y-15573571D01*
X13566905Y-15811667D02*
X13557381Y-15802143D01*
X13538333Y-15773571D01*
X13528809Y-15754524D01*
X13519286Y-15725952D01*
X13509762Y-15678333D01*
X13509762Y-15640238D01*
X13519286Y-15592619D01*
X13528809Y-15564048D01*
X13538333Y-15545000D01*
X13557381Y-15516428D01*
X13566905Y-15506905D01*
X13624048Y-15535476D02*
X13747857Y-15535476D01*
X13681190Y-15611667D01*
X13709762Y-15611667D01*
X13728809Y-15621190D01*
X13738333Y-15630714D01*
X13747857Y-15649762D01*
X13747857Y-15697381D01*
X13738333Y-15716428D01*
X13728809Y-15725952D01*
X13709762Y-15735476D01*
X13652619Y-15735476D01*
X13633571Y-15725952D01*
X13624048Y-15716428D01*
X13985952Y-15735476D02*
X13985952Y-15535476D01*
X14071667Y-15735476D02*
X14071667Y-15630714D01*
X14062143Y-15611667D01*
X14043095Y-15602143D01*
X14014524Y-15602143D01*
X13995476Y-15611667D01*
X13985952Y-15621190D01*
X14195476Y-15735476D02*
X14176428Y-15725952D01*
X14166905Y-15716428D01*
X14157381Y-15697381D01*
X14157381Y-15640238D01*
X14166905Y-15621190D01*
X14176428Y-15611667D01*
X14195476Y-15602143D01*
X14224048Y-15602143D01*
X14243095Y-15611667D01*
X14252619Y-15621190D01*
X14262143Y-15640238D01*
X14262143Y-15697381D01*
X14252619Y-15716428D01*
X14243095Y-15725952D01*
X14224048Y-15735476D01*
X14195476Y-15735476D01*
X14376428Y-15735476D02*
X14357381Y-15725952D01*
X14347857Y-15706905D01*
X14347857Y-15535476D01*
X14528809Y-15725952D02*
X14509762Y-15735476D01*
X14471667Y-15735476D01*
X14452619Y-15725952D01*
X14443095Y-15706905D01*
X14443095Y-15630714D01*
X14452619Y-15611667D01*
X14471667Y-15602143D01*
X14509762Y-15602143D01*
X14528809Y-15611667D01*
X14538333Y-15630714D01*
X14538333Y-15649762D01*
X14443095Y-15668809D01*
X14614524Y-15725952D02*
X14633571Y-15735476D01*
X14671667Y-15735476D01*
X14690714Y-15725952D01*
X14700238Y-15706905D01*
X14700238Y-15697381D01*
X14690714Y-15678333D01*
X14671667Y-15668809D01*
X14643095Y-15668809D01*
X14624048Y-15659286D01*
X14614524Y-15640238D01*
X14614524Y-15630714D01*
X14624048Y-15611667D01*
X14643095Y-15602143D01*
X14671667Y-15602143D01*
X14690714Y-15611667D01*
X14766905Y-15811667D02*
X14776428Y-15802143D01*
X14795476Y-15773571D01*
X14805000Y-15754524D01*
X14814524Y-15725952D01*
X14824048Y-15678333D01*
X14824048Y-15640238D01*
X14814524Y-15592619D01*
X14805000Y-15564048D01*
X14795476Y-15545000D01*
X14776428Y-15516428D01*
X14766905Y-15506905D01*
X15128809Y-15811667D02*
X15119286Y-15802143D01*
X15100238Y-15773571D01*
X15090714Y-15754524D01*
X15081190Y-15725952D01*
X15071667Y-15678333D01*
X15071667Y-15640238D01*
X15081190Y-15592619D01*
X15090714Y-15564048D01*
X15100238Y-15545000D01*
X15119286Y-15516428D01*
X15128809Y-15506905D01*
X15205000Y-15602143D02*
X15205000Y-15735476D01*
X15205000Y-15621190D02*
X15214524Y-15611667D01*
X15233571Y-15602143D01*
X15262143Y-15602143D01*
X15281190Y-15611667D01*
X15290714Y-15630714D01*
X15290714Y-15735476D01*
X15414524Y-15735476D02*
X15395476Y-15725952D01*
X15385952Y-15716428D01*
X15376428Y-15697381D01*
X15376428Y-15640238D01*
X15385952Y-15621190D01*
X15395476Y-15611667D01*
X15414524Y-15602143D01*
X15443095Y-15602143D01*
X15462143Y-15611667D01*
X15471667Y-15621190D01*
X15481190Y-15640238D01*
X15481190Y-15697381D01*
X15471667Y-15716428D01*
X15462143Y-15725952D01*
X15443095Y-15735476D01*
X15414524Y-15735476D01*
X15538333Y-15602143D02*
X15614524Y-15602143D01*
X15566905Y-15535476D02*
X15566905Y-15706905D01*
X15576428Y-15725952D01*
X15595476Y-15735476D01*
X15614524Y-15735476D01*
X15833571Y-15602143D02*
X15833571Y-15802143D01*
X15833571Y-15611667D02*
X15852619Y-15602143D01*
X15890714Y-15602143D01*
X15909762Y-15611667D01*
X15919286Y-15621190D01*
X15928809Y-15640238D01*
X15928809Y-15697381D01*
X15919286Y-15716428D01*
X15909762Y-15725952D01*
X15890714Y-15735476D01*
X15852619Y-15735476D01*
X15833571Y-15725952D01*
X16043095Y-15735476D02*
X16024048Y-15725952D01*
X16014524Y-15706905D01*
X16014524Y-15535476D01*
X16205000Y-15735476D02*
X16205000Y-15630714D01*
X16195476Y-15611667D01*
X16176428Y-15602143D01*
X16138333Y-15602143D01*
X16119286Y-15611667D01*
X16205000Y-15725952D02*
X16185952Y-15735476D01*
X16138333Y-15735476D01*
X16119286Y-15725952D01*
X16109762Y-15706905D01*
X16109762Y-15687857D01*
X16119286Y-15668809D01*
X16138333Y-15659286D01*
X16185952Y-15659286D01*
X16205000Y-15649762D01*
X16271667Y-15602143D02*
X16347857Y-15602143D01*
X16300238Y-15535476D02*
X16300238Y-15706905D01*
X16309762Y-15725952D01*
X16328809Y-15735476D01*
X16347857Y-15735476D01*
X16490714Y-15725952D02*
X16471667Y-15735476D01*
X16433571Y-15735476D01*
X16414524Y-15725952D01*
X16405000Y-15706905D01*
X16405000Y-15630714D01*
X16414524Y-15611667D01*
X16433571Y-15602143D01*
X16471667Y-15602143D01*
X16490714Y-15611667D01*
X16500238Y-15630714D01*
X16500238Y-15649762D01*
X16405000Y-15668809D01*
X16671667Y-15735476D02*
X16671667Y-15535476D01*
X16671667Y-15725952D02*
X16652619Y-15735476D01*
X16614524Y-15735476D01*
X16595476Y-15725952D01*
X16585952Y-15716428D01*
X16576428Y-15697381D01*
X16576428Y-15640238D01*
X16585952Y-15621190D01*
X16595476Y-15611667D01*
X16614524Y-15602143D01*
X16652619Y-15602143D01*
X16671667Y-15611667D01*
X16747857Y-15811667D02*
X16757381Y-15802143D01*
X16776428Y-15773571D01*
X16785952Y-15754524D01*
X16795476Y-15725952D01*
X16805000Y-15678333D01*
X16805000Y-15640238D01*
X16795476Y-15592619D01*
X16785952Y-15564048D01*
X16776428Y-15545000D01*
X16757381Y-15516428D01*
X16747857Y-15506905D01*
X9995000Y-15909000D02*
G75*
G03*
X9995000Y-15909000I-100000J0D01*
G01*
X10233571Y-15799476D02*
X10357381Y-15799476D01*
X10290714Y-15875667D01*
X10319286Y-15875667D01*
X10338333Y-15885190D01*
X10347857Y-15894714D01*
X10357381Y-15913762D01*
X10357381Y-15961381D01*
X10347857Y-15980428D01*
X10338333Y-15989952D01*
X10319286Y-15999476D01*
X10262143Y-15999476D01*
X10243095Y-15989952D01*
X10233571Y-15980428D01*
X10443095Y-15980428D02*
X10452619Y-15989952D01*
X10443095Y-15999476D01*
X10433571Y-15989952D01*
X10443095Y-15980428D01*
X10443095Y-15999476D01*
X10528810Y-15818524D02*
X10538333Y-15809000D01*
X10557381Y-15799476D01*
X10605000Y-15799476D01*
X10624048Y-15809000D01*
X10633571Y-15818524D01*
X10643095Y-15837571D01*
X10643095Y-15856619D01*
X10633571Y-15885190D01*
X10519286Y-15999476D01*
X10643095Y-15999476D01*
X10824048Y-15799476D02*
X10728810Y-15799476D01*
X10719286Y-15894714D01*
X10728810Y-15885190D01*
X10747857Y-15875667D01*
X10795476Y-15875667D01*
X10814524Y-15885190D01*
X10824048Y-15894714D01*
X10833571Y-15913762D01*
X10833571Y-15961381D01*
X10824048Y-15980428D01*
X10814524Y-15989952D01*
X10795476Y-15999476D01*
X10747857Y-15999476D01*
X10728810Y-15989952D01*
X10719286Y-15980428D01*
X10957381Y-15799476D02*
X10976429Y-15799476D01*
X10995476Y-15809000D01*
X11005000Y-15818524D01*
X11014524Y-15837571D01*
X11024048Y-15875667D01*
X11024048Y-15923286D01*
X11014524Y-15961381D01*
X11005000Y-15980428D01*
X10995476Y-15989952D01*
X10976429Y-15999476D01*
X10957381Y-15999476D01*
X10938333Y-15989952D01*
X10928810Y-15980428D01*
X10919286Y-15961381D01*
X10909762Y-15923286D01*
X10909762Y-15875667D01*
X10919286Y-15837571D01*
X10928810Y-15818524D01*
X10938333Y-15809000D01*
X10957381Y-15799476D01*
X11109762Y-15999476D02*
X11109762Y-15866143D01*
X11109762Y-15885190D02*
X11119286Y-15875667D01*
X11138333Y-15866143D01*
X11166905Y-15866143D01*
X11185952Y-15875667D01*
X11195476Y-15894714D01*
X11195476Y-15999476D01*
X11195476Y-15894714D02*
X11205000Y-15875667D01*
X11224048Y-15866143D01*
X11252619Y-15866143D01*
X11271667Y-15875667D01*
X11281190Y-15894714D01*
X11281190Y-15999476D01*
X11376428Y-15999476D02*
X11376428Y-15866143D01*
X11376428Y-15885190D02*
X11385952Y-15875667D01*
X11405000Y-15866143D01*
X11433571Y-15866143D01*
X11452619Y-15875667D01*
X11462143Y-15894714D01*
X11462143Y-15999476D01*
X11462143Y-15894714D02*
X11471667Y-15875667D01*
X11490714Y-15866143D01*
X11519286Y-15866143D01*
X11538333Y-15875667D01*
X11547857Y-15894714D01*
X11547857Y-15999476D01*
X11938333Y-15789952D02*
X11766905Y-16047095D01*
X12195476Y-15799476D02*
X12214524Y-15799476D01*
X12233571Y-15809000D01*
X12243095Y-15818524D01*
X12252619Y-15837571D01*
X12262143Y-15875667D01*
X12262143Y-15923286D01*
X12252619Y-15961381D01*
X12243095Y-15980428D01*
X12233571Y-15989952D01*
X12214524Y-15999476D01*
X12195476Y-15999476D01*
X12176428Y-15989952D01*
X12166905Y-15980428D01*
X12157381Y-15961381D01*
X12147857Y-15923286D01*
X12147857Y-15875667D01*
X12157381Y-15837571D01*
X12166905Y-15818524D01*
X12176428Y-15809000D01*
X12195476Y-15799476D01*
X12347857Y-15980428D02*
X12357381Y-15989952D01*
X12347857Y-15999476D01*
X12338333Y-15989952D01*
X12347857Y-15980428D01*
X12347857Y-15999476D01*
X12547857Y-15999476D02*
X12433571Y-15999476D01*
X12490714Y-15999476D02*
X12490714Y-15799476D01*
X12471667Y-15828048D01*
X12452619Y-15847095D01*
X12433571Y-15856619D01*
X12624048Y-15818524D02*
X12633571Y-15809000D01*
X12652619Y-15799476D01*
X12700238Y-15799476D01*
X12719286Y-15809000D01*
X12728809Y-15818524D01*
X12738333Y-15837571D01*
X12738333Y-15856619D01*
X12728809Y-15885190D01*
X12614524Y-15999476D01*
X12738333Y-15999476D01*
X12852619Y-15885190D02*
X12833571Y-15875667D01*
X12824048Y-15866143D01*
X12814524Y-15847095D01*
X12814524Y-15837571D01*
X12824048Y-15818524D01*
X12833571Y-15809000D01*
X12852619Y-15799476D01*
X12890714Y-15799476D01*
X12909762Y-15809000D01*
X12919286Y-15818524D01*
X12928809Y-15837571D01*
X12928809Y-15847095D01*
X12919286Y-15866143D01*
X12909762Y-15875667D01*
X12890714Y-15885190D01*
X12852619Y-15885190D01*
X12833571Y-15894714D01*
X12824048Y-15904238D01*
X12814524Y-15923286D01*
X12814524Y-15961381D01*
X12824048Y-15980428D01*
X12833571Y-15989952D01*
X12852619Y-15999476D01*
X12890714Y-15999476D01*
X12909762Y-15989952D01*
X12919286Y-15980428D01*
X12928809Y-15961381D01*
X12928809Y-15923286D01*
X12919286Y-15904238D01*
X12909762Y-15894714D01*
X12890714Y-15885190D01*
X13052619Y-15799476D02*
X13071667Y-15799476D01*
X13090714Y-15809000D01*
X13100238Y-15818524D01*
X13109762Y-15837571D01*
X13119286Y-15875667D01*
X13119286Y-15923286D01*
X13109762Y-15961381D01*
X13100238Y-15980428D01*
X13090714Y-15989952D01*
X13071667Y-15999476D01*
X13052619Y-15999476D01*
X13033571Y-15989952D01*
X13024048Y-15980428D01*
X13014524Y-15961381D01*
X13005000Y-15923286D01*
X13005000Y-15875667D01*
X13014524Y-15837571D01*
X13024048Y-15818524D01*
X13033571Y-15809000D01*
X13052619Y-15799476D01*
X13195476Y-15799476D02*
X13195476Y-15837571D01*
X13271667Y-15799476D02*
X13271667Y-15837571D01*
X13566905Y-16075667D02*
X13557381Y-16066143D01*
X13538333Y-16037571D01*
X13528809Y-16018524D01*
X13519286Y-15989952D01*
X13509762Y-15942333D01*
X13509762Y-15904238D01*
X13519286Y-15856619D01*
X13528809Y-15828048D01*
X13538333Y-15809000D01*
X13557381Y-15780428D01*
X13566905Y-15770905D01*
X13728809Y-15799476D02*
X13690714Y-15799476D01*
X13671667Y-15809000D01*
X13662143Y-15818524D01*
X13643095Y-15847095D01*
X13633571Y-15885190D01*
X13633571Y-15961381D01*
X13643095Y-15980428D01*
X13652619Y-15989952D01*
X13671667Y-15999476D01*
X13709762Y-15999476D01*
X13728809Y-15989952D01*
X13738333Y-15980428D01*
X13747857Y-15961381D01*
X13747857Y-15913762D01*
X13738333Y-15894714D01*
X13728809Y-15885190D01*
X13709762Y-15875667D01*
X13671667Y-15875667D01*
X13652619Y-15885190D01*
X13643095Y-15894714D01*
X13633571Y-15913762D01*
X13985952Y-15999476D02*
X13985952Y-15799476D01*
X14071667Y-15999476D02*
X14071667Y-15894714D01*
X14062143Y-15875667D01*
X14043095Y-15866143D01*
X14014524Y-15866143D01*
X13995476Y-15875667D01*
X13985952Y-15885190D01*
X14195476Y-15999476D02*
X14176428Y-15989952D01*
X14166905Y-15980428D01*
X14157381Y-15961381D01*
X14157381Y-15904238D01*
X14166905Y-15885190D01*
X14176428Y-15875667D01*
X14195476Y-15866143D01*
X14224048Y-15866143D01*
X14243095Y-15875667D01*
X14252619Y-15885190D01*
X14262143Y-15904238D01*
X14262143Y-15961381D01*
X14252619Y-15980428D01*
X14243095Y-15989952D01*
X14224048Y-15999476D01*
X14195476Y-15999476D01*
X14376428Y-15999476D02*
X14357381Y-15989952D01*
X14347857Y-15970905D01*
X14347857Y-15799476D01*
X14528809Y-15989952D02*
X14509762Y-15999476D01*
X14471667Y-15999476D01*
X14452619Y-15989952D01*
X14443095Y-15970905D01*
X14443095Y-15894714D01*
X14452619Y-15875667D01*
X14471667Y-15866143D01*
X14509762Y-15866143D01*
X14528809Y-15875667D01*
X14538333Y-15894714D01*
X14538333Y-15913762D01*
X14443095Y-15932809D01*
X14614524Y-15989952D02*
X14633571Y-15999476D01*
X14671667Y-15999476D01*
X14690714Y-15989952D01*
X14700238Y-15970905D01*
X14700238Y-15961381D01*
X14690714Y-15942333D01*
X14671667Y-15932809D01*
X14643095Y-15932809D01*
X14624048Y-15923286D01*
X14614524Y-15904238D01*
X14614524Y-15894714D01*
X14624048Y-15875667D01*
X14643095Y-15866143D01*
X14671667Y-15866143D01*
X14690714Y-15875667D01*
X14766905Y-16075667D02*
X14776428Y-16066143D01*
X14795476Y-16037571D01*
X14805000Y-16018524D01*
X14814524Y-15989952D01*
X14824048Y-15942333D01*
X14824048Y-15904238D01*
X14814524Y-15856619D01*
X14805000Y-15828048D01*
X14795476Y-15809000D01*
X14776428Y-15780428D01*
X14766905Y-15770905D01*
X15128809Y-16075667D02*
X15119286Y-16066143D01*
X15100238Y-16037571D01*
X15090714Y-16018524D01*
X15081190Y-15989952D01*
X15071667Y-15942333D01*
X15071667Y-15904238D01*
X15081190Y-15856619D01*
X15090714Y-15828048D01*
X15100238Y-15809000D01*
X15119286Y-15780428D01*
X15128809Y-15770905D01*
X15205000Y-15866143D02*
X15205000Y-15999476D01*
X15205000Y-15885190D02*
X15214524Y-15875667D01*
X15233571Y-15866143D01*
X15262143Y-15866143D01*
X15281190Y-15875667D01*
X15290714Y-15894714D01*
X15290714Y-15999476D01*
X15414524Y-15999476D02*
X15395476Y-15989952D01*
X15385952Y-15980428D01*
X15376428Y-15961381D01*
X15376428Y-15904238D01*
X15385952Y-15885190D01*
X15395476Y-15875667D01*
X15414524Y-15866143D01*
X15443095Y-15866143D01*
X15462143Y-15875667D01*
X15471667Y-15885190D01*
X15481190Y-15904238D01*
X15481190Y-15961381D01*
X15471667Y-15980428D01*
X15462143Y-15989952D01*
X15443095Y-15999476D01*
X15414524Y-15999476D01*
X15538333Y-15866143D02*
X15614524Y-15866143D01*
X15566905Y-15799476D02*
X15566905Y-15970905D01*
X15576428Y-15989952D01*
X15595476Y-15999476D01*
X15614524Y-15999476D01*
X15833571Y-15866143D02*
X15833571Y-16066143D01*
X15833571Y-15875667D02*
X15852619Y-15866143D01*
X15890714Y-15866143D01*
X15909762Y-15875667D01*
X15919286Y-15885190D01*
X15928809Y-15904238D01*
X15928809Y-15961381D01*
X15919286Y-15980428D01*
X15909762Y-15989952D01*
X15890714Y-15999476D01*
X15852619Y-15999476D01*
X15833571Y-15989952D01*
X16043095Y-15999476D02*
X16024048Y-15989952D01*
X16014524Y-15970905D01*
X16014524Y-15799476D01*
X16205000Y-15999476D02*
X16205000Y-15894714D01*
X16195476Y-15875667D01*
X16176428Y-15866143D01*
X16138333Y-15866143D01*
X16119286Y-15875667D01*
X16205000Y-15989952D02*
X16185952Y-15999476D01*
X16138333Y-15999476D01*
X16119286Y-15989952D01*
X16109762Y-15970905D01*
X16109762Y-15951857D01*
X16119286Y-15932809D01*
X16138333Y-15923286D01*
X16185952Y-15923286D01*
X16205000Y-15913762D01*
X16271667Y-15866143D02*
X16347857Y-15866143D01*
X16300238Y-15799476D02*
X16300238Y-15970905D01*
X16309762Y-15989952D01*
X16328809Y-15999476D01*
X16347857Y-15999476D01*
X16490714Y-15989952D02*
X16471667Y-15999476D01*
X16433571Y-15999476D01*
X16414524Y-15989952D01*
X16405000Y-15970905D01*
X16405000Y-15894714D01*
X16414524Y-15875667D01*
X16433571Y-15866143D01*
X16471667Y-15866143D01*
X16490714Y-15875667D01*
X16500238Y-15894714D01*
X16500238Y-15913762D01*
X16405000Y-15932809D01*
X16671667Y-15999476D02*
X16671667Y-15799476D01*
X16671667Y-15989952D02*
X16652619Y-15999476D01*
X16614524Y-15999476D01*
X16595476Y-15989952D01*
X16585952Y-15980428D01*
X16576428Y-15961381D01*
X16576428Y-15904238D01*
X16585952Y-15885190D01*
X16595476Y-15875667D01*
X16614524Y-15866143D01*
X16652619Y-15866143D01*
X16671667Y-15875667D01*
X16747857Y-16075667D02*
X16757381Y-16066143D01*
X16776428Y-16037571D01*
X16785952Y-16018524D01*
X16795476Y-15989952D01*
X16805000Y-15942333D01*
X16805000Y-15904238D01*
X16795476Y-15856619D01*
X16785952Y-15828048D01*
X16776428Y-15809000D01*
X16757381Y-15780428D01*
X16747857Y-15770905D01*
M02*
