G04 #@! TF.GenerationSoftware,KiCad,Pcbnew,6.0.11+dfsg-1*
G04 #@! TF.ProjectId,project,70726f6a-6563-4742-9e6b-696361645f70,rev?*
G04 #@! TF.SameCoordinates,Original*
G04 #@! TF.FileFunction,Soldermask,Bot*
G04 #@! TF.FilePolarity,Negative*
%FSLAX46Y46*%
G04 Gerber Fmt 4.6, Leading zero omitted, Abs format (unit mm)*
%MOMM*%
%LPD*%
G01*
G04 APERTURE LIST*
G04 #@! TA.AperFunction,Profile*
%ADD10C,0.100000*%
G04 #@! TD*
%ADD11C,0.770000*%
%ADD12C,2.000000*%
%ADD13R,3.500000X3.500000*%
%ADD14C,3.500000*%
%ADD15C,0.800000*%
%ADD16C,6.400000*%
%ADD17C,1.700000*%
%ADD18C,3.250000*%
%ADD19R,1.500000X1.500000*%
%ADD20C,1.500000*%
%ADD21O,1.200000X2.500000*%
%ADD22C,1.552000*%
%ADD23C,1.440000*%
%ADD24R,1.700000X1.700000*%
%ADD25O,1.700000X1.700000*%
G04 APERTURE END LIST*
D10*
X100000000Y-147500000D02*
X100000000Y-55000000D01*
X100000000Y-147500000D02*
G75*
G03*
X102500000Y-150000000I2500000J0D01*
G01*
X105000000Y-50000000D02*
G75*
G03*
X100000000Y-55000000I0J-5000000D01*
G01*
X197500000Y-150000000D02*
G75*
G03*
X200000000Y-147500000I0J2500000D01*
G01*
X200000000Y-55000000D02*
X200000000Y-147500000D01*
X102500000Y-150000000D02*
X197500000Y-150000000D01*
X200000000Y-55000000D02*
G75*
G03*
X195000000Y-50000000I-5000000J0D01*
G01*
X105000000Y-50000000D02*
X195000000Y-50000000D01*
D11*
X160090000Y-58270000D03*
X158790000Y-58270000D03*
X160090000Y-56970000D03*
X158790000Y-56970000D03*
X158790000Y-59570000D03*
X160090000Y-59570000D03*
D12*
X144500000Y-53675000D03*
X133500000Y-53675000D03*
D13*
X141500000Y-63675000D03*
D14*
X136500000Y-63675000D03*
D15*
X193302944Y-53302944D03*
X193302944Y-56697056D03*
X192600000Y-55000000D03*
D16*
X195000000Y-55000000D03*
D15*
X196697056Y-56697056D03*
X197400000Y-55000000D03*
X195000000Y-57400000D03*
X195000000Y-52600000D03*
X196697056Y-53302944D03*
G36*
G01*
X185102500Y-88790000D02*
X185102500Y-89990000D01*
G75*
G02*
X184852500Y-90240000I-250000J0D01*
G01*
X183652500Y-90240000D01*
G75*
G02*
X183402500Y-89990000I0J250000D01*
G01*
X183402500Y-88790000D01*
G75*
G02*
X183652500Y-88540000I250000J0D01*
G01*
X184852500Y-88540000D01*
G75*
G02*
X185102500Y-88790000I0J-250000D01*
G01*
G37*
D17*
X181712500Y-89390000D03*
X184252500Y-86850000D03*
X181712500Y-86850000D03*
X184252500Y-84310000D03*
X181712500Y-84310000D03*
X184252500Y-81770000D03*
X181712500Y-81770000D03*
X184252500Y-79230000D03*
X181712500Y-79230000D03*
X184252500Y-76690000D03*
X181712500Y-76690000D03*
X184252500Y-74150000D03*
X181712500Y-74150000D03*
X184252500Y-71610000D03*
X181712500Y-71610000D03*
D18*
X164240000Y-146530000D03*
X135790000Y-146530000D03*
D19*
X161450000Y-143990000D03*
D20*
X160434000Y-142210000D03*
X159418000Y-143990000D03*
X158402000Y-142210000D03*
X157386000Y-143990000D03*
X156370000Y-142210000D03*
X155354000Y-143990000D03*
X154338000Y-142210000D03*
X164750000Y-137390000D03*
X162460000Y-137390000D03*
X153320000Y-137390000D03*
X151030000Y-137390000D03*
D19*
X145700000Y-143990000D03*
D20*
X144684000Y-142210000D03*
X143668000Y-143990000D03*
X142652000Y-142210000D03*
X141636000Y-143990000D03*
X140620000Y-142210000D03*
X139604000Y-143990000D03*
X138588000Y-142210000D03*
X149000000Y-137390000D03*
X146710000Y-137390000D03*
X137570000Y-137390000D03*
X135280000Y-137390000D03*
D21*
X165950000Y-143100000D03*
X134050000Y-143100000D03*
D15*
X117100000Y-134910000D03*
X115402944Y-130812944D03*
D16*
X117100000Y-132510000D03*
D15*
X118797056Y-130812944D03*
X119500000Y-132510000D03*
X117100000Y-130110000D03*
X115402944Y-134207056D03*
X118797056Y-134207056D03*
X114700000Y-132510000D03*
D22*
X191000000Y-52000000D03*
D15*
X151697056Y-53302944D03*
X151697056Y-56697056D03*
X147600000Y-55000000D03*
X148302944Y-56697056D03*
X152400000Y-55000000D03*
D16*
X150000000Y-55000000D03*
D15*
X150000000Y-52600000D03*
X148302944Y-53302944D03*
X150000000Y-57400000D03*
D23*
X162790000Y-52770000D03*
X160250000Y-52770000D03*
X157710000Y-52770000D03*
D22*
X103000000Y-132000000D03*
D24*
X179440000Y-62395000D03*
D25*
X179440000Y-59855000D03*
X179440000Y-57315000D03*
D22*
X109000000Y-52000000D03*
G36*
G01*
X118850000Y-88790000D02*
X118850000Y-89990000D01*
G75*
G02*
X118600000Y-90240000I-250000J0D01*
G01*
X117400000Y-90240000D01*
G75*
G02*
X117150000Y-89990000I0J250000D01*
G01*
X117150000Y-88790000D01*
G75*
G02*
X117400000Y-88540000I250000J0D01*
G01*
X118600000Y-88540000D01*
G75*
G02*
X118850000Y-88790000I0J-250000D01*
G01*
G37*
D17*
X115460000Y-89390000D03*
X118000000Y-86850000D03*
X115460000Y-86850000D03*
X118000000Y-84310000D03*
X115460000Y-84310000D03*
X118000000Y-81770000D03*
X115460000Y-81770000D03*
X118000000Y-79230000D03*
X115460000Y-79230000D03*
X118000000Y-76690000D03*
X115460000Y-76690000D03*
X118000000Y-74150000D03*
X115460000Y-74150000D03*
X118000000Y-71610000D03*
X115460000Y-71610000D03*
D12*
X168140000Y-62070000D03*
X173140000Y-62070000D03*
D15*
X148302944Y-130812944D03*
X151697056Y-130812944D03*
X150000000Y-134910000D03*
X150000000Y-130110000D03*
X148302944Y-134207056D03*
X151697056Y-134207056D03*
D16*
X150000000Y-132510000D03*
D15*
X147600000Y-132510000D03*
X152400000Y-132510000D03*
D18*
X102840000Y-146530000D03*
X131290000Y-146530000D03*
D19*
X128500000Y-143990000D03*
D20*
X127484000Y-142210000D03*
X126468000Y-143990000D03*
X125452000Y-142210000D03*
X124436000Y-143990000D03*
X123420000Y-142210000D03*
X122404000Y-143990000D03*
X121388000Y-142210000D03*
X131800000Y-137390000D03*
X129510000Y-137390000D03*
X120370000Y-137390000D03*
X118080000Y-137390000D03*
D19*
X112750000Y-143990000D03*
D20*
X111734000Y-142210000D03*
X110718000Y-143990000D03*
X109702000Y-142210000D03*
X108686000Y-143990000D03*
X107670000Y-142210000D03*
X106654000Y-143990000D03*
X105638000Y-142210000D03*
X116050000Y-137390000D03*
X113760000Y-137390000D03*
X104620000Y-137390000D03*
X102330000Y-137390000D03*
D21*
X133000000Y-143100000D03*
X101100000Y-143100000D03*
D15*
X183000000Y-134910000D03*
X184697056Y-130812944D03*
X185400000Y-132510000D03*
X181302944Y-134207056D03*
D16*
X183000000Y-132510000D03*
D15*
X180600000Y-132510000D03*
X183000000Y-130110000D03*
X184697056Y-134207056D03*
X181302944Y-130812944D03*
X105000000Y-52600000D03*
X102600000Y-55000000D03*
X106697056Y-53302944D03*
D16*
X105000000Y-55000000D03*
D15*
X103302944Y-53302944D03*
X105000000Y-57400000D03*
X106697056Y-56697056D03*
X103302944Y-56697056D03*
X107400000Y-55000000D03*
D18*
X168740000Y-146530000D03*
X197190000Y-146530000D03*
D19*
X194400000Y-143990000D03*
D20*
X193384000Y-142210000D03*
X192368000Y-143990000D03*
X191352000Y-142210000D03*
X190336000Y-143990000D03*
X189320000Y-142210000D03*
X188304000Y-143990000D03*
X187288000Y-142210000D03*
X197700000Y-137390000D03*
X195410000Y-137390000D03*
X186270000Y-137390000D03*
X183980000Y-137390000D03*
D19*
X178650000Y-143990000D03*
D20*
X177634000Y-142210000D03*
X176618000Y-143990000D03*
X175602000Y-142210000D03*
X174586000Y-143990000D03*
X173570000Y-142210000D03*
X172554000Y-143990000D03*
X171538000Y-142210000D03*
X181950000Y-137390000D03*
X179660000Y-137390000D03*
X170520000Y-137390000D03*
X168230000Y-137390000D03*
D21*
X167000000Y-143100000D03*
X198900000Y-143100000D03*
G36*
G01*
X127224999Y-149200000D02*
X125975001Y-149200000D01*
G75*
G02*
X125725000Y-148949999I0J250001D01*
G01*
X125725000Y-148025001D01*
G75*
G02*
X125975001Y-147775000I250001J0D01*
G01*
X127224999Y-147775000D01*
G75*
G02*
X127475000Y-148025001I0J-250001D01*
G01*
X127475000Y-148949999D01*
G75*
G02*
X127224999Y-149200000I-250001J0D01*
G01*
G37*
G36*
G01*
X127224999Y-146225000D02*
X125975001Y-146225000D01*
G75*
G02*
X125725000Y-145974999I0J250001D01*
G01*
X125725000Y-145050001D01*
G75*
G02*
X125975001Y-144800000I250001J0D01*
G01*
X127224999Y-144800000D01*
G75*
G02*
X127475000Y-145050001I0J-250001D01*
G01*
X127475000Y-145974999D01*
G75*
G02*
X127224999Y-146225000I-250001J0D01*
G01*
G37*
G36*
G01*
X144424999Y-149200000D02*
X143175001Y-149200000D01*
G75*
G02*
X142925000Y-148949999I0J250001D01*
G01*
X142925000Y-148025001D01*
G75*
G02*
X143175001Y-147775000I250001J0D01*
G01*
X144424999Y-147775000D01*
G75*
G02*
X144675000Y-148025001I0J-250001D01*
G01*
X144675000Y-148949999D01*
G75*
G02*
X144424999Y-149200000I-250001J0D01*
G01*
G37*
G36*
G01*
X144424999Y-146225000D02*
X143175001Y-146225000D01*
G75*
G02*
X142925000Y-145974999I0J250001D01*
G01*
X142925000Y-145050001D01*
G75*
G02*
X143175001Y-144800000I250001J0D01*
G01*
X144424999Y-144800000D01*
G75*
G02*
X144675000Y-145050001I0J-250001D01*
G01*
X144675000Y-145974999D01*
G75*
G02*
X144424999Y-146225000I-250001J0D01*
G01*
G37*
G36*
G01*
X157824999Y-149200000D02*
X156575001Y-149200000D01*
G75*
G02*
X156325000Y-148949999I0J250001D01*
G01*
X156325000Y-148025001D01*
G75*
G02*
X156575001Y-147775000I250001J0D01*
G01*
X157824999Y-147775000D01*
G75*
G02*
X158075000Y-148025001I0J-250001D01*
G01*
X158075000Y-148949999D01*
G75*
G02*
X157824999Y-149200000I-250001J0D01*
G01*
G37*
G36*
G01*
X157824999Y-146225000D02*
X156575001Y-146225000D01*
G75*
G02*
X156325000Y-145974999I0J250001D01*
G01*
X156325000Y-145050001D01*
G75*
G02*
X156575001Y-144800000I250001J0D01*
G01*
X157824999Y-144800000D01*
G75*
G02*
X158075000Y-145050001I0J-250001D01*
G01*
X158075000Y-145974999D01*
G75*
G02*
X157824999Y-146225000I-250001J0D01*
G01*
G37*
G36*
G01*
X175024999Y-149200000D02*
X173775001Y-149200000D01*
G75*
G02*
X173525000Y-148949999I0J250001D01*
G01*
X173525000Y-148025001D01*
G75*
G02*
X173775001Y-147775000I250001J0D01*
G01*
X175024999Y-147775000D01*
G75*
G02*
X175275000Y-148025001I0J-250001D01*
G01*
X175275000Y-148949999D01*
G75*
G02*
X175024999Y-149200000I-250001J0D01*
G01*
G37*
G36*
G01*
X175024999Y-146225000D02*
X173775001Y-146225000D01*
G75*
G02*
X173525000Y-145974999I0J250001D01*
G01*
X173525000Y-145050001D01*
G75*
G02*
X173775001Y-144800000I250001J0D01*
G01*
X175024999Y-144800000D01*
G75*
G02*
X175275000Y-145050001I0J-250001D01*
G01*
X175275000Y-145974999D01*
G75*
G02*
X175024999Y-146225000I-250001J0D01*
G01*
G37*
G36*
G01*
X190824999Y-149200000D02*
X189575001Y-149200000D01*
G75*
G02*
X189325000Y-148949999I0J250001D01*
G01*
X189325000Y-148025001D01*
G75*
G02*
X189575001Y-147775000I250001J0D01*
G01*
X190824999Y-147775000D01*
G75*
G02*
X191075000Y-148025001I0J-250001D01*
G01*
X191075000Y-148949999D01*
G75*
G02*
X190824999Y-149200000I-250001J0D01*
G01*
G37*
G36*
G01*
X190824999Y-146225000D02*
X189575001Y-146225000D01*
G75*
G02*
X189325000Y-145974999I0J250001D01*
G01*
X189325000Y-145050001D01*
G75*
G02*
X189575001Y-144800000I250001J0D01*
G01*
X190824999Y-144800000D01*
G75*
G02*
X191075000Y-145050001I0J-250001D01*
G01*
X191075000Y-145974999D01*
G75*
G02*
X190824999Y-146225000I-250001J0D01*
G01*
G37*
G36*
G01*
X111524999Y-149200000D02*
X110275001Y-149200000D01*
G75*
G02*
X110025000Y-148949999I0J250001D01*
G01*
X110025000Y-148025001D01*
G75*
G02*
X110275001Y-147775000I250001J0D01*
G01*
X111524999Y-147775000D01*
G75*
G02*
X111775000Y-148025001I0J-250001D01*
G01*
X111775000Y-148949999D01*
G75*
G02*
X111524999Y-149200000I-250001J0D01*
G01*
G37*
G36*
G01*
X111524999Y-146225000D02*
X110275001Y-146225000D01*
G75*
G02*
X110025000Y-145974999I0J250001D01*
G01*
X110025000Y-145050001D01*
G75*
G02*
X110275001Y-144800000I250001J0D01*
G01*
X111524999Y-144800000D01*
G75*
G02*
X111775000Y-145050001I0J-250001D01*
G01*
X111775000Y-145974999D01*
G75*
G02*
X111524999Y-146225000I-250001J0D01*
G01*
G37*
G36*
G01*
X124924999Y-149200000D02*
X123675001Y-149200000D01*
G75*
G02*
X123425000Y-148949999I0J250001D01*
G01*
X123425000Y-148025001D01*
G75*
G02*
X123675001Y-147775000I250001J0D01*
G01*
X124924999Y-147775000D01*
G75*
G02*
X125175000Y-148025001I0J-250001D01*
G01*
X125175000Y-148949999D01*
G75*
G02*
X124924999Y-149200000I-250001J0D01*
G01*
G37*
G36*
G01*
X124924999Y-146225000D02*
X123675001Y-146225000D01*
G75*
G02*
X123425000Y-145974999I0J250001D01*
G01*
X123425000Y-145050001D01*
G75*
G02*
X123675001Y-144800000I250001J0D01*
G01*
X124924999Y-144800000D01*
G75*
G02*
X125175000Y-145050001I0J-250001D01*
G01*
X125175000Y-145974999D01*
G75*
G02*
X124924999Y-146225000I-250001J0D01*
G01*
G37*
G36*
G01*
X177424999Y-149200000D02*
X176175001Y-149200000D01*
G75*
G02*
X175925000Y-148949999I0J250001D01*
G01*
X175925000Y-148025001D01*
G75*
G02*
X176175001Y-147775000I250001J0D01*
G01*
X177424999Y-147775000D01*
G75*
G02*
X177675000Y-148025001I0J-250001D01*
G01*
X177675000Y-148949999D01*
G75*
G02*
X177424999Y-149200000I-250001J0D01*
G01*
G37*
G36*
G01*
X177424999Y-146225000D02*
X176175001Y-146225000D01*
G75*
G02*
X175925000Y-145974999I0J250001D01*
G01*
X175925000Y-145050001D01*
G75*
G02*
X176175001Y-144800000I250001J0D01*
G01*
X177424999Y-144800000D01*
G75*
G02*
X177675000Y-145050001I0J-250001D01*
G01*
X177675000Y-145974999D01*
G75*
G02*
X177424999Y-146225000I-250001J0D01*
G01*
G37*
G36*
G01*
X160224999Y-149200000D02*
X158975001Y-149200000D01*
G75*
G02*
X158725000Y-148949999I0J250001D01*
G01*
X158725000Y-148025001D01*
G75*
G02*
X158975001Y-147775000I250001J0D01*
G01*
X160224999Y-147775000D01*
G75*
G02*
X160475000Y-148025001I0J-250001D01*
G01*
X160475000Y-148949999D01*
G75*
G02*
X160224999Y-149200000I-250001J0D01*
G01*
G37*
G36*
G01*
X160224999Y-146225000D02*
X158975001Y-146225000D01*
G75*
G02*
X158725000Y-145974999I0J250001D01*
G01*
X158725000Y-145050001D01*
G75*
G02*
X158975001Y-144800000I250001J0D01*
G01*
X160224999Y-144800000D01*
G75*
G02*
X160475000Y-145050001I0J-250001D01*
G01*
X160475000Y-145974999D01*
G75*
G02*
X160224999Y-146225000I-250001J0D01*
G01*
G37*
G36*
G01*
X193124999Y-149200000D02*
X191875001Y-149200000D01*
G75*
G02*
X191625000Y-148949999I0J250001D01*
G01*
X191625000Y-148025001D01*
G75*
G02*
X191875001Y-147775000I250001J0D01*
G01*
X193124999Y-147775000D01*
G75*
G02*
X193375000Y-148025001I0J-250001D01*
G01*
X193375000Y-148949999D01*
G75*
G02*
X193124999Y-149200000I-250001J0D01*
G01*
G37*
G36*
G01*
X193124999Y-146225000D02*
X191875001Y-146225000D01*
G75*
G02*
X191625000Y-145974999I0J250001D01*
G01*
X191625000Y-145050001D01*
G75*
G02*
X191875001Y-144800000I250001J0D01*
G01*
X193124999Y-144800000D01*
G75*
G02*
X193375000Y-145050001I0J-250001D01*
G01*
X193375000Y-145974999D01*
G75*
G02*
X193124999Y-146225000I-250001J0D01*
G01*
G37*
G36*
G01*
X109124999Y-149200000D02*
X107875001Y-149200000D01*
G75*
G02*
X107625000Y-148949999I0J250001D01*
G01*
X107625000Y-148025001D01*
G75*
G02*
X107875001Y-147775000I250001J0D01*
G01*
X109124999Y-147775000D01*
G75*
G02*
X109375000Y-148025001I0J-250001D01*
G01*
X109375000Y-148949999D01*
G75*
G02*
X109124999Y-149200000I-250001J0D01*
G01*
G37*
G36*
G01*
X109124999Y-146225000D02*
X107875001Y-146225000D01*
G75*
G02*
X107625000Y-145974999I0J250001D01*
G01*
X107625000Y-145050001D01*
G75*
G02*
X107875001Y-144800000I250001J0D01*
G01*
X109124999Y-144800000D01*
G75*
G02*
X109375000Y-145050001I0J-250001D01*
G01*
X109375000Y-145974999D01*
G75*
G02*
X109124999Y-146225000I-250001J0D01*
G01*
G37*
G36*
G01*
X142124999Y-149200000D02*
X140875001Y-149200000D01*
G75*
G02*
X140625000Y-148949999I0J250001D01*
G01*
X140625000Y-148025001D01*
G75*
G02*
X140875001Y-147775000I250001J0D01*
G01*
X142124999Y-147775000D01*
G75*
G02*
X142375000Y-148025001I0J-250001D01*
G01*
X142375000Y-148949999D01*
G75*
G02*
X142124999Y-149200000I-250001J0D01*
G01*
G37*
G36*
G01*
X142124999Y-146225000D02*
X140875001Y-146225000D01*
G75*
G02*
X140625000Y-145974999I0J250001D01*
G01*
X140625000Y-145050001D01*
G75*
G02*
X140875001Y-144800000I250001J0D01*
G01*
X142124999Y-144800000D01*
G75*
G02*
X142375000Y-145050001I0J-250001D01*
G01*
X142375000Y-145974999D01*
G75*
G02*
X142124999Y-146225000I-250001J0D01*
G01*
G37*
M02*
